<?xml version="1.0" encoding="iso-8859-1"?>
<!-- Generator: Adobe Illustrator 19.0.0, SVG Export Plug-In . SVG Version: 6.00 Build 0)  -->
<svg version="1.1" id="Capa_1" xmlns="http://www.w3.org/2000/svg" xmlns:xlink="http://www.w3.org/1999/xlink" x="0px" y="0px"
	 viewBox="0 0 512 512" style="enable-background:new 0 0 512 512;" xml:space="preserve">
<g>
	<g>
		<path d="M329.883,366.996h-89.437c-5.522,0-10,4.478-10,10c0,5.522,4.478,10,10,10h89.437c5.522,0,10-4.478,10-10
			C339.883,371.474,335.405,366.996,329.883,366.996z"/>
	</g>
</g>
<g>
	<g>
		<path d="M247.559,413.93c-1.859-1.861-4.429-2.93-7.069-2.93c-2.631,0-5.211,1.069-7.07,2.93c-1.86,1.86-2.93,4.44-2.93,7.07
			s1.069,5.21,2.93,7.069c1.859,1.86,4.439,2.931,7.07,2.931c2.63,0,5.21-1.07,7.069-2.931c1.87-1.859,2.94-4.439,2.94-7.069
			S249.429,415.79,247.559,413.93z"/>
	</g>
</g>
<g>
	<g>
		<path d="M329.93,411h-44.78c-5.522,0-10,4.478-10,10c0,5.522,4.478,10,10,10h44.779c5.522,0,10-4.478,10-10
			C339.929,415.478,335.452,411,329.93,411z"/>
	</g>
</g>
<g>
	<g>
		<path d="M329.894,278.829h-89.427c-5.522,0-10,4.478-10,10c0,5.522,4.478,10,10,10h89.427c5.522,0,10-4.478,10-10
			C339.894,283.307,335.416,278.829,329.894,278.829z"/>
	</g>
</g>
<g>
	<g>
		<path d="M329.894,322.833h-89.4c-5.522,0-10,4.478-10,10c0,5.522,4.478,10,10,10h89.4c5.522,0,10-4.478,10-10
			C339.894,327.311,335.416,322.833,329.894,322.833z"/>
	</g>
</g>
<g>
	<g>
		<path d="M130,83.818H64c-5.522,0-10,4.478-10,10c0,5.522,4.478,10,10,10h66c5.522,0,10-4.478,10-10
			C140,88.296,135.522,83.818,130,83.818z"/>
	</g>
</g>
<g>
	<g>
		<path d="M130,127.821H64.02c-5.522,0-10,4.478-10,10c0,5.522,4.478,10,10,10H130c5.522,0,10-4.478,10-10
			C140,132.299,135.522,127.821,130,127.821z"/>
	</g>
</g>
<g>
	<g>
		<path d="M130,171.825H64.02c-5.522,0-10,4.478-10,10c0,5.522,4.478,10,10,10H130c5.522,0,10-4.478,10-10
			C140,176.303,135.522,171.825,130,171.825z"/>
	</g>
</g>
<g>
	<g>
		<path d="M130,215.828H64.02c-5.522,0-10,4.478-10,10c0,5.522,4.478,10,10,10H130c5.522,0,10-4.478,10-10
			C140,220.306,135.522,215.828,130,215.828z"/>
	</g>
</g>
<g>
	<g>
		<path d="M502,219h-70v-33c0-5.522-4.478-10-10-10c-5.522,0-10,4.478-10,10v229c0,16.542,13.458,30,30,30s30-13.458,30-30V239h20
			v176c0,27.57-22.43,50-50,50s-50-22.43-50-50V235V47h20.486v68.5c0,5.522,4.478,10,10,10c5.522,0,10-4.478,10-10V37
			c0-5.522-4.478-10-10-10H382h-62H10C4.478,27,0,31.478,0,37v378c0,38.599,31.401,70,70,70h372c38.598,0,70-31.402,70-70V229
			C512,223.478,507.522,219,502,219z M452,415c0,5.514-4.486,10-10,10c-5.514,0-10-4.486-10-10V239h20V415z M70,465
			c-27.57,0-50-22.43-50-50V47h300h52v188v180c0,19.572,8.084,37.284,21.077,50H70z"/>
	</g>
</g>
<g>
	<g>
		<path d="M429.559,141.93c-1.859-1.861-4.439-2.93-7.069-2.93c-2.631,0-5.211,1.069-7.08,2.93c-1.86,1.86-2.92,4.44-2.92,7.07
			s1.06,5.21,2.92,7.069c1.869,1.86,4.449,2.931,7.08,2.931c2.63,0,5.21-1.07,7.069-2.931c1.86-1.859,2.931-4.439,2.931-7.069
			S431.42,143.79,429.559,141.93z"/>
	</g>
</g>
<g>
	<g>
		<path d="M335.564,144.549c-0.061-0.2-0.122-0.401-0.194-0.595c-11.683-34.908-44.687-60.136-83.476-60.136
			c-0.027,0-0.055,0.001-0.082,0.001c-0.007,0-0.014-0.001-0.021-0.001c-0.012,0-0.023,0.002-0.035,0.002
			c-38.73,0.06-71.671,25.268-83.339,60.136c-0.071,0.191-0.131,0.388-0.19,0.586c-2.809,8.592-4.333,17.759-4.333,27.276
			c0,48.523,39.477,88,88,88c48.523,0,88-39.477,88-88C339.894,162.303,338.37,153.139,335.564,144.549z M261.791,104.547
			c21.981,3.22,40.567,16.996,50.455,35.999l-22.423,5.524l-28.032-20.366V104.547z M251.791,143.159l24.1,17.51L266.686,189
			h-29.789l-9.205-28.331L251.791,143.159z M241.791,104.573v21.131l-27.975,20.325l-22.274-5.484
			C201.398,121.602,219.899,107.848,241.791,104.573z M204.021,220.058c-12.421-12.327-20.127-29.399-20.127-48.24
			c0-4.194,0.402-8.294,1.132-12.281l23.118,5.692l10.502,32.323L204.021,220.058z M251.893,239.819
			c-11.457-0.001-22.255-2.861-31.736-7.887L235.059,209h33.691l14.896,22.924C274.161,236.955,263.357,239.819,251.893,239.819z
			 M299.78,220.045l-14.768-22.726l10.407-32.03l23.343-5.751c0.73,3.986,1.132,8.085,1.132,12.279
			C319.894,190.653,312.193,207.719,299.78,220.045z"/>
	</g>
</g>
<g>
	<g>
		<path d="M178.248,278.829H81.752C66.449,278.829,54,291.278,54,306.581v96.496c0,15.303,12.449,27.752,27.752,27.752h96.496
			c15.303,0,27.752-12.449,27.752-27.752v-96.496C206,291.278,193.551,278.829,178.248,278.829z M186,403.077
			c0,4.275-3.478,7.752-7.752,7.752H81.752c-4.274,0-7.752-3.478-7.752-7.752v-38.248h112V403.077z M186,344.829H74v-38.248
			c0-4.274,3.478-7.752,7.752-7.752h96.496c4.274,0,7.752,3.478,7.752,7.752V344.829z"/>
	</g>
</g>
<g>
</g>
<g>
</g>
<g>
</g>
<g>
</g>
<g>
</g>
<g>
</g>
<g>
</g>
<g>
</g>
<g>
</g>
<g>
</g>
<g>
</g>
<g>
</g>
<g>
</g>
<g>
</g>
<g>
</g>
</svg>
