<?xml version="1.0" encoding="iso-8859-1"?>
<!-- Generator: Adobe Illustrator 19.0.0, SVG Export Plug-In . SVG Version: 6.00 Build 0)  -->
<svg version="1.1" id="Capa_1" xmlns="http://www.w3.org/2000/svg" xmlns:xlink="http://www.w3.org/1999/xlink" x="0px" y="0px"
	 viewBox="0 0 511.999 511.999" style="enable-background:new 0 0 511.999 511.999;" xml:space="preserve">
<g>
	<g>
		<path d="M506.425,371.397l-13.005-13.001c-0.222-0.222-0.461-0.416-0.691-0.624c0.692-1.989,1.073-4.093,1.073-6.261
			c0-5.084-1.98-9.863-5.575-13.456l-13.005-13.001c-2.307-2.305-5.063-3.892-7.99-4.764c-0.89-2.991-2.512-5.733-4.782-8.002
			l-13.004-13c-5.082-5.079-12.344-6.677-18.8-4.799c-0.299-0.345-0.597-0.692-0.924-1.018l-13.005-13.001
			c-7.42-7.414-19.49-7.415-26.912,0.001l-21.693,21.686c-3.054-3.361-7.027-5.748-11.545-6.863l-15.427-3.809
			c39.301-25.171,66.782-67.227,72.143-115.846c0.829-1.948,1.004-4.081,0.556-6.094c0.267-3.75,0.411-7.535,0.411-11.352
			c0-87.225-70.986-158.188-158.24-158.188c-47.654,0-90.455,21.169-119.49,54.592c-0.835,0.71-1.547,1.55-2.108,2.485
			C111.545,84.518,97.77,119.776,97.77,158.194c0,55.008,28.239,103.54,70.979,131.892l-13.316,3.288
			c-4.518,1.115-8.491,3.502-11.545,6.863l-21.694-21.687c-7.42-7.414-19.492-7.415-26.912,0.001L82.279,291.55
			c-0.327,0.327-0.625,0.673-0.925,1.019c-6.456-1.877-13.718-0.279-18.799,4.8l-13.006,13c-2.269,2.269-3.891,5.011-4.781,8.002
			c-2.927,0.872-5.684,2.458-7.991,4.764l-13.003,12.999c-3.596,3.594-5.576,8.373-5.576,13.457c0,2.168,0.381,4.272,1.073,6.261
			c-0.23,0.209-0.47,0.403-0.692,0.625L5.576,369.475C1.98,373.069,0,377.848,0,382.932c0,5.084,1.98,9.863,5.575,13.456
			l22.746,22.738c0.002,0.002,0.005,0.005,0.008,0.007l43.21,43.195c9.399,9.396,20.313,16.92,32.438,22.364l19.56,8.781
			c0.191,0.086,0.386,0.151,0.58,0.224c0.932,1.768,2.131,3.408,3.585,4.861l7.544,7.542c3.918,3.916,9.063,5.874,14.209,5.874
			c5.145,0,10.291-1.958,14.207-5.874l78.869-78.84h0.001c3.796-3.795,5.887-8.841,5.887-14.208c0-5.368-2.091-10.414-5.888-14.208
			l-7.544-7.542c-1.469-1.469-3.11-2.662-4.86-3.58c-0.045-0.12-0.081-0.242-0.131-0.362l-10.132-24.087l-14.123-55.08
			c15.8,5.305,32.703,8.185,50.268,8.185c17.756,0,34.838-2.939,50.785-8.356l-14.659,57.171l-10.132,24.087
			c-0.279,0.663-0.477,1.339-0.606,2.019c-2.769,1.198-5.368,2.906-7.628,5.164l-1.052,1.052
			c-4.663,4.662-7.232,10.861-7.232,17.457c0,6.595,2.569,12.794,7.232,17.456l72.377,72.352c4.812,4.81,11.131,7.214,17.45,7.214
			c6.319,0,12.641-2.405,17.452-7.215l1.053-1.053c2.235-2.235,3.983-4.826,5.204-7.641c0.745-0.144,1.486-0.368,2.209-0.692
			l19.56-8.781c12.125-5.444,23.039-12.969,32.438-22.364l43.21-43.195c0.002-0.003,0.005-0.005,0.008-0.008l22.745-22.737
			c3.596-3.594,5.576-8.373,5.576-13.457C511.999,379.767,510.02,374.99,506.425,371.397z M380.086,219.076l-57.765,20.177
			l-26.541-40.828l14.463-44.495l43.794-9.829l39.104,31.634C391.184,191.109,386.683,205.697,380.086,219.076z M375.343,88.509
			c10.828,18.458,17.497,39.632,18.704,62.235l-26.53-21.463L375.343,88.509z M359.227,66.378l-11.246,58.585l-43.268,9.711
			l-38.558-28.004V66.446l56.563-29.25C336.491,44.814,348.83,54.711,359.227,66.378z M290.443,149.241l-13.207,40.633h-42.747
			l-13.207-40.633l34.581-25.115L290.443,149.241z M256.01,20.007c15.042-0.001,29.528,2.422,43.096,6.884l-42.94,22.205
			l-41.262-22.852C227.895,22.192,241.702,20.007,256.01,20.007z M191.374,36.074l54.49,30.177v40.418l-38.558,28.004l-43.155-9.686
			l-10.461-59.62C164.419,53.56,177.167,43.618,191.374,36.074z M117.77,158.194c0-25.813,7.124-49.99,19.499-70.684l7.481,42.635
			l-26.964,29.27C117.782,159.008,117.77,158.602,117.77,158.194z M135.726,226.235c-7.037-12.382-12.221-25.947-15.161-40.32
			l38.332-41.608l42.88,9.624l6.28,19.322l8.182,25.174l-26.915,41.401L135.726,226.235z M220.71,405.448
			c0.019-0.019,0.043-0.028,0.068-0.028c0.025,0,0.05,0.01,0.069,0.028l7.545,7.543c0.031,0.029,0.03,0.096,0.001,0.126
			l-78.87,78.84c-0.037,0.038-0.098,0.036-0.137,0l-7.545-7.543c-0.03-0.029-0.029-0.097,0-0.126L220.71,405.448z M209.07,389.207
			c-0.874,0.628-1.719,1.312-2.504,2.097l-78.869,78.84c-0.742,0.742-1.399,1.545-2.008,2.375l-13.524-6.072
			c-9.897-4.446-18.811-10.59-26.486-18.263l-43.206-43.19c-0.004-0.004-0.007-0.008-0.011-0.012l-22.058-22.05l11.631-11.628
			l31.969,31.957c1.22,1.22,2.677,2.059,4.223,2.516c3.402,1.007,7.235,0.168,9.918-2.519c3.904-3.905,3.903-10.237-0.003-14.142
			l-32.651-32.641c-0.002-0.002-0.004-0.003-0.006-0.005l-6.883-6.881l11.63-11.627l29.672,29.661
			c1.952,1.952,4.511,2.928,7.069,2.928c2.56,0,5.12-0.977,7.072-2.931c3.904-3.905,3.903-10.237-0.002-14.142l-4.209-4.208
			l-25.458-25.448l11.631-11.627l6.264,6.262c0.001,0.001,0.002,0.003,0.003,0.004l33.277,33.266
			c0.732,0.732,1.55,1.327,2.421,1.785c3.774,1.983,8.55,1.387,11.721-1.788c1.22-1.22,2.059-2.678,2.516-4.224
			c1.006-3.402,0.167-7.233-2.518-9.917l-32.589-32.577l11.632-11.627l30.42,30.41l7.122,26.568c1.43,5.335,6.914,8.503,12.248,7.07
			c5.335-1.43,8.5-6.914,7.07-12.248l-7.23-26.973c-0.059-0.869-0.233-1.729-0.518-2.562c0.039-0.626,0.258-1.119,0.427-1.403
			c0.25-0.424,0.836-1.176,1.95-1.451l21.473-5.302c1.657-0.407,3.368,0.604,3.794,2.265l12.952,50.516l-39.35,14.797
			c-5.17,1.944-7.784,7.711-5.841,12.88c1.508,4.011,5.316,6.483,9.362,6.483c1.169,0,2.358-0.207,3.518-0.643l38.738-14.566
			L209.07,389.207z M154.181,251.548l33.559,8.511l19.05,27.261C186.552,279.586,168.582,267.232,154.181,251.548z M275.963,294.936
			c-6.518,0.946-13.178,1.445-19.954,1.445c-6.666-0.001-13.22-0.485-19.637-1.401c-0.23-0.477-0.49-0.945-0.803-1.393
			l-29.705-42.508l26.786-41.205h46.718l26.802,41.23l-29.45,42.517C276.427,294.045,276.183,294.487,275.963,294.936z
			 M305.481,287.224l19.101-27.576l37.687-13.164C347.255,264.51,327.747,278.665,305.481,287.224z M366.908,489.584l-1.053,1.053
			c-1.823,1.823-4.795,1.825-6.62,0l-72.377-72.352c-1.194-1.193-1.373-2.587-1.373-3.312c0-0.726,0.179-2.119,1.374-3.313
			l1.051-1.051c0.913-0.913,2.112-1.369,3.312-1.369s2.398,0.456,3.311,1.368l72.377,72.352c1.194,1.193,1.373,2.587,1.373,3.312
			C368.283,486.997,368.104,488.39,366.908,489.584z M469.538,406.903c-0.004,0.004-0.007,0.008-0.01,0.011l-43.208,43.191
			c-7.675,7.673-16.588,13.817-26.489,18.263l-14.36,6.447c-1.147-2.183-2.627-4.206-4.421-5.999l-72.378-72.353
			c-1.844-1.843-3.912-3.326-6.114-4.463l4.569-10.861l39.091,14.699c1.159,0.436,2.349,0.643,3.518,0.643
			c4.046,0,7.854-2.474,9.362-6.483c1.943-5.169-0.671-10.936-5.841-12.88l-39.703-14.929l12.952-50.515
			c0.427-1.661,2.133-2.675,3.794-2.266l21.473,5.302c1.114,0.275,1.7,1.027,1.95,1.451c0.168,0.285,0.388,0.777,0.427,1.403
			c-0.285,0.833-0.459,1.694-0.518,2.563l-7.23,26.972c-1.43,5.334,1.735,10.818,7.07,12.248c5.34,1.432,10.819-1.735,12.248-7.07
			l7.122-26.568l30.42-30.41l11.632,11.627l-32.589,32.577c-3.905,3.904-3.906,10.236-0.002,14.143
			c0.723,0.723,1.529,1.31,2.387,1.765c0.012,0.006,0.022,0.014,0.034,0.02c0.005,0.002,0.01,0.004,0.014,0.007
			c3.269,1.712,7.279,1.484,10.354-0.667c0.474-0.331,0.93-0.699,1.353-1.122l33.276-33.265c0.001-0.001,0.002-0.003,0.003-0.004
			l6.265-6.263l11.632,11.628l-27.434,27.423c-3.906,3.904-3.907,10.236-0.003,14.142c1.418,1.418,3.156,2.315,4.98,2.703
			c0.061,0.013,0.12,0.032,0.18,0.044c0.142,0.028,0.286,0.041,0.429,0.062c0.174,0.026,0.348,0.059,0.523,0.075
			c0.048,0.005,0.096,0.003,0.144,0.007c0.909,0.074,1.827,0.03,2.725-0.144c0.012-0.002,0.024-0.006,0.036-0.009
			c0.303-0.06,0.604-0.132,0.901-0.22c0.164-0.048,0.323-0.112,0.485-0.169c0.143-0.051,0.289-0.093,0.43-0.15
			c1.204-0.488,2.332-1.22,3.308-2.196l27.44-27.428l11.63,11.627l-29.636,29.625c-3.905,3.904-3.906,10.236-0.002,14.142
			c1.953,1.954,4.513,2.931,7.072,2.931c2.559,0,5.117-0.976,7.069-2.928l22.064-22.055l11.63,11.627L469.538,406.903z"/>
	</g>
</g>
<g>
	<g>
		<path d="M385.349,388.348c-1.859-1.861-4.439-2.93-7.07-2.93c-2.63,0-5.21,1.069-7.069,2.93c-1.86,1.86-2.931,4.44-2.931,7.07
			c0,2.64,1.07,5.21,2.931,7.069c1.859,1.86,4.439,2.931,7.069,2.931c2.631,0,5.211-1.07,7.07-2.931
			c1.86-1.859,2.93-4.439,2.93-7.069S387.21,390.208,385.349,388.348z"/>
	</g>
</g>
<g>
	<g>
		<path d="M142.069,384.758c-1.859-1.86-4.439-2.931-7.069-2.931c-2.641,0-5.21,1.07-7.07,2.931c-1.86,1.859-2.93,4.439-2.93,7.069
			c0,2.631,1.069,5.211,2.93,7.07c1.86,1.86,4.44,2.93,7.07,2.93s5.21-1.069,7.069-2.93c1.86-1.859,2.931-4.439,2.931-7.07
			C145,389.197,143.93,386.617,142.069,384.758z"/>
	</g>
</g>
<g>
</g>
<g>
</g>
<g>
</g>
<g>
</g>
<g>
</g>
<g>
</g>
<g>
</g>
<g>
</g>
<g>
</g>
<g>
</g>
<g>
</g>
<g>
</g>
<g>
</g>
<g>
</g>
<g>
</g>
</svg>
