<?xml version="1.0" encoding="iso-8859-1"?>
<!-- Generator: Adobe Illustrator 19.0.0, SVG Export Plug-In . SVG Version: 6.00 Build 0)  -->
<svg version="1.1" id="Capa_1" xmlns="http://www.w3.org/2000/svg" xmlns:xlink="http://www.w3.org/1999/xlink" x="0px" y="0px"
	 viewBox="0 0 512 512" style="enable-background:new 0 0 512 512;" xml:space="preserve">
<g>
	<g>
		<path d="M326.991,356.32H185.009c-5.521,0-9.999,4.477-9.999,9.999v52.66c0,5.521,4.477,9.999,9.999,9.999
			s9.999-4.477,9.999-9.999v-42.661h121.984v42.661c0,5.521,4.477,9.999,9.999,9.999s9.999-4.477,9.999-9.999v-52.66
			C336.99,360.797,332.513,356.32,326.991,356.32z"/>
	</g>
</g>
<g>
	<g>
		<path d="M326.991,83.022c-5.521,0-9.999,4.477-9.999,9.999v42.661H195.008V93.021c0-5.521-4.477-9.999-9.999-9.999
			s-9.999,4.477-9.999,9.999v52.66c0,5.522,4.477,9.999,9.999,9.999h141.982c5.521,0,9.999-4.477,9.999-9.999v-52.66
			C336.99,87.499,332.512,83.022,326.991,83.022z"/>
	</g>
</g>
<g>
	<g>
		<path d="M511.967,154.861c0.041-0.535,0.047-1.075,0-1.618V90.021c0-49.62-40.369-89.988-89.988-89.988H90.021
			c-49.62,0-89.988,40.369-89.988,89.988v63.222c-0.047,0.543-0.041,1.083,0,1.618v202.279c-0.041,0.535-0.047,1.075,0,1.618v63.222
			c0,49.62,40.369,89.988,89.988,89.988h331.957c49.62,0,89.988-40.369,89.988-89.988v-63.222c0.047-0.543,0.041-1.083,0-1.619
			V154.861z M20.03,90.022c0-38.594,31.398-69.992,69.991-69.992h155.98v27.996H98.02c-27.566,0-49.994,22.427-49.994,49.994v61.011
			L20.03,147.435V90.022z M384.781,199.543l0.018,46.459h-59.534C320.397,212.13,291.197,186.01,256,186.01
			c-35.196,0-64.398,26.121-69.265,59.992H127.35l0.042-108.422c0.002-5.521-4.473-10.001-9.995-10.003c-0.001,0-0.003,0-0.004,0
			c-5.52,0-9.997,4.474-9.999,9.995l-0.018,46.043l-39.352-16.3V98.02c0-16.54,13.456-29.996,29.996-29.996h286.709l0.051,129.482
			C384.71,198.177,384.712,198.859,384.781,199.543z M384.825,314.799l0.023,59.05c0.002,5.52,4.478,9.995,9.999,9.995
			c0.001,0,0.003,0,0.004,0c5.521-0.002,9.997-4.48,9.995-10.003l-0.018-45.37l39.146,16.215v69.294
			c0,16.54-13.456,29.996-29.996,29.996H127.273v-0.001l0.069-177.977h59.392c4.868,33.872,34.069,59.992,69.265,59.992
			c35.196,0,64.398-26.121,69.265-59.992h59.542l0.018,46.145C384.705,313.036,384.707,313.927,384.825,314.799z M404.801,254.136
			l-0.019-48.941l39.194-16.235v134.079l-39.154-16.218l-0.02-48.967c0.113-0.602,0.179-1.22,0.179-1.855
			C404.981,255.362,404.915,254.74,404.801,254.136z M404.773,183.552l-0.046-115.528h9.253c16.54,0,29.996,13.456,29.996,29.996
			v69.294L404.773,183.552z M304.988,265.998c-4.645,22.792-24.844,39.995-48.988,39.995s-44.342-17.203-48.988-39.995H304.988z
			 M207.012,246.001c4.645-22.792,24.844-39.995,48.988-39.995s44.342,17.203,48.988,39.995H207.012z M107.349,257.172l-0.02,49.587
			l-39.304,16.28V188.961l39.343,16.297l-0.019,49.564c-0.046,0.387-0.075,0.779-0.075,1.179
			C107.274,256.397,107.304,256.787,107.349,257.172z M107.32,328.408l-0.045,115.567H98.02c-16.54,0-29.996-13.456-29.996-29.996
			v-69.294L107.32,328.408z M20.03,169.081l27.996,11.596v150.646L20.03,342.919V169.081z M246.001,491.97H90.021
			c-38.593-0.001-69.991-31.399-69.991-69.992v-57.413l27.996-11.596v61.011c0,27.566,22.427,49.994,49.994,49.994h147.981V491.97z
			 M491.97,421.977c0,38.594-31.398,69.992-69.991,69.992h-155.98v-27.996H413.98c27.566,0,49.994-22.427,49.994-49.994v-61.011
			l27.996,11.596V421.977z M491.97,342.919l-27.996-11.596V180.677l27.996-11.597V342.919z M491.97,147.434l-27.996,11.596V98.02
			c0-27.566-22.427-49.994-49.994-49.994H265.999V20.03h155.98c38.593,0,69.991,31.398,69.991,69.991V147.434z"/>
	</g>
</g>
<g>
	<g>
		<path d="M117.393,90.021h-0.242c-5.521,0-9.999,4.477-9.999,9.999c0,5.521,4.476,9.999,9.999,9.999h0.242
			c5.521,0,9.999-4.477,9.999-9.999C127.392,94.498,122.914,90.021,117.393,90.021z"/>
	</g>
</g>
<g>
	<g>
		<path d="M394.849,401.314h-0.242c-5.521,0-9.999,4.477-9.999,9.999s4.477,9.999,9.999,9.999h0.242
			c5.521,0,9.999-4.477,9.999-9.999S400.371,401.314,394.849,401.314z"/>
	</g>
</g>
<g>
</g>
<g>
</g>
<g>
</g>
<g>
</g>
<g>
</g>
<g>
</g>
<g>
</g>
<g>
</g>
<g>
</g>
<g>
</g>
<g>
</g>
<g>
</g>
<g>
</g>
<g>
</g>
<g>
</g>
</svg>
