<?xml version="1.0" encoding="iso-8859-1"?>
<!-- Generator: Adobe Illustrator 19.0.0, SVG Export Plug-In . SVG Version: 6.00 Build 0)  -->
<svg version="1.1" id="Capa_1" xmlns="http://www.w3.org/2000/svg" xmlns:xlink="http://www.w3.org/1999/xlink" x="0px" y="0px"
	 viewBox="0 0 512 512" style="enable-background:new 0 0 512 512;" xml:space="preserve">
<g>
	<g>
		<path d="M136.98,240.18c-1.86-1.86-4.44-2.93-7.07-2.93c-2.63,0-5.21,1.069-7.07,2.93c-1.859,1.86-2.93,4.44-2.93,7.07
			c0,2.64,1.07,5.21,2.93,7.069c1.86,1.87,4.44,2.931,7.07,2.931c2.63,0,5.21-1.061,7.07-2.931c1.859-1.859,2.93-4.439,2.93-7.069
			S138.84,242.05,136.98,240.18z"/>
	</g>
</g>
<g>
	<g>
		<path d="M300.593,253.813L262.51,215.73c-3.053-3.051-7.719-3.799-11.573-1.858l-91.839,46.304
			c-2.865,1.445-4.863,4.177-5.371,7.345c-0.509,3.168,0.533,6.388,2.802,8.656l20.592,20.592l-81.934,48.522
			c-4.212,2.494-5.999,7.67-4.222,12.232c1.52,3.902,5.264,6.373,9.313,6.373c0.684,0,1.377-0.07,2.068-0.216l173.285-36.549
			c3.591-0.758,6.478-3.42,7.522-6.938c1.044-3.518,0.08-7.324-2.515-9.919l-21.071-21.071l38.457-19.389
			c2.865-1.445,4.863-4.177,5.371-7.345C303.904,259.301,302.862,256.081,300.593,253.813z M238.217,277.57
			c-2.865,1.445-4.863,4.177-5.371,7.345c-0.509,3.168,0.533,6.388,2.802,8.656l17.8,17.8l-95.883,20.224l40.833-24.183
			c2.658-1.574,4.439-4.289,4.826-7.354c0.386-3.064-0.666-6.137-2.851-8.321l-19.926-19.926l73.034-36.823l23.193,23.193
			L238.217,277.57z"/>
	</g>
</g>
<g>
	<g>
		<path d="M509.061,2.928c-3.906-3.904-10.236-3.904-14.143,0l-44.497,44.497l-16.328-16.329c-1.876-1.875-4.419-2.929-7.071-2.929
			c-2.652,0-5.196,1.054-7.071,2.929l-23.788,23.788l-7.755-7.755c-3.906-3.904-10.236-3.904-14.143,0l-34.923,34.923l-7.522-7.522
			c-2.988-2.988-7.533-3.775-11.354-1.965l-55.482,26.296c0.001,0.003,0.002,0.006,0.003,0.009
			c-1.008,0.478-1.957,1.122-2.791,1.956L147.29,215.73c-3.905,3.905-3.905,10.237,0,14.143c3.906,3.904,10.238,3.905,14.143,0
			L269.266,122.04l15.521,15.521l-34.867,34.867c-3.905,3.905-3.905,10.237,0,14.143c1.953,1.952,4.512,2.929,7.071,2.929
			s5.118-0.977,7.071-2.929l34.867-34.867l91.021,91.021L162.404,470.271l-35.692-35.692c-3.906-3.904-10.236-3.904-14.143,0
			c-3.905,3.905-3.905,10.237,0,14.143l35.692,35.692l-1.62,1.62c-3.848,3.848-8.964,5.967-14.406,5.967
			c-5.441,0-10.558-2.119-14.405-5.968L25.958,394.16c-3.848-3.848-5.967-8.964-5.967-14.405c0-5.442,2.119-10.559,5.967-14.406
			l85.787-85.787c3.905-3.905,3.905-10.237,0-14.143c-3.906-3.904-10.236-3.904-14.143,0l-85.787,85.787
			c-15.741,15.742-15.741,41.354,0,57.097l91.872,91.871C111.312,507.8,121.451,512,132.235,512
			c10.785,0,20.924-4.199,28.549-11.825l250.38-250.38c0.834-0.834,1.479-1.783,1.957-2.792c0.003,0.001,0.005,0.002,0.008,0.004
			l26.296-55.482c1.811-3.82,1.023-8.365-1.965-11.354l-7.522-7.522l34.923-34.923c3.905-3.905,3.905-10.237,0-14.143l-7.957-7.957
			l23.787-23.787c3.905-3.905,3.905-10.237,0-14.143l-16.127-16.127l44.497-44.497C512.967,13.166,512.967,6.833,509.061,2.928z
			 M406.754,93.759l11.54,11.54l-27.852,27.852l-11.54-11.54L406.754,93.759z M381.337,68.342l11.274,11.274l-27.852,27.852
			l-11.274-11.274L381.337,68.342z M401.132,225.62L286.37,110.858l36.292-17.201l95.671,95.671L401.132,225.62z M415.796,158.504
			l-11.211-11.211l27.852-27.852l11.211,11.211L415.796,158.504z M442.761,101.482l-32.456-32.456l16.717-16.716l16.319,16.319
			c0.003,0.003,0.006,0.007,0.009,0.01s0.007,0.006,0.01,0.009l16.118,16.118L442.761,101.482z"/>
	</g>
</g>
<g>
	<g>
		<path d="M105.059,413.229c-1.859-1.859-4.439-2.93-7.069-2.93s-5.21,1.071-7.07,2.93c-1.86,1.87-2.93,4.44-2.93,7.07
			s1.069,5.21,2.93,7.08c1.86,1.86,4.44,2.93,7.07,2.93s5.21-1.069,7.069-2.93c1.86-1.86,2.931-4.44,2.931-7.08
			C107.99,417.669,106.92,415.089,105.059,413.229z"/>
	</g>
</g>
<g>
</g>
<g>
</g>
<g>
</g>
<g>
</g>
<g>
</g>
<g>
</g>
<g>
</g>
<g>
</g>
<g>
</g>
<g>
</g>
<g>
</g>
<g>
</g>
<g>
</g>
<g>
</g>
<g>
</g>
</svg>
