<?xml version="1.0" encoding="iso-8859-1"?>
<!-- Generator: Adobe Illustrator 19.0.0, SVG Export Plug-In . SVG Version: 6.00 Build 0)  -->
<svg version="1.1" id="Capa_1" xmlns="http://www.w3.org/2000/svg" xmlns:xlink="http://www.w3.org/1999/xlink" x="0px" y="0px"
	 viewBox="0 0 512 512" style="enable-background:new 0 0 512 512;" xml:space="preserve">
<g>
	<g>
		<path d="M462,0H50C22.43,0,0,22.43,0,50v296.997c0,5.522,4.477,10,10,10h39.966c0.009,0,0.017,0.001,0.026,0.001
			c0.025,0,0.05-0.004,0.075-0.004c0.348-0.002,0.691-0.022,1.03-0.06c0.094-0.01,0.186-0.03,0.28-0.043
			c0.274-0.038,0.546-0.083,0.813-0.142c0.105-0.024,0.209-0.054,0.314-0.081c0.251-0.065,0.499-0.137,0.742-0.221
			c0.113-0.039,0.224-0.08,0.336-0.123c0.23-0.088,0.456-0.186,0.677-0.29c0.115-0.054,0.229-0.106,0.342-0.165
			c0.224-0.116,0.441-0.244,0.654-0.377c0.098-0.061,0.199-0.115,0.295-0.179c0.291-0.195,0.571-0.404,0.84-0.627
			c0.09-0.075,0.173-0.159,0.261-0.237c0.189-0.169,0.374-0.342,0.55-0.525c0.091-0.095,0.179-0.194,0.267-0.293
			c0.174-0.196,0.34-0.399,0.499-0.608c0.044-0.058,0.094-0.108,0.137-0.167l62.68-86.728H138.5c5.523,0,10-4.478,10-10
			c0-5.522-4.477-10-10-10h-12.826V60H452v255.738l-38.016-52.6c-3.235-4.478-9.487-5.483-13.962-2.247
			c-4.477,3.234-5.482,9.486-2.248,13.962l44.914,62.145H130.333c-5.523,0-10,4.478-10,10c0,5.522,4.477,10,10,10H462h0.245
			c0.006,0,0.011,0.001,0.017,0.001c0.009,0,0.017-0.001,0.026-0.001H502c5.523,0,10-4.478,10-10V50C512,22.43,489.57,0,462,0z
			 M105.674,252.892L60,316.089V60h45.674V252.892z M492,336.997h-20V50c0-5.522-4.477-10-10-10H50c-5.523,0-10,4.478-10,10v286.997
			H20V50c0-16.542,13.458-30,30-30h412c16.542,0,30,13.458,30,30V336.997z"/>
	</g>
</g>
<g>
	<g>
		<path d="M409.778,102.258c-9.83-9.829-22.898-15.242-36.799-15.242s-26.969,5.413-36.798,15.242
			c-9.83,9.829-15.243,22.898-15.243,36.799s5.414,26.97,15.243,36.799c9.83,9.829,22.898,15.242,36.799,15.242
			s26.969-5.412,36.798-15.242c9.829-9.829,15.242-22.898,15.242-36.799S419.607,112.087,409.778,102.258z M395.635,161.714
			c-6.051,6.052-14.098,9.385-22.656,9.385c-8.558,0-16.605-3.333-22.657-9.385s-9.384-14.098-9.384-22.656
			c0-8.559,3.333-16.604,9.385-22.656c6.051-6.052,14.098-9.385,22.656-9.385c8.558,0,16.605,3.333,22.656,9.385
			c6.052,6.052,9.385,14.098,9.385,22.656S401.687,155.662,395.635,161.714z"/>
	</g>
</g>
<g>
	<g>
		<path d="M100.01,339.93c-1.86-1.87-4.43-2.93-7.07-2.93c-2.63,0-5.21,1.06-7.07,2.93c-1.86,1.86-2.93,4.44-2.93,7.07
			s1.07,5.21,2.93,7.069c1.86,1.86,4.44,2.931,7.07,2.931s5.21-1.07,7.07-2.931c1.86-1.859,2.93-4.439,2.93-7.069
			C102.94,344.359,101.87,341.79,100.01,339.93z"/>
	</g>
</g>
<g>
	<g>
		<path d="M509.07,376.6c-1.86-1.871-4.44-2.93-7.07-2.93s-5.21,1.06-7.07,2.93c-1.86,1.86-2.93,4.44-2.93,7.07s1.07,5.21,2.93,7.07
			c1.86,1.859,4.44,2.93,7.07,2.93s5.21-1.07,7.07-2.93s2.93-4.44,2.93-7.07S510.93,378.46,509.07,376.6z"/>
	</g>
</g>
<g>
	<g>
		<path d="M502,412.333c-5.523,0-10,4.478-10,10V492H135c-5.523,0-10,4.478-10,10c0,5.522,4.477,10,10,10h367
			c5.523,0,10-4.478,10-10v-79.667C512,416.811,507.523,412.333,502,412.333z"/>
	</g>
</g>
<g>
</g>
<g>
</g>
<g>
</g>
<g>
</g>
<g>
</g>
<g>
</g>
<g>
</g>
<g>
</g>
<g>
</g>
<g>
</g>
<g>
</g>
<g>
</g>
<g>
</g>
<g>
</g>
<g>
</g>
</svg>
