<?xml version="1.0" encoding="iso-8859-1"?>
<!-- Generator: Adobe Illustrator 19.0.0, SVG Export Plug-In . SVG Version: 6.00 Build 0)  -->
<svg version="1.1" id="Capa_1" xmlns="http://www.w3.org/2000/svg" xmlns:xlink="http://www.w3.org/1999/xlink" x="0px" y="0px"
	 viewBox="0 0 512 512" style="enable-background:new 0 0 512 512;" xml:space="preserve">
<g>
	<g>
		<path d="M348.477,291.666H244.491c-5.522,0-9.997,4.477-9.997,9.997s4.476,9.998,9.997,9.998h103.985
			c5.522,0,9.997-4.477,9.997-9.998S353.998,291.666,348.477,291.666z"/>
	</g>
</g>
<g>
	<g>
		<path d="M397.144,294.59c-1.859-1.859-4.429-2.929-7.068-2.929c-2.629,0-5.209,1.07-7.068,2.929
			c-1.86,1.859-2.929,4.44-2.929,7.078c0,2.629,1.07,5.199,2.929,7.059c1.87,1.869,4.439,2.938,7.068,2.938s5.209-1.07,7.068-2.938
			c1.87-1.859,2.929-4.43,2.929-7.059C400.074,299.029,399.014,296.45,397.144,294.59z"/>
	</g>
</g>
<g>
	<g>
		<path d="M133.634,114.952H48.656c-5.522,0-9.998,4.477-9.998,9.998v59.318c0,5.521,4.476,9.998,9.998,9.998h84.978
			c5.522,0,9.997-4.477,9.997-9.998V124.95C143.631,119.429,139.154,114.952,133.634,114.952z M123.636,174.27H58.653v-39.323
			h64.983V174.27z"/>
	</g>
</g>
<g>
	<g>
		<path d="M133.634,209.762H48.656c-5.522,0-9.998,4.477-9.998,9.997v97.476c0,5.521,4.476,9.997,9.998,9.997h84.978
			c5.522,0,9.997-4.477,9.997-9.997v-97.476C143.631,214.238,139.154,209.762,133.634,209.762z M123.636,307.237H58.653v-77.481
			h64.983V307.237z"/>
	</g>
</g>
<g>
	<g>
		<path d="M511.873,88.292c0-5.521-4.476-9.997-9.998-9.997H9.997C4.476,78.294,0,82.771,0,88.292v335.417
			c0,5.521,4.476,9.997,9.997,9.997h491.878c5.522,0,9.998-4.477,9.998-9.997c0,0,0.127-33.725,0.127-34.242
			S511.873,88.292,511.873,88.292z M19.995,98.289h146.964v4.999c0,5.521,4.476,9.998,9.998,9.998c5.522,0,9.997-4.477,9.997-9.998
			v-4.999h250.938v242.94H186.954v-4.999c0-5.521-4.476-9.997-9.997-9.997c-5.522,0-9.998,4.477-9.998,9.997v4.999H19.995V98.289z
			 M491.878,379.469H158.44c-5.522,0-9.997,4.477-9.997,9.997s4.476,9.997,9.997,9.997h333.438v14.246H19.995v-14.246h57.549
			c5.522,0,9.997-4.477,9.997-9.997s-4.476-9.997-9.997-9.997H19.995v-18.245h471.883V379.469z M491.878,341.229h-33.992V98.289
			h33.992V341.229z"/>
	</g>
</g>
<g>
	<g>
		<path d="M123.102,382.899c-1.86-1.86-4.439-2.929-7.068-2.929c-2.629,0-5.209,1.069-7.068,2.929
			c-1.859,1.859-2.929,4.439-2.929,7.068s1.07,5.209,2.929,7.067c1.86,1.859,4.439,2.93,7.068,2.93c2.629,0,5.209-1.07,7.068-2.93
			c1.859-1.859,2.929-4.438,2.929-7.067S124.962,384.758,123.102,382.899z"/>
	</g>
</g>
<g>
	<g>
		<path d="M385.826,179.153c-0.1-0.359-0.219-0.706-0.354-1.045c-9.675-28.491-36.664-49.057-68.384-49.057
			c-0.018,0-0.036,0.001-0.055,0.001c-0.009,0-0.018-0.001-0.027-0.001c-0.028,0-0.055,0.004-0.083,0.004
			c-31.644,0.072-58.553,20.607-68.215,49.042c-0.14,0.348-0.262,0.705-0.364,1.074c-2.245,6.969-3.47,14.39-3.47,22.094
			c0,39.819,32.395,72.214,72.214,72.214c39.819,0,72.214-32.395,72.214-72.214C389.302,193.555,388.075,186.126,385.826,179.153z
			 M327.004,150.004c14.993,2.894,27.715,12.22,35.182,24.986l-14.415,3.551l-20.767-15.088V150.004z M317.005,180.904l16.848,12.24
			l-6.435,19.806h-20.825l-6.435-19.806L317.005,180.904z M307.008,150.033v13.42l-20.722,15.055l-14.295-3.519
			C279.431,162.27,292.086,152.964,307.008,150.033z M278.594,236.508c-8.518-9.295-13.725-21.671-13.725-35.242
			c0-2.481,0.186-4.92,0.522-7.31l15.224,3.748l7.732,23.795L278.594,236.508z M317.088,253.486c-8.011,0-15.604-1.819-22.394-5.056
			l10.063-15.485h24.68l10.06,15.479C332.701,251.665,325.104,253.486,317.088,253.486z M355.593,236.498l-9.868-15.184
			l7.655-23.562l15.405-3.794c0.336,2.39,0.522,4.828,0.522,7.309C369.307,214.832,364.105,227.204,355.593,236.498z"/>
	</g>
</g>
<g>
</g>
<g>
</g>
<g>
</g>
<g>
</g>
<g>
</g>
<g>
</g>
<g>
</g>
<g>
</g>
<g>
</g>
<g>
</g>
<g>
</g>
<g>
</g>
<g>
</g>
<g>
</g>
<g>
</g>
</svg>
