<?xml version="1.0" encoding="iso-8859-1"?>
<!-- Generator: Adobe Illustrator 19.0.0, SVG Export Plug-In . SVG Version: 6.00 Build 0)  -->
<svg version="1.1" id="Capa_1" xmlns="http://www.w3.org/2000/svg" xmlns:xlink="http://www.w3.org/1999/xlink" x="0px" y="0px"
	 viewBox="0 0 512.001 512.001" style="enable-background:new 0 0 512.001 512.001;" xml:space="preserve">
<g>
	<g>
		<path d="M509.072,2.93c-2.527-2.526-6.209-3.515-9.66-2.588L283.865,58.098c-3.451,0.925-6.146,3.62-7.071,7.071
			c-0.925,3.45,0.062,7.133,2.588,9.659l45.839,45.839L129.45,316.44c-3.905,3.905-3.905,10.237,0,14.143
			c1.952,1.952,4.512,2.929,7.071,2.929s5.119-0.977,7.071-2.929l202.843-202.844c1.875-1.876,2.929-4.419,2.929-7.071
			c0-2.652-1.054-5.195-2.929-7.071l-40.663-40.662l182.086-48.79l-48.79,182.086l-40.664-40.663
			c-3.904-3.905-10.236-3.904-14.142,0l-70.349,70.348c-3.905,3.905-3.905,10.237,0,14.143c3.906,3.904,10.238,3.905,14.142,0
			l63.278-63.277l45.84,45.84c2.526,2.525,6.208,3.513,9.659,2.588c3.451-0.925,6.146-3.62,7.071-7.071l57.757-215.55
			C512.584,9.139,511.598,5.456,509.072,2.93z"/>
	</g>
</g>
<g>
	<g>
		<path d="M276.04,287.929c-3.904-3.903-10.236-3.903-14.142,0.001L61.971,487.859l-37.828-37.827l65.611-65.61
			c3.905-3.905,3.905-10.237,0-14.143c-3.905-3.904-10.238-3.904-14.142,0L2.929,442.96C1.054,444.836,0,447.379,0,450.031
			c0,2.652,1.054,5.195,2.929,7.071l51.97,51.97c1.953,1.952,4.512,2.929,7.071,2.929c2.559,0,5.119-0.977,7.071-2.929l206.999-207
			C279.945,298.167,279.945,291.835,276.04,287.929z"/>
	</g>
</g>
<g>
	<g>
		<path d="M178.912,128.001l47.023-47.022c3.905-3.905,3.905-10.237,0-14.143l-36.77-36.77c-3.905-3.904-10.237-3.904-14.143,0
			L128,77.088L80.978,30.067c-3.905-3.904-10.237-3.904-14.143,0l-36.77,36.77c-3.905,3.905-3.905,10.237,0,14.143l47.023,47.022
			l-47.023,47.022c-3.904,3.905-3.904,10.237,0.001,14.142l36.77,36.77c3.905,3.904,10.237,3.904,14.143,0l47.022-47.022
			l47.022,47.022c1.953,1.952,4.512,2.929,7.071,2.929s5.119-0.977,7.071-2.929l36.77-36.77c3.905-3.905,3.905-10.237,0-14.143
			L178.912,128.001z M182.094,204.721l-47.022-47.022c-1.953-1.952-4.512-2.929-7.071-2.929c-2.559,0-5.119,0.977-7.071,2.929
			l-47.022,47.022L51.28,182.095l47.023-47.023c3.905-3.905,3.905-10.237,0-14.143L51.28,73.907L73.907,51.28l47.022,47.022
			c3.905,3.904,10.237,3.904,14.143,0l47.022-47.022l22.627,22.627l-47.023,47.022c-3.905,3.905-3.905,10.237,0,14.143
			l47.023,47.022L182.094,204.721z"/>
	</g>
</g>
<g>
	<g>
		<path d="M384.001,285.001c-54.589,0-99,44.411-99,99s44.411,99,99,99s99-44.411,99-99S438.59,285.001,384.001,285.001z
			 M384.001,463.001c-43.561,0-79-35.439-79-79c0-43.561,35.439-79,79-79c43.561,0,79,35.439,79,79
			C463.001,427.562,427.561,463.001,384.001,463.001z"/>
	</g>
</g>
<g>
	<g>
		<path d="M384.001,325.59c-32.208,0-58.411,26.203-58.411,58.411c0,32.209,26.203,58.412,58.411,58.412
			s58.412-26.203,58.412-58.412C442.413,351.793,416.209,325.59,384.001,325.59z M384.001,422.413
			c-21.18,0-38.411-17.231-38.411-38.412c0-21.18,17.231-38.411,38.411-38.411c21.18,0,38.412,17.231,38.412,38.411
			C422.413,405.182,405.181,422.413,384.001,422.413z"/>
	</g>
</g>
<g>
	<g>
		<path d="M117.25,342.781c-1.86-1.86-4.44-2.931-7.07-2.931c-2.63,0.001-5.21,1.071-7.07,2.931c-1.86,1.859-2.93,4.43-2.93,7.069
			c0,2.63,1.07,5.21,2.93,7.07c1.86,1.86,4.44,2.93,7.07,2.93s5.21-1.069,7.07-2.93c1.86-1.86,2.93-4.44,2.93-7.07
			S119.11,344.64,117.25,342.781z"/>
	</g>
</g>
<g>
	<g>
		<path d="M302.07,261.901c-1.86-1.859-4.44-2.93-7.07-2.93s-5.21,1.07-7.07,2.93c-1.86,1.86-2.93,4.44-2.93,7.07
			s1.07,5.21,2.93,7.07c1.86,1.86,4.44,2.93,7.07,2.93s5.21-1.07,7.07-2.93s2.93-4.44,2.93-7.07S303.93,263.761,302.07,261.901z"/>
	</g>
</g>
<g>
</g>
<g>
</g>
<g>
</g>
<g>
</g>
<g>
</g>
<g>
</g>
<g>
</g>
<g>
</g>
<g>
</g>
<g>
</g>
<g>
</g>
<g>
</g>
<g>
</g>
<g>
</g>
<g>
</g>
</svg>
