<?xml version="1.0" encoding="iso-8859-1"?>
<!-- Generator: Adobe Illustrator 19.0.0, SVG Export Plug-In . SVG Version: 6.00 Build 0)  -->
<svg version="1.1" id="Capa_1" xmlns="http://www.w3.org/2000/svg" xmlns:xlink="http://www.w3.org/1999/xlink" x="0px" y="0px"
	 viewBox="0 0 512.003 512.003" style="enable-background:new 0 0 512.003 512.003;" xml:space="preserve">
<g>
	<g>
		<path d="M389.761,327.445l-51.158-93.289l51.536-168.813c1.612-5.282-1.362-10.871-6.645-12.484L211.778,0.436
			c-5.277-1.607-10.872,1.361-12.484,6.645l-82.885,271.497c-0.774,2.537-0.509,5.277,0.737,7.618
			c1.246,2.342,3.371,4.092,5.907,4.866l45,13.738l-12.622,9.085c-2.61,1.879-4.158,4.899-4.158,8.116
			c0,19.721,13.887,36.25,32.393,40.348c-1.182,8.205-1.139,16.583,0.187,24.894l18.546,116.332
			c0.784,4.921,5.033,8.428,9.862,8.427c0.523,0,1.054-0.041,1.587-0.126c5.454-0.869,9.171-5.995,8.301-11.449l-18.546-116.332
			c-1.482-9.295-0.865-18.702,1.759-27.633c0.036-0.11,0.07-0.221,0.103-0.333c0.812-2.708,1.801-5.374,2.981-7.977
			c0.121-0.268,0.23-0.539,0.328-0.816l30.935-88.019c0.184-0.523,0.324-1.063,0.419-1.61l8.411-48.599
			c0.373-2.154,0.579-4.188,0.778-6.153l0.02-0.192c0.623-6.135,5.755-10.761,11.938-10.761h7.25c2.619,0,4.75,2.131,4.75,4.75
			v58.908l-6.205,90.644c-0.081,1.182,0.049,2.369,0.384,3.506l4.247,14.431c1.558,5.299,7.12,8.329,12.416,6.77
			c5.298-1.559,8.329-7.118,6.77-12.416l-3.741-12.712l0.317-4.628l7.311,2.232c0.955,0.291,1.938,0.436,2.92,0.436
			c1.623,0,3.238-0.396,4.698-1.172c2.341-1.246,4.092-3.372,4.866-5.908l23.19-75.963l41.779,76.185
			c4.863,8.868,5.076,19.568,0.57,28.623l-41.178,82.755c-4.808,7.038-7.345,15.245-7.345,23.79v29.77c0,5.522,4.478,10,10,10
			c5.522,0,10-4.478,10-10v-29.77c0-4.643,1.424-9.096,4.116-12.877c0.304-0.427,0.574-0.877,0.808-1.346l41.505-83.412
			C398.124,359.679,397.772,342.053,389.761,327.445z M190.046,340.3c-0.401,0.897-0.785,1.801-1.153,2.708
			c-8.448-1.488-15.198-7.964-17.089-16.267l20.289-14.603l7.09,2.164L190.046,340.3z M291.046,321.436l-2.184-0.667l4.387-64.086
			c0.016-0.227,0.023-0.455,0.023-0.683v-59.25c0-13.647-11.103-24.75-24.75-24.75h-7.25c-16.485,0-30.171,12.355-31.836,28.742
			l-0.02,0.195c-0.172,1.695-0.334,3.296-0.587,4.757l-8.269,47.778l-14.742,41.944l-67.363-20.565L215.5,22.483l20.46,6.246
			l-14.368,47.064c-1.612,5.282,1.362,10.871,6.645,12.484c0.973,0.297,1.956,0.438,2.924,0.438c4.282,0,8.245-2.773,9.561-7.083
			l14.368-47.064l113,34.499L291.046,321.436z"/>
	</g>
</g>
<g>
	<g>
		<path d="M227.072,105.26c-1.86-1.861-4.44-2.93-7.069-2.93c-2.63,0-5.21,1.069-7.07,2.93c-1.86,1.861-2.93,4.44-2.93,7.07
			s1.069,5.21,2.93,7.069c1.86,1.86,4.44,2.931,7.07,2.931c2.64,0,5.21-1.07,7.069-2.931c1.86-1.859,2.931-4.439,2.931-7.069
			S228.933,107.12,227.072,105.26z"/>
	</g>
</g>
<g>
	<g>
		<path d="M296.492,383.93c-1.86-1.861-4.44-2.93-7.07-2.93s-5.21,1.069-7.07,2.93c-1.859,1.86-2.93,4.44-2.93,7.07
			s1.07,5.21,2.93,7.069c1.86,1.86,4.44,2.931,7.07,2.931s5.21-1.07,7.07-2.931c1.869-1.859,2.93-4.439,2.93-7.069
			S298.361,385.79,296.492,383.93z"/>
	</g>
</g>
<g>
</g>
<g>
</g>
<g>
</g>
<g>
</g>
<g>
</g>
<g>
</g>
<g>
</g>
<g>
</g>
<g>
</g>
<g>
</g>
<g>
</g>
<g>
</g>
<g>
</g>
<g>
</g>
<g>
</g>
</svg>
