<?xml version="1.0" encoding="iso-8859-1"?>
<!-- Generator: Adobe Illustrator 19.0.0, SVG Export Plug-In . SVG Version: 6.00 Build 0)  -->
<svg version="1.1" id="Capa_1" xmlns="http://www.w3.org/2000/svg" xmlns:xlink="http://www.w3.org/1999/xlink" x="0px" y="0px"
	 viewBox="0 0 512.001 512.001" style="enable-background:new 0 0 512.001 512.001;" xml:space="preserve">
<g>
	<g>
		<path d="M367.796,131.995h-0.623c-5.522,0-10,4.478-10,10c0,5.522,4.478,10,10,10h0.623c5.522,0,10-4.478,10-10
			C377.796,136.472,373.318,131.995,367.796,131.995z"/>
	</g>
</g>
<g>
	<g>
		<path d="M144.569,474.899c-1.859-1.859-4.439-2.93-7.069-2.93s-5.21,1.07-7.07,2.93s-2.93,4.44-2.93,7.07s1.069,5.21,2.93,7.07
			c1.86,1.859,4.44,2.93,7.07,2.93s5.21-1.07,7.069-2.93c1.86-1.86,2.931-4.44,2.931-7.07S146.43,476.759,144.569,474.899z"/>
	</g>
</g>
<g>
	<g>
		<path d="M473.957,51.995h-90.806c1.242-1.666,1.986-3.725,1.986-5.963c0-14.337-11.663-26-26-26c-14.337,0-26,11.663-26,26v5.963
			h-53.124c1.242-1.666,1.986-3.725,1.986-5.963c0-14.337-11.663-26-26-26c-14.337,0-26,11.663-26,26v5.963h-53.124
			c1.242-1.666,1.986-3.725,1.986-5.963c0-14.337-11.663-26-26-26c-14.337,0-26,11.663-26,26v5.963H50H38.043
			C17.066,51.995,0,69.06,0,90.037v363.889c0,20.977,17.066,38.043,38.043,38.043H93.5c5.522,0,10-4.478,10-10
			c0-5.522-4.478-10-10-10H38.043c-9.949,0-18.043-8.094-18.043-18.043V90.037c0-9.949,8.094-18.043,18.043-18.043H40v369.975
			c0,5.522,4.478,10,10,10h412c5.522,0,10-4.478,10-10V71.995h1.957c9.949,0,18.043,8.094,18.043,18.043v363.889
			c0,9.949-8.094,18.043-18.043,18.043H180.354c-5.522,0-10,4.478-10,10c0,5.522,4.478,10,10,10h293.604
			c20.977,0,38.043-17.066,38.043-38.043V90.037C512,69.06,494.934,51.995,473.957,51.995z M353.138,46.032c0-3.309,2.691-6,6-6
			c3.309,0,6,2.691,6,6c0,2.238,0.744,4.297,1.986,5.963h-13.986V46.032z M250,46.032c0-3.309,2.691-6,6-6s6,2.691,6,6
			c0,2.238,0.744,4.297,1.986,5.963H250V46.032z M146.862,46.032c0-3.309,2.692-6,6-6c3.309,0,6,2.691,6,6
			c0,2.238,0.744,4.297,1.986,5.963h-13.986V46.032z M452,131.995h-48.333c-5.522,0-10,4.478-10,10c0,5.522,4.478,10,10,10H452
			v279.975H60V151.995h269c5.522,0,10-4.478,10-10c0-5.522-4.478-10-10-10H60v-60h66.862v6.3c0,14.337,11.663,26,26,26
			c5.522,0,10-4.478,10-10c0-5.522-4.478-10-10-10c-3.309,0-6-2.691-6-6v-6.3H230v6.3c0,14.337,11.663,26,26,26
			c5.522,0,10-4.478,10-10c0-5.522-4.478-10-10-10c-3.309,0-6-2.691-6-6v-6.3h83.138v6.3c0,14.337,11.663,26,26,26
			c5.522,0,10-4.478,10-10c0-5.522-4.478-10-10-10c-3.309,0-6-2.691-6-6v-6.3H452V131.995z"/>
	</g>
</g>
<g>
	<g>
		<path d="M370.154,270.662c-0.021-0.127-0.043-0.253-0.071-0.378c-10.189-53.628-57.408-94.303-113.957-94.303
			S152.36,216.656,142.17,270.284c-0.027,0.125-0.05,0.252-0.073,0.379c-1.289,6.913-1.971,14.037-1.971,21.319
			c0,37.735,18.115,71.314,46.101,92.512c0.208,0.19,0.42,0.377,0.647,0.551c0.316,0.243,0.646,0.457,0.98,0.656
			c19.168,14.002,42.77,22.28,68.271,22.28c25.497,0,49.093-8.275,68.259-22.271c0.292-0.174,0.58-0.358,0.858-0.565
			c0.29-0.215,0.563-0.444,0.822-0.683c27.963-21.199,46.061-54.764,46.061-92.481C372.125,284.7,371.443,277.575,370.154,270.662z
			 M266.128,196.5c38.22,3.974,69.844,30.468,81.343,65.942h-43.993c-0.187,0-0.37,0.018-0.554,0.028l-36.796-26.734V196.5z
			 M256.127,253.191l35.595,25.861l-13.596,41.845h-43.998l-13.596-41.845L256.127,253.191z M246.127,196.5v39.235l-36.796,26.734
			c-0.185-0.01-0.367-0.028-0.554-0.028h-43.993C176.282,226.969,207.906,200.474,246.127,196.5z M160.127,291.981
			c0-3.219,0.162-6.401,0.473-9.539h40.004l15.606,48.033l-24.839,32.313C172.182,345.223,160.127,319.984,160.127,291.981z
			 M256.127,387.982c-17.756-0.001-34.398-4.852-48.681-13.291l25.734-33.476c0.08-0.104,0.145-0.213,0.22-0.318h46.559
			c0.043,0.06,0.078,0.124,0.123,0.184l24.881,33.519C290.646,383.095,273.948,387.982,256.127,387.982z M321.012,362.667
			L296.37,329.47l15.28-47.028h40.004c0.311,3.138,0.473,6.32,0.473,9.539C352.127,319.921,340.126,345.107,321.012,362.667z"/>
	</g>
</g>
<g>
	<g>
		<path d="M420.583,281.981H399c-5.522,0-10,4.477-10,10c0,5.522,4.478,10,10,10h21.583c5.522,0,10-4.478,10-10
			C430.583,286.459,426.105,281.981,420.583,281.981z"/>
	</g>
</g>
<g>
	<g>
		<path d="M111.583,281.981H90c-5.522,0-10,4.478-10,10c0,5.522,4.478,10,10,10h21.583c5.522,0,10-4.478,10-10
			C121.583,286.459,117.105,281.981,111.583,281.981z"/>
	</g>
</g>
<g>
</g>
<g>
</g>
<g>
</g>
<g>
</g>
<g>
</g>
<g>
</g>
<g>
</g>
<g>
</g>
<g>
</g>
<g>
</g>
<g>
</g>
<g>
</g>
<g>
</g>
<g>
</g>
<g>
</g>
</svg>
