<?xml version="1.0" encoding="iso-8859-1"?>
<!-- Generator: Adobe Illustrator 19.0.0, SVG Export Plug-In . SVG Version: 6.00 Build 0)  -->
<svg version="1.1" id="Capa_1" xmlns="http://www.w3.org/2000/svg" xmlns:xlink="http://www.w3.org/1999/xlink" x="0px" y="0px"
	 viewBox="0 0 512.001 512.001" style="enable-background:new 0 0 512.001 512.001;" xml:space="preserve">
<g>
	<g>
		<path d="M203.887,146.419L157.731,14.423C154.667,5.662,146.691,0.001,137.41,0c0,0,0,0-0.001,0
			c-9.281,0-17.258,5.661-20.322,14.423L70.931,146.419c-15.375,3.055-27.002,16.646-27.002,32.905V200c0,5.522,4.478,10,10,10
			h43.969c5.522,0,10-4.478,10-10c0-5.522-4.478-10-10-10H63.929v-10.676c0-7.473,6.079-13.552,13.552-13.552h0.773h118.31h0.772
			c7.473,0,13.553,6.079,13.553,13.552V190h-35.198c-5.522,0-10,4.478-10,10c0,5.522,4.478,10,10,10h45.198c5.522,0,10-4.478,10-10
			v-20.676C230.889,163.064,219.262,149.474,203.887,146.419z M135.965,21.025c0.116-0.333,0.358-1.025,1.443-1.025
			c1.085,0,1.327,0.691,1.443,1.024l14.43,41.268h-31.747L135.965,21.025z M114.542,82.292h45.733l8.472,24.229H106.07
			L114.542,82.292z M92.345,145.772l6.732-19.252h76.664l6.732,19.252H92.345z"/>
	</g>
</g>
<g>
	<g>
		<path d="M144.473,192.93c-1.86-1.86-4.431-2.93-7.07-2.93c-2.629,0-5.199,1.069-7.07,2.93c-1.859,1.86-2.93,4.44-2.93,7.07
			s1.07,5.21,2.93,7.069c1.87,1.86,4.44,2.931,7.07,2.931c2.64,0,5.21-1.07,7.07-2.931c1.869-1.859,2.939-4.439,2.939-7.069
			S146.342,194.79,144.473,192.93z"/>
	</g>
</g>
<g>
	<g>
		<path d="M483.901,344.774l-48.259-138.012c-3.136-8.967-11.3-14.761-20.799-14.761c-9.498,0-17.662,5.794-20.798,14.761
			l-48.259,138.012c-15.967,3.054-28.075,17.116-28.075,33.96v21.58c0,5.522,4.478,10,10,10h174.266c5.522,0,10-4.478,10-10v-21.58
			C511.977,361.89,499.869,347.828,483.901,344.774z M412.924,213.363c0.118-0.337,0.477-1.362,1.919-1.362
			c1.443,0,1.802,1.025,1.92,1.362l15.265,43.655H397.66L412.924,213.363z M390.666,277.019h48.355l9.148,26.163h-66.652
			L390.666,277.019z M374.524,323.182h80.639l7.333,20.97h-95.304L374.524,323.182z M491.977,390.314L491.977,390.314H337.711
			v-11.58c0-8.041,6.541-14.583,14.582-14.583h0.808h123.485h0.808c8.041,0,14.583,6.542,14.583,14.583V390.314z"/>
	</g>
</g>
<g>
	<g>
		<path d="M167.479,446.063L118.792,306.83c-3.149-9.008-11.351-14.829-20.894-14.829c-0.001,0-0.001,0-0.001,0
			c-9.543,0-17.745,5.82-20.896,14.829L28.316,446.063c-16.088,3.054-28.292,17.211-28.292,34.173v21.765c0,5.522,4.478,10,10,10
			h175.747c5.522,0,10-4.478,10-10v-21.765C195.771,463.274,183.566,449.116,167.479,446.063z M95.881,313.432
			c0.124-0.354,0.5-1.431,2.017-1.431c1.516,0,1.892,1.076,2.016,1.431l15.434,44.14H80.447L95.881,313.432z M73.454,377.571h48.888
			l9.286,26.556h-67.46L73.454,377.571z M57.175,424.127h81.446l7.454,21.318H49.72L57.175,424.127z M20.024,492.001v-11.765
			c0-8.156,6.636-14.791,14.792-14.791h0.813h124.536h0.814c8.156,0,14.791,6.635,14.791,14.791v11.765H20.024z"/>
	</g>
</g>
<g>
	<g>
		<path d="M236.267,246.133c-4.98-2.386-10.952-0.285-13.34,4.695c-5.088,10.616-8.4,21.947-9.846,33.679
			c-0.676,5.481,3.221,10.473,8.702,11.147c0.416,0.052,0.828,0.076,1.236,0.076c4.978,0,9.288-3.712,9.912-8.778
			c1.18-9.576,3.882-18.822,8.031-27.479C243.349,254.493,241.247,248.52,236.267,246.133z"/>
	</g>
</g>
<g>
	<g>
		<path d="M254.913,356.709c-6.487-7.207-11.696-15.305-15.481-24.068c-2.189-5.07-8.075-7.402-13.146-5.216
			c-5.07,2.19-7.405,8.076-5.216,13.146c4.649,10.765,11.036,20.696,18.982,29.52c1.975,2.193,4.698,3.309,7.434,3.309
			c2.385,0,4.777-0.848,6.688-2.569C258.278,367.136,258.61,360.812,254.913,356.709z"/>
	</g>
</g>
<g>
	<g>
		<path d="M311.786,418.364l-21.696-23.523c-3.745-4.059-10.07-4.316-14.131-0.57c-4.06,3.744-4.314,10.071-0.57,14.131
			l21.696,23.522c1.972,2.137,4.658,3.22,7.354,3.22c2.424,0,4.854-0.876,6.777-2.649
			C315.276,428.751,315.53,422.424,311.786,418.364z"/>
	</g>
</g>
<g>
	<g>
		<path d="M355.189,465.417l-8.146-8.832c-3.745-4.059-10.07-4.317-14.131-0.57c-4.06,3.744-4.314,10.071-0.57,14.131l8.146,8.831
			c1.972,2.137,4.658,3.22,7.354,3.22c2.424,0,4.854-0.876,6.777-2.649C358.679,475.804,358.933,469.477,355.189,465.417z"/>
	</g>
</g>
<g>
	<g>
		<path d="M371.922,148.721c-2.962-4.661-9.14-6.041-13.803-3.078l-27.011,17.159c-4.662,2.961-6.04,9.141-3.078,13.803
			c1.905,2.999,5.141,4.639,8.45,4.639c1.834,0,3.689-0.504,5.353-1.561l27.011-17.159
			C373.505,159.563,374.884,153.383,371.922,148.721z"/>
	</g>
</g>
<g>
	<g>
		<path d="M301.018,193.763c-2.962-4.662-9.143-6.042-13.803-3.078L262.43,206.43c-0.821,0.522-1.634,1.053-2.435,1.593
			c-4.579,3.088-5.788,9.303-2.7,13.882c1.932,2.864,5.087,4.41,8.3,4.41c1.924,0,3.867-0.554,5.582-1.71
			c0.65-0.438,1.309-0.869,1.977-1.293l24.786-15.746C302.602,204.605,303.98,198.425,301.018,193.763z"/>
	</g>
</g>
<g>
	<g>
		<path d="M508.602,66.359c-0.098-0.348-0.213-0.686-0.344-1.015c-9.381-27.613-35.54-47.544-66.284-47.544
			c-0.018,0-0.035,0.001-0.053,0.001c-0.009,0-0.018-0.001-0.026-0.001c-0.027,0-0.053,0.004-0.08,0.004
			c-30.676,0.069-56.763,19.978-66.126,47.545c-0.13,0.325-0.244,0.659-0.34,1.003c-2.183,6.763-3.375,13.968-3.375,21.448
			c0,38.598,31.402,70,70,70c38.598,0,70-31.402,70-70C511.974,80.322,510.783,73.121,508.602,66.359z M451.895,38.792
			c14.012,2.832,25.913,11.541,33.022,23.434l-13.277,3.271l-19.745-14.345V38.792z M441.895,68.606l15.826,11.498l-6.045,18.604
			h-19.562l-6.045-18.604L441.895,68.606z M431.895,38.821v12.33l-19.701,14.314l-13.163-3.24
			C406.115,50.377,417.952,41.686,431.895,38.821z M404.805,121.202c-7.971-8.862-12.831-20.573-12.831-33.402
			c0-2.24,0.163-4.442,0.45-6.605l14.098,3.471l7.342,22.596L404.805,121.202z M441.974,137.8c-7.524,0-14.661-1.681-21.068-4.671
			l9.371-14.42h23.413l9.366,14.414C456.645,136.117,449.504,137.8,441.974,137.8z M479.152,121.191l-9.167-14.108l7.269-22.371
			l14.271-3.515c0.287,2.163,0.45,4.364,0.45,6.604C491.974,100.623,487.117,112.331,479.152,121.191z"/>
	</g>
</g>
<g>
	<g>
		<path d="M382.403,491.62c-1.86-1.861-4.44-2.931-7.07-2.931c-2.639,0-5.21,1.071-7.069,2.931
			c-1.861,1.859-2.931,4.439-2.931,7.069c0,2.64,1.071,5.21,2.931,7.07c1.859,1.861,4.439,2.93,7.069,2.93s5.209-1.07,7.07-2.93
			c1.861-1.86,2.93-4.429,2.93-7.07C385.333,496.059,384.263,493.479,382.403,491.62z"/>
	</g>
</g>
<g>
</g>
<g>
</g>
<g>
</g>
<g>
</g>
<g>
</g>
<g>
</g>
<g>
</g>
<g>
</g>
<g>
</g>
<g>
</g>
<g>
</g>
<g>
</g>
<g>
</g>
<g>
</g>
<g>
</g>
</svg>
