<?xml version="1.0" encoding="iso-8859-1"?>
<!-- Generator: Adobe Illustrator 19.0.0, SVG Export Plug-In . SVG Version: 6.00 Build 0)  -->
<svg version="1.1" id="Capa_1" xmlns="http://www.w3.org/2000/svg" xmlns:xlink="http://www.w3.org/1999/xlink" x="0px" y="0px"
	 viewBox="0 0 512 512" style="enable-background:new 0 0 512 512;" xml:space="preserve">
<g>
	<g>
		<path d="M141.822,418.877c-1.86-1.86-4.44-2.93-7.07-2.93s-5.21,1.069-7.07,2.93c-1.86,1.86-2.93,4.439-2.93,7.07
			c0,2.63,1.07,5.21,2.93,7.069c1.86,1.86,4.43,2.931,7.07,2.931c2.63,0,5.21-1.07,7.07-2.931c1.86-1.859,2.93-4.439,2.93-7.069
			C144.752,423.316,143.682,420.737,141.822,418.877z"/>
	</g>
</g>
<g>
	<g>
		<path d="M380.826,5.536c-5.35-1.383-10.801,1.837-12.181,7.186c-1.379,5.348,1.838,10.801,7.186,12.181
			c3.374,0.87,6.696,1.852,9.966,2.932l-49.152,21.309l-54.359-19.228c5.681-2.13,11.532-3.954,17.546-5.434
			c5.363-1.319,8.641-6.736,7.321-12.1c-1.319-5.362-6.733-8.646-12.1-7.32c-10.055,2.474-19.849,5.866-29.27,10.082
			c-0.388-0.046-0.781-0.076-1.181-0.076H110.589c-4.449,0-8.363,2.939-9.604,7.212c-1.241,4.273,0.491,8.851,4.249,11.233
			l50.394,31.953L43.241,168.639c-2.767,2.54-3.877,6.416-2.875,10.035c1.002,3.62,3.949,6.372,7.628,7.127l59.848,12.277
			L2.918,303.441c-3.191,3.204-3.834,8.151-1.569,12.065c2.264,3.913,6.873,5.822,11.242,4.65l115.828-31.021L1.472,496.784
			c-2.409,3.939-1.807,9.016,1.456,12.282C4.857,510.998,7.42,512,10.007,512c1.789,0,3.59-0.479,5.202-1.462l95.968-58.506
			c4.715-2.875,6.208-9.027,3.333-13.743c-2.875-4.717-9.028-6.209-13.744-3.333l-60.664,36.982l118.431-193.72
			c2.134-3.489,1.927-7.927-0.522-11.203c-2.449-3.276-6.648-4.729-10.597-3.672L43.308,291.225l91.781-92.165
			c2.593-2.604,3.549-6.422,2.489-9.941s-3.965-6.173-7.566-6.911l-58.833-12.068l107.586-98.768
			c2.292-2.104,3.474-5.154,3.198-8.253s-1.978-5.893-4.605-7.559l-32.323-20.495h86.941c-11.926,8.95-22.749,19.419-32.092,31.186
			c-24.782,31.208-37.88,68.811-37.88,108.745c0,5.558,0.272,11.053,0.782,16.48c0.003,0.038,0.007,0.076,0.01,0.114
			c2.131,22.552,8.551,43.874,18.448,63.132c0.251,0.614,0.56,1.2,0.926,1.752c29.358,55.562,87.741,93.52,154.832,93.52
			c57.147,0,107.981-27.538,139.938-70.037v86.503l-20.453-32.823c-1.657-2.659-4.463-4.388-7.583-4.671
			c-3.117-0.277-6.192,0.912-8.3,3.229l-98.759,108.527l-12.047-58.729c-0.738-3.6-3.393-6.505-6.912-7.565
			c-3.519-1.06-7.336-0.104-9.94,2.489l-92.422,92.035l27.151-103.409c1.036-3.945-0.429-8.124-3.7-10.56
			c-3.271-2.437-7.695-2.642-11.178-0.518l-72.53,44.218c-4.715,2.875-6.208,9.028-3.333,13.743
			c2.875,4.716,9.027,6.21,13.744,3.333l51.354-31.309l-30.197,115.011c-1.146,4.364,0.773,8.956,4.685,11.207
			c1.558,0.896,3.277,1.332,4.984,1.332c2.582,0,5.135-0.998,7.06-2.914l105.364-104.924l12.277,59.849
			c0.756,3.687,3.519,6.637,7.148,7.633c3.628,1.001,7.511-0.128,10.044-2.912l103.103-113.302l31.951,51.275
			c2.361,3.789,6.947,5.553,11.238,4.326c4.292-1.228,7.25-5.15,7.25-9.614V245.982c6.389-14.34,10.902-29.69,13.231-45.738
			c0.017-0.101,0.029-0.202,0.042-0.303c1.168-8.15,1.786-16.476,1.786-24.944C511.996,95.141,458.057,25.456,380.826,5.536z
			 M347.163,66.382l63.812-27.665c15.444,8.376,29.195,19.247,40.785,32.021l-11.469,61.967l-49.333,11.076l-43.795-31.819V66.382z
			 M336.835,129.416l39.82,28.932l-15.21,46.811h-49.22l-15.21-46.811l19.91-14.466L336.835,129.416z M256.924,42.158l69.911,24.73
			v45.074l-43.796,31.82l-2.292-0.515l-47.921-10.76l-17.46-53.781C226.816,64.245,240.857,51.816,256.924,42.158z M182.158,168.054
			c1.076-24.458,7.815-47.627,19.084-68.069l12.379,38.128L182.158,168.054z M183.24,194.631l44.858-42.687l49.412,11.094
			l16.465,50.673l-30.602,47.092L197.5,242.517C190.304,227.71,185.394,211.595,183.24,194.631z M212.701,267.493l48.446,13.448
			l22.929,39.745C255.396,310.235,230.646,291.545,212.701,267.493z M336.998,329.995c-8.754,0-17.336-0.741-25.699-2.142
			l-31.812-55.142l30.9-47.551h53.222l30.9,47.551l-31.812,55.142C354.336,329.254,345.752,329.995,336.998,329.995z
			 M389.922,320.685l22.758-39.448l45.613-9.857C440.633,293.558,417.036,310.805,389.922,320.685z M473.937,247.537l-63.075,13.632
			l-30.839-47.458l16.465-50.673l41.781-9.381l7.107-1.596l44.307,49.663C486.841,218.004,481.448,233.415,473.937,247.537z
			 M459.648,138.017l8.466-45.746c15.097,23.944,23.736,52.154,23.875,81.997L459.648,138.017z"/>
	</g>
</g>
<g>
	<g>
		<path d="M337.632,0.001L336.999,0c-5.523,0-10,4.478-10,10s4.477,10,10,10l0.533,0.001c0.017,0,0.034,0,0.051,0
			c5.5,0,9.971-4.444,9.999-9.95C347.61,4.529,343.155,0.03,337.632,0.001z"/>
	</g>
</g>
<g>
</g>
<g>
</g>
<g>
</g>
<g>
</g>
<g>
</g>
<g>
</g>
<g>
</g>
<g>
</g>
<g>
</g>
<g>
</g>
<g>
</g>
<g>
</g>
<g>
</g>
<g>
</g>
<g>
</g>
</svg>
