<?xml version="1.0" encoding="iso-8859-1"?>
<!-- Generator: Adobe Illustrator 19.0.0, SVG Export Plug-In . SVG Version: 6.00 Build 0)  -->
<svg version="1.1" id="Capa_1" xmlns="http://www.w3.org/2000/svg" xmlns:xlink="http://www.w3.org/1999/xlink" x="0px" y="0px"
	 viewBox="0 0 512 512" style="enable-background:new 0 0 512 512;" xml:space="preserve">
<g>
	<g>
		<path d="M331.068,2.932c-1.859-1.86-4.439-2.93-7.069-2.93c-2.63,0-5.21,1.07-7.07,2.93s-2.93,4.44-2.93,7.07
			c0,2.63,1.069,5.21,2.93,7.07s4.44,2.93,7.07,2.93c2.63,0,5.21-1.07,7.069-2.93c1.86-1.86,2.931-4.44,2.931-7.07
			C333.999,7.372,332.929,4.792,331.068,2.932z"/>
	</g>
</g>
<g>
	<g>
		<g>
			<path d="M329.801,48.535C333.201,44.182,326.4,52.887,329.801,48.535L329.801,48.535z"/>
			<path d="M380.371,75.353l-36.534-28.542c-4.352-3.4-10.636-2.63-14.036,1.723c-3.4,4.352-2.629,10.637,1.724,14.037
				l18.118,14.156l-86.527,12.68c-5.464,0.801-9.245,5.88-8.444,11.345c0.729,4.973,5.001,8.551,9.882,8.551
				c0.482,0,0.972-0.035,1.463-0.107l84.949-12.449l-13.173,16.862c-3.4,4.352-2.629,10.637,1.724,14.037
				c1.828,1.428,3.996,2.12,6.149,2.12c2.973,0,5.915-1.32,7.887-3.844l28.542-36.532C385.448,85.11,384.652,78.699,380.371,75.353z
				"/>
		</g>
	</g>
</g>
<g>
	<g>
		<path d="M151.926,113.808l-17.501-17.5l17.501-17.501c3.905-3.905,3.905-10.237,0-14.143L123.643,36.38
			c-3.906-3.905-10.236-3.905-14.143,0L91.999,53.881L74.498,36.38c-3.906-3.905-10.236-3.905-14.143,0L32.072,64.664
			c-3.905,3.905-3.905,10.237,0,14.143l17.501,17.501l-17.501,17.5c-1.875,1.875-2.928,4.419-2.928,7.071s1.054,5.196,2.929,7.071
			l28.284,28.284c3.906,3.905,10.236,3.905,14.143,0l17.5-17.5l17.501,17.501c1.953,1.953,4.512,2.929,7.071,2.929
			c2.559,0,5.118-0.977,7.071-2.929l28.284-28.284c1.875-1.875,2.929-4.419,2.929-7.071S153.801,115.683,151.926,113.808z
			 M113.213,103.377l17.501,17.5l-14.142,14.142l-17.502-17.5c-1.953-1.953-4.512-2.929-7.071-2.929s-5.118,0.976-7.071,2.929
			L67.427,135.02l-14.142-14.142l17.501-17.5c1.875-1.875,2.929-4.419,2.929-7.071s-1.054-5.196-2.929-7.072L53.286,71.734
			l14.142-14.142l17.501,17.501c3.906,3.905,10.236,3.905,14.143,0l17.501-17.501l14.142,14.142l-17.501,17.501
			c-1.875,1.875-2.929,4.419-2.929,7.071S111.338,101.502,113.213,103.377z"/>
	</g>
</g>
<g>
	<g>
		<path d="M270.14,253.751l17.501-17.501c3.906-3.906,3.906-10.238,0.001-14.143l-28.284-28.284c-3.904-3.904-10.234-3.904-14.143,0
			l-17.501,17.501l-17.501-17.501c-3.906-3.905-10.236-3.904-14.143,0l-28.284,28.284c-3.905,3.905-3.905,10.237,0,14.143
			l17.501,17.501l-17.501,17.5c-1.875,1.876-2.929,4.419-2.929,7.071c0,2.652,1.054,5.195,2.929,7.071l28.284,28.284
			c3.906,3.904,10.236,3.904,14.143,0l17.501-17.501l17.501,17.501c1.953,1.952,4.512,2.929,7.071,2.929
			c2.559,0,5.118-0.977,7.071-2.929l28.284-28.284c1.875-1.876,2.929-4.419,2.929-7.071c0-2.652-1.054-5.195-2.929-7.071
			L270.14,253.751z M248.927,260.821l17.501,17.501l-14.142,14.142l-17.501-17.501c-1.953-1.952-4.512-2.929-7.071-2.929
			c-2.559,0-5.118,0.977-7.071,2.929l-17.501,17.501L189,278.322l17.501-17.501c1.875-1.875,2.929-4.418,2.929-7.071
			c0-2.653-1.054-5.196-2.929-7.071L189,229.178l14.142-14.142l17.501,17.501c3.906,3.905,10.236,3.905,14.143,0l17.501-17.501
			l14.142,14.142l-17.501,17.501c-1.875,1.875-2.929,4.419-2.929,7.071C245.999,256.402,247.052,258.946,248.927,260.821z"/>
	</g>
</g>
<g>
	<g>
		<path d="M511.996,58.848V10.003c0-5.523-4.478-10-10-10h-48.958c-0.013,0-0.026-0.001-0.039-0.001s-0.025,0.001-0.039,0.001
			h-86.962c-5.522,0-10,4.477-10,10s4.478,10,10,10h42.784C399.594,30.409,394,44.061,394,59.002c0,32.533,26.468,59,59,59
			c14.939,0,28.59-5.592,38.996-14.779v38.385c-7.155-4.799-15.755-7.604-25-7.604c-24.813,0-45,20.187-45,45
			c0,12.007,4.736,22.923,12.428,31H319.997c-5.522,0-10,4.477-10,10v40c0,5.522,4.478,10,10,10h89.999v51.075H20V20.003h254.5
			c5.522,0,10-4.477,10-10s-4.478-10-10-10H10c-5.522,0-10,4.477-10,10v321.072c0,5.522,4.478,10,10,10h44.604
			c-4.799,7.156-7.604,15.755-7.604,25c0,11.257,4.164,21.552,11.02,29.452C24.335,406.876,0,438.742,0,476.203v25.795
			c0,5.522,4.478,10,10,10h163.999h163.999h163.999c5.522,0,10-4.478,10-10v-25.795c0-37.463-24.335-69.327-58.02-80.677
			c6.856-7.9,11.02-18.195,11.02-29.452c0-9.245-2.805-17.844-7.604-25h44.604c5.522,0,10-4.478,10-10V220.001V59.156
			c0-0.052,0.004-0.103,0.004-0.154C512,58.95,511.996,58.9,511.996,58.848z M419.997,341.074c13.785,0,25,11.215,25,25
			c0,13.785-11.215,25-25,25s-25-11.215-25-25C394.997,352.289,406.212,341.074,419.997,341.074z M256.125,341.074
			c13.785,0,25,11.215,25,25c0,13.785-11.215,25-25,25s-25-11.214-25-25C231.125,352.289,242.34,341.074,256.125,341.074z
			 M91.999,341.074c13.785,0,25,11.215,25,25c0,13.785-11.215,25-25,25s-25-11.215-25-25
			C66.999,352.289,78.214,341.074,91.999,341.074z M163.999,491.998H20v-15.795c0-35.913,29.217-65.129,65.13-65.129h13.74
			c35.913,0,65.13,29.217,65.13,65.129V491.998z M125.979,395.526c6.856-7.9,11.02-18.195,11.02-29.452
			c0-9.245-2.805-17.844-7.604-25h89.334c-4.799,7.156-7.604,15.755-7.604,25c0,11.241,4.152,21.524,10.991,29.419
			c-20.742,6.961-37.944,21.69-48.118,40.732C163.841,417.213,146.677,402.501,125.979,395.526z M327.997,491.998H183.999v-15.795
			c0-35.913,29.217-65.129,65.13-65.129h13.74c35.913,0,65.13,29.217,65.13,65.129V491.998z M290.076,395.559
			c6.874-7.904,11.049-18.213,11.049-29.485c0-9.244-2.805-17.844-7.604-25h89.08c-4.799,7.156-7.604,15.755-7.604,25
			c0,11.257,4.164,21.552,11.02,29.452c-20.698,6.974-37.862,21.687-48.02,40.699C327.855,417.243,310.73,402.547,290.076,395.559z
			 M491.996,476.203v15.795H347.997v-15.795c0-35.913,29.217-65.129,65.13-65.129h13.74
			C462.779,411.074,491.996,440.291,491.996,476.203z M491.996,321.074h-62V260c0-5.523-4.478-10-10-10h-89.999v-20h161.999V321.074
			z M466.996,204.001c-13.785,0-25-11.215-25-25s11.215-25,25-25s25,11.215,25,25S480.781,204.001,466.996,204.001z M491.996,59.156
			C491.912,80.589,474.453,98.001,453,98.001c-21.505,0-39-17.495-39-39c0-21.492,17.474-38.978,38.961-38.999h0.077
			c21.436,0.021,38.874,17.424,38.958,38.845V59.156z"/>
	</g>
</g>
<g>
	<g>
		<path d="M204.935,117.49c-2.673-4.833-8.757-6.584-13.591-3.912c-48.938,27.065-85.82,73.392-101.19,127.105
			c-1.52,5.309,1.553,10.846,6.863,12.365c0.919,0.263,1.845,0.388,2.756,0.388c4.35,0,8.353-2.861,9.609-7.251
			c13.919-48.64,47.321-90.594,91.642-115.105C205.857,128.407,207.608,122.323,204.935,117.49z"/>
	</g>
</g>
<g>
	<g>
		<path d="M238.069,100.931c-1.859-1.86-4.439-2.93-7.069-2.93s-5.21,1.07-7.07,2.93s-2.93,4.44-2.93,7.07
			c0,2.63,1.069,5.21,2.93,7.07s4.44,2.93,7.07,2.93s5.21-1.07,7.069-2.93c1.86-1.86,2.931-4.44,2.931-7.07
			C241,105.371,239.93,102.791,238.069,100.931z"/>
	</g>
</g>
<g>
</g>
<g>
</g>
<g>
</g>
<g>
</g>
<g>
</g>
<g>
</g>
<g>
</g>
<g>
</g>
<g>
</g>
<g>
</g>
<g>
</g>
<g>
</g>
<g>
</g>
<g>
</g>
<g>
</g>
</svg>
