<?xml version="1.0" encoding="iso-8859-1"?>
<!-- Generator: Adobe Illustrator 19.0.0, SVG Export Plug-In . SVG Version: 6.00 Build 0)  -->
<svg version="1.1" id="Capa_1" xmlns="http://www.w3.org/2000/svg" xmlns:xlink="http://www.w3.org/1999/xlink" x="0px" y="0px"
	 viewBox="0 0 512 512" style="enable-background:new 0 0 512 512;" xml:space="preserve">
<g>
	<g>
		<path d="M502,0H10C4.478,0,0,4.477,0,10v492c0,5.522,4.478,10,10,10h492c5.522,0,10-4.478,10-10V10C512,4.477,507.522,0,502,0z
			 M229.951,21.115c4.154,8.636,12.992,14.611,23.199,14.611c10.206,0,19.044-5.975,23.198-14.611
			c8.752,2.684,15.517,9.957,17.475,18.999l-15.859,9.246C274.89,51.153,273,54.443,273,58v38h-39.702V58
			c0-3.557-1.89-6.847-4.964-8.639l-15.858-9.246C214.434,31.073,221.199,23.8,229.951,21.115z M275.98,447.787v38h-39.702v-38
			c-0.002-3.558-1.891-6.848-4.965-8.639l-15.858-9.246c1.958-9.042,8.723-16.315,17.475-19
			c4.154,8.637,12.992,14.611,23.199,14.611c10.207,0,19.045-5.975,23.199-14.61c8.751,2.685,15.516,9.957,17.474,18.999
			l-15.858,9.246C277.87,440.939,275.98,444.229,275.98,447.787z M492,492H391v-77.254c0-5.522-4.478-10-10-10h-50.612
			c-5.522,0-10,4.478-10,10c0,5.522,4.478,10,10,10H371v66.999h-75.021v-38.213l16.436-9.582c3.074-1.791,4.964-5.081,4.964-8.639
			c0-25.103-20.422-45.524-45.523-45.524c-5.522,0-10,4.478-10,10c0,3.157-2.569,5.727-5.727,5.727
			c-3.158,0-5.727-2.569-5.727-5.727c0-5.522-4.478-10-10-10c-25.103,0-45.524,20.422-45.524,45.524c0,3.558,1.89,6.848,4.964,8.639
			l16.436,9.582v38.213H141v-66.999h27.965c5.522,0,10-4.478,10-10c0-5.522-4.478-10-10-10H131c-5.522,0-10,4.478-10,10V492H60
			v-42.7c0-5.522-4.478-10-10-10s-10,4.478-10,10V492H20V266.127h51.045c-21.679,3.474-38.296,22.302-38.296,44.944
			c0,3.558,1.891,6.848,4.964,8.64l16.437,9.581v42.255c0,5.522,4.478,10,10,10h59.702c5.522,0,10-4.478,10-10v-42.255l16.436-9.582
			c3.074-1.791,4.964-5.081,4.964-8.64c-0.001-22.642-16.619-41.469-38.296-44.943h116.09
			c-21.679,3.474-38.296,22.302-38.296,44.944c0,3.558,1.891,6.848,4.964,8.64l16.437,9.581v42.255c0,5.522,4.478,10,10,10h59.702
			c5.522,0,10-4.478,10-10v-42.255l16.436-9.582c3.074-1.791,4.964-5.081,4.964-8.64c-0.001-22.642-16.619-41.469-38.296-44.943
			h116.24c-21.679,3.474-38.296,22.302-38.296,44.944c0,3.558,1.89,6.848,4.964,8.639l16.436,9.582v42.255c0,5.522,4.478,10,10,10
			H448c5.522,0,10-4.478,10-10v-42.255l16.436-9.582c3.074-1.791,4.964-5.081,4.964-8.639c0-22.642-16.617-41.47-38.295-44.944H492
			V492z M94.001,301.273c10.207,0,19.045-5.975,23.199-14.61c8.751,2.685,15.516,9.957,17.475,18.999l-15.858,9.246
			c-3.074,1.791-4.964,5.081-4.964,8.639v38H74.149v-38c0-3.558-1.89-6.848-4.963-8.64l-15.859-9.245
			c1.958-9.043,8.723-16.315,17.475-19C74.956,295.299,83.794,301.273,94.001,301.273z M81.603,266.127h24.793
			c-3.882,1.373-6.669,5.067-6.669,9.42c0,3.157-2.569,5.727-5.727,5.727s-5.727-2.569-5.727-5.727
			C88.273,271.194,85.486,267.5,81.603,266.127z M256.001,301.273c10.207,0,19.045-5.975,23.199-14.61
			c8.751,2.685,15.516,9.957,17.475,18.999l-15.858,9.246c-3.074,1.791-4.964,5.081-4.964,8.639v38h-39.702v-38
			c-0.002-3.558-1.892-6.848-4.965-8.64l-15.859-9.245c1.958-9.043,8.723-16.315,17.475-19
			C236.956,295.299,245.794,301.273,256.001,301.273z M243.603,266.127h24.793c-3.882,1.373-6.669,5.067-6.669,9.42
			c0,3.157-2.569,5.727-5.727,5.727s-5.727-2.569-5.727-5.727C250.273,271.194,247.486,267.5,243.603,266.127z M418.15,301.273
			c10.206,0,19.044-5.975,23.198-14.611c8.752,2.685,15.517,9.958,17.475,19l-15.858,9.246c-3.074,1.791-4.964,5.081-4.964,8.639v38
			h-39.702v-38c-0.001-3.558-1.891-6.848-4.965-8.639l-15.858-9.246c1.958-9.042,8.723-16.315,17.475-19
			C399.105,295.299,407.943,301.273,418.15,301.273z M405.752,266.127h24.793c-3.882,1.373-6.67,5.067-6.67,9.42
			c0,3.157-2.568,5.727-5.726,5.727s-5.727-2.569-5.727-5.727C412.422,271.194,409.635,267.5,405.752,266.127z M492,246.127H20V20
			h101v77c0,5.523,4.478,10,10,10h52.001c5.522,0,10-4.477,10-10s-4.478-10-10-10H141V20h58.747
			c-4.951,7.285-7.849,16.072-7.849,25.524c0,3.558,1.89,6.847,4.964,8.639l16.436,9.582V106c0,5.523,4.478,10,10,10H283
			c5.522,0,10-4.477,10-10V63.746l16.437-9.582c3.073-1.792,4.963-5.082,4.963-8.639c0-9.452-2.897-18.239-7.849-25.524H371v67
			h-37.333c-5.522,0-10,4.477-10,10s4.478,10,10,10H381c5.522,0,10-4.477,10-10V20h61.016v48.68c0,5.523,4.478,10,10,10
			c5.522,0,10-4.477,10-10V20H492V246.127z"/>
	</g>
</g>
<g>
	<g>
		<path d="M184.116,113.291c-5.522,0-10,4.477-10,10c0,3.158-2.569,5.727-5.727,5.727s-5.727-2.569-5.727-5.727
			c0-5.523-4.478-10-10-10c-25.103,0-45.524,20.422-45.524,45.524c-0.001,3.558,1.888,6.847,4.963,8.639l16.437,9.583v42.254
			c0,5.523,4.478,10,10,10h59.702c5.522,0,10-4.477,10-10v-42.255l16.437-9.582c3.073-1.792,4.963-5.082,4.963-8.64
			C229.639,133.712,209.216,113.291,184.116,113.291z M193.202,162.653c-3.073,1.792-4.963,5.082-4.963,8.639v38h-39.702v-38
			c0-3.558-1.89-6.847-4.964-8.639l-15.859-9.246c1.958-9.043,8.723-16.316,17.474-19c4.154,8.636,12.992,14.611,23.199,14.611
			c10.207,0,19.045-5.975,23.199-14.611c8.751,2.685,15.516,9.958,17.475,19L193.202,162.653z"/>
	</g>
</g>
<g>
	<g>
		<path d="M346.116,113.291c-5.522,0-10,4.477-10,10c0,3.158-2.569,5.727-5.727,5.727c-3.158,0-5.727-2.569-5.727-5.727
			c0-5.523-4.478-10-10-10c-25.103,0-45.524,20.422-45.524,45.524c-0.001,3.558,1.888,6.847,4.963,8.639l16.437,9.583v42.254
			c0,5.523,4.478,10,10,10h59.702c5.522,0,10-4.477,10-10v-42.255l16.437-9.582c3.073-1.792,4.963-5.082,4.963-8.64
			C391.639,133.712,371.216,113.291,346.116,113.291z M355.202,162.653c-3.073,1.792-4.963,5.082-4.963,8.639v38h-39.702v-38
			c0-3.558-1.89-6.847-4.964-8.639l-15.859-9.246c1.958-9.043,8.723-16.316,17.474-19c4.154,8.636,12.992,14.611,23.199,14.611
			c10.207,0,19.045-5.975,23.199-14.611c8.751,2.685,15.516,9.958,17.475,19L355.202,162.653z"/>
	</g>
</g>
<g>
	<g>
		<path d="M462.016,99.638c-5.522,0-10,4.477-10,10v0.147c0,5.523,4.477,10,10,10c5.522,0,10-4.477,10-10v-0.147
			C472.016,104.115,467.538,99.638,462.016,99.638z"/>
	</g>
</g>
<g>
	<g>
		<path d="M50,398.195c-5.522,0-10,4.478-10,10v0.147c0,5.522,4.478,10,10,10s10-4.478,10-10v-0.147
			C60,402.673,55.522,398.195,50,398.195z"/>
	</g>
</g>
<g>
</g>
<g>
</g>
<g>
</g>
<g>
</g>
<g>
</g>
<g>
</g>
<g>
</g>
<g>
</g>
<g>
</g>
<g>
</g>
<g>
</g>
<g>
</g>
<g>
</g>
<g>
</g>
<g>
</g>
</svg>
