<?xml version="1.0" encoding="iso-8859-1"?>
<!-- Generator: Adobe Illustrator 19.0.0, SVG Export Plug-In . SVG Version: 6.00 Build 0)  -->
<svg version="1.1" id="Capa_1" xmlns="http://www.w3.org/2000/svg" xmlns:xlink="http://www.w3.org/1999/xlink" x="0px" y="0px"
	 viewBox="0 0 512 512" style="enable-background:new 0 0 512 512;" xml:space="preserve">
<g>
	<g>
		<path d="M509.069,267.71c-1.859-1.86-4.439-2.93-7.069-2.93s-5.21,1.069-7.07,2.93c-1.86,1.87-2.93,4.439-2.93,7.07
			c0,2.63,1.069,5.21,2.93,7.069c1.86,1.87,4.44,2.94,7.07,2.94s5.21-1.07,7.069-2.94c1.86-1.859,2.931-4.43,2.931-7.069
			C512,272.149,510.93,269.569,509.069,267.71z"/>
	</g>
</g>
<g>
	<g>
		<path d="M502,234c5.522,0,10-4.477,10-10V10.133c0-5.523-4.478-10-10-10L10,0C4.478,0,0,4.477,0,10v492c0,5.522,4.478,10,10,10
			h492c5.522,0,10-4.478,10-10V321.513c0-5.522-4.478-10-10-10c-5.522,0-10,4.478-10,10V492H74v-20.333h209c5.522,0,10-4.478,10-10
			c0-5.522-4.478-10-10-10H74V431h99.5c5.522,0,10-4.478,10-10c0-5.522-4.478-10-10-10H74V242.582h111.701h175.701
			c5.522,0,10-4.477,10-10V121.291V20.133H492V224C492,229.523,496.478,234,502,234z M54,492H20V242.708h34V492z M175.701,222.582
			H20v-91.291h155.701V222.582z M175.701,111.291H20V20h155.701V111.291z M351.402,222.582H195.701v-91.291h155.701V222.582z
			 M351.402,111.291H195.701V20h155.701V111.291z"/>
	</g>
</g>
<g>
	<g>
		<path d="M337.979,454.6c-1.859-1.87-4.43-2.93-7.069-2.93c-2.63,0-5.21,1.059-7.07,2.93c-1.86,1.86-2.93,4.431-2.93,7.07
			c0,2.63,1.069,5.21,2.93,7.07c1.86,1.859,4.44,2.93,7.07,2.93c2.64,0,5.21-1.07,7.069-2.93c1.87-1.87,2.931-4.44,2.931-7.07
			S339.849,456.46,337.979,454.6z"/>
	</g>
</g>
<g>
</g>
<g>
</g>
<g>
</g>
<g>
</g>
<g>
</g>
<g>
</g>
<g>
</g>
<g>
</g>
<g>
</g>
<g>
</g>
<g>
</g>
<g>
</g>
<g>
</g>
<g>
</g>
<g>
</g>
</svg>
