<?xml version="1.0" encoding="iso-8859-1"?>
<!-- Generator: Adobe Illustrator 19.0.0, SVG Export Plug-In . SVG Version: 6.00 Build 0)  -->
<svg version="1.1" id="Capa_1" xmlns="http://www.w3.org/2000/svg" xmlns:xlink="http://www.w3.org/1999/xlink" x="0px" y="0px"
	 viewBox="0 0 512.001 512.001" style="enable-background:new 0 0 512.001 512.001;" xml:space="preserve">
<g>
	<g>
		<path d="M182.667,0.001h-81.086C45.569,0.001,0,45.569,0,101.582c0,3.558,1.89,6.847,4.964,8.639l50.204,29.269v117.998
			c0,5.522,4.478,10,10,10H219.08c5.522,0,10-4.478,10-10V139.49l50.205-29.27c3.073-1.792,4.963-5.082,4.963-8.639
			C284.247,45.569,238.678,0.001,182.667,0.001z M170.977,20.001c-4.151,11.943-15.513,20.542-28.853,20.542
			c-13.34,0-24.702-8.599-28.853-20.542H170.977z M229.092,116.331v-19.33c0-5.523-4.478-10-10-10c-5.522,0-10,4.477-10,10
			l-0.012,150.487H75.168v-20.237h42.499c5.522,0,10-4.477,10-10s-4.478-10-10-10H75.168V97.001c0-5.523-4.478-10-10-10
			c-5.522,0-10,4.477-10,10v19.338l-34.976-20.39c2.702-39.406,33.514-71.215,72.481-75.465c4.84,22.857,25.173,40.06,49.45,40.06
			c24.277,0,44.61-17.203,49.45-40.06c38.967,4.25,69.778,36.058,72.481,75.464L229.092,116.331z"/>
	</g>
</g>
<g>
	<g>
		<path d="M170.906,67.001c-16.542,0-30,13.458-30,30s13.458,30,30,30s30-13.458,30-30S187.448,67.001,170.906,67.001z
			 M170.906,107.001c-5.514,0-10-4.486-10-10s4.486-10,10-10c5.514,0,10,4.486,10,10S176.42,107.001,170.906,107.001z"/>
	</g>
</g>
<g>
	<g>
		<path d="M399.394,311.514c-0.123,0-0.245,0.008-0.368,0.009c-0.123-0.001-0.244-0.009-0.368-0.009c-16.542,0-30,13.458-30,30
			s13.458,30,30,30c0.123,0,0.245-0.008,0.368-0.009c0.123,0.001,0.244,0.009,0.368,0.009c16.542,0,30-13.458,30-30
			S415.936,311.514,399.394,311.514z M399.026,351.494c-5.343-0.196-9.632-4.592-9.632-9.981c0-5.39,4.29-9.786,9.632-9.981
			c5.343,0.196,9.632,4.592,9.632,9.981S404.368,351.3,399.026,351.494z"/>
	</g>
</g>
<g>
	<g>
		<path d="M435.116,78.819L377.488,3.904c-1.892-2.461-4.821-3.903-7.925-3.903s-6.033,1.442-7.926,3.903l-57.628,74.916
			c-4.901,6.373-5.74,14.812-2.188,22.024c3.551,7.213,10.752,11.693,18.791,11.693h10.478v71.464c0,5.523,4.478,10,10,10h56.945
			c5.522,0,10-4.477,10-10v-71.464h10.478c8.04,0,15.241-4.481,18.793-11.694C440.858,93.63,440.018,85.191,435.116,78.819z
			 M419.362,92.008c-0.26,0.528-0.644,0.528-0.85,0.528h-20.478c-5.522,0-10,4.477-10,10v71.465H351.09v-71.464
			c0-5.523-4.478-10-10-10h-20.478c-0.206,0-0.589,0-0.85-0.528c-0.259-0.529-0.026-0.833,0.099-0.996l49.701-64.611l49.701,64.611
			C419.388,91.176,419.622,91.48,419.362,92.008z"/>
	</g>
</g>
<g>
	<g>
		<path d="M211.115,411.142c-3.552-7.211-10.753-11.692-18.792-11.692h-10.478v-71.464c0-5.522-4.478-10-10-10H114.9
			c-5.522,0-10,4.478-10,10v71.464H94.423c-8.04,0-15.241,4.48-18.793,11.693c-3.552,7.213-2.712,15.652,2.19,22.025v-0.001
			l57.627,74.915c1.893,2.461,4.821,3.903,7.926,3.903s6.033-1.442,7.926-3.903l57.628-74.915
			C213.828,426.795,214.667,418.355,211.115,411.142z M193.074,420.975l-49.701,64.61l-49.701-64.61v-0.001
			c-0.125-0.163-0.359-0.467-0.099-0.995s0.644-0.528,0.85-0.528H114.9c5.522,0,10-4.478,10-10v-71.464h36.945v71.464
			c0,5.522,4.478,10,10,10h20.478c0.206,0,0.589,0,0.85,0.528C193.433,420.509,193.199,420.813,193.074,420.975z"/>
	</g>
</g>
<g>
	<g>
		<path d="M410.419,244.512h-81.085c-56.012,0-101.581,45.569-101.581,101.582c0,3.558,1.891,6.848,4.964,8.639l50.205,29.269
			v117.998c0,5.522,4.478,10,10,10h153.911c5.522,0,10-4.478,10-10v-40.062c0.002-0.091,0.014-0.179,0.014-0.271
			c0-0.092-0.011-0.18-0.014-0.271v-77.395l50.204-29.27c3.074-1.791,4.964-5.081,4.964-8.639
			C512,290.082,466.431,244.512,410.419,244.512z M398.729,264.512c-4.151,11.944-15.513,20.543-28.853,20.543
			c-13.339,0-24.701-8.599-28.853-20.543H398.729z M456.846,360.843v-19.33c0-5.522-4.478-10-10-10c-5.522,0-10,4.478-10,10
			l-0.014,110.154h-42.484c-5.522,0-10,4.478-10,10c0,5.522,4.478,10,10,10h42.484v20.333H302.921V341.514c0-5.522-4.478-10-10-10
			c-5.522,0-10,4.478-10,10v19.339l-34.977-20.391c2.702-39.407,33.515-71.216,72.482-75.466
			c4.839,22.856,25.173,40.06,49.449,40.06c24.277,0,44.61-17.203,49.45-40.06c38.968,4.25,69.779,36.059,72.481,75.465
			L456.846,360.843z"/>
	</g>
</g>
<g>
	<g>
		<path d="M161.569,210.181c-1.859-1.86-4.439-2.93-7.069-2.93c-2.641,0-5.21,1.07-7.07,2.93s-2.93,4.44-2.93,7.07
			s1.069,5.21,2.93,7.07c1.861,1.86,4.44,2.93,7.07,2.93s5.21-1.07,7.069-2.93c1.86-1.86,2.931-4.44,2.931-7.07
			S163.43,212.04,161.569,210.181z"/>
	</g>
</g>
<g>
	<g>
		<path d="M364.59,454.6c-1.87-1.871-4.441-2.93-7.07-2.93c-2.64,0-5.21,1.06-7.08,2.93c-1.859,1.86-2.93,4.44-2.93,7.07
			s1.07,5.21,2.93,7.07c1.87,1.859,4.44,2.93,7.08,2.93c2.63,0,5.2-1.07,7.07-2.93c1.86-1.86,2.93-4.44,2.93-7.07
			S366.451,456.461,364.59,454.6z"/>
	</g>
</g>
<g>
</g>
<g>
</g>
<g>
</g>
<g>
</g>
<g>
</g>
<g>
</g>
<g>
</g>
<g>
</g>
<g>
</g>
<g>
</g>
<g>
</g>
<g>
</g>
<g>
</g>
<g>
</g>
<g>
</g>
</svg>
