<?xml version="1.0" encoding="iso-8859-1"?>
<!-- Generator: Adobe Illustrator 19.0.0, SVG Export Plug-In . SVG Version: 6.00 Build 0)  -->
<svg version="1.1" id="Capa_1" xmlns="http://www.w3.org/2000/svg" xmlns:xlink="http://www.w3.org/1999/xlink" x="0px" y="0px"
	 viewBox="0 0 512 512" style="enable-background:new 0 0 512 512;" xml:space="preserve">
<g>
	<g>
		<path d="M256,215.501c-69.752,0-126.501,56.748-126.501,126.502c0,69.752,56.748,126.501,126.501,126.501
			s126.501-56.748,126.501-126.501C382.501,272.249,325.752,215.501,256,215.501z M256.001,448.503
			c-58.724,0-106.502-47.777-106.502-106.501c0-58.724,47.777-106.502,106.501-106.502s106.502,47.776,106.502,106.502
			C362.502,400.728,314.725,448.503,256.001,448.503z"/>
	</g>
</g>
<g>
	<g>
		<path d="M144.736,130.592L17.073,2.929c-3.905-3.905-10.237-3.905-14.143,0c-3.905,3.905-3.905,10.237,0,14.143l127.664,127.664
			c1.953,1.952,4.512,2.928,7.071,2.928c2.559,0,5.119-0.976,7.071-2.929C148.641,140.829,148.641,134.497,144.736,130.592z"/>
	</g>
</g>
<g>
	<g>
		<path d="M381.071,2.93c-3.906-3.905-10.237-3.904-14.142,0l-67.001,66.999c-1.952,1.953-2.929,4.512-2.929,7.071
			s0.976,5.119,2.929,7.071c1.953,1.954,4.512,2.93,7.071,2.93s5.119-0.977,7.071-2.929l67.001-67
			c1.952-1.953,2.929-4.512,2.929-7.071S383.023,4.882,381.071,2.93z"/>
	</g>
</g>
<g>
	<g>
		<path d="M509.07,2.929c-3.905-3.904-10.237-3.904-14.143,0L319.996,177.86c-0.022-0.023-0.041-0.048-0.064-0.071l-16.275-16.275
			L448.1,17.072c3.905-3.905,3.905-10.237,0-14.143c-3.905-3.905-10.237-3.905-14.143,0L289.514,147.372L145.072,2.929
			c-3.905-3.905-10.237-3.905-14.143,0c-3.905,3.905-3.905,10.237,0,14.143L289.107,175.25c-10.713-2.123-21.781-3.247-33.108-3.247
			c-1.872,0-3.734,0.041-5.591,0.102c-0.002-0.002-0.004-0.005-0.006-0.007L81.233,2.929c-3.905-3.905-10.237-3.905-14.143,0
			c-3.906,3.905-3.905,10.237,0,14.143l157.795,157.795C145.956,189.526,86,258.89,86,342.002C86,435.738,162.262,512,255.999,512
			s169.998-76.261,169.998-169.997c0-65.333-37.053-122.167-91.242-150.618L509.07,17.072
			C512.974,13.166,512.974,6.834,509.07,2.929z M405.999,342.002C405.999,424.712,338.71,492,256.001,492
			s-149.999-67.288-149.999-149.997c0-82.71,67.289-149.999,149.999-149.999S405.999,259.292,405.999,342.002z"/>
	</g>
</g>
<g>
	<g>
		<path d="M172.641,158.19c-1.86-1.86-4.44-2.93-7.07-2.93s-5.21,1.07-7.07,2.93s-2.93,4.44-2.93,7.07s1.07,5.21,2.93,7.07
			s4.44,2.93,7.07,2.93s5.21-1.069,7.07-2.93c1.86-1.86,2.93-4.44,2.93-7.07S174.501,160.05,172.641,158.19z"/>
	</g>
</g>
<g>
	<g>
		<path d="M288.739,95.592c-1.86-1.86-4.44-2.92-7.07-2.92c-2.64,0-5.21,1.06-7.07,2.92c-1.87,1.87-2.93,4.44-2.93,7.08
			c0,2.63,1.06,5.21,2.93,7.07c1.86,1.859,4.44,2.93,7.07,2.93c2.63,0,5.21-1.07,7.07-2.93s2.93-4.44,2.93-7.07
			C291.669,100.042,290.599,97.462,288.739,95.592z"/>
	</g>
</g>
<g>
	<g>
		<path d="M289.233,380.999h-19.546v-99.811c0-4.045-2.437-7.691-6.173-9.239c-3.737-1.546-8.038-0.691-10.898,2.168l-39.624,39.624
			c-3.905,3.905-3.905,10.237,0,14.143c3.905,3.904,10.237,3.904,14.142,0l22.552-22.553v75.668h-19.546c-5.523,0-10,4.478-10,10
			c0,5.522,4.477,10,10,10h59.092c5.523,0,10-4.478,10-10C299.233,385.477,294.756,380.999,289.233,380.999z"/>
	</g>
</g>
<g>
</g>
<g>
</g>
<g>
</g>
<g>
</g>
<g>
</g>
<g>
</g>
<g>
</g>
<g>
</g>
<g>
</g>
<g>
</g>
<g>
</g>
<g>
</g>
<g>
</g>
<g>
</g>
<g>
</g>
</svg>
