<?xml version="1.0" encoding="iso-8859-1"?>
<!-- Generator: Adobe Illustrator 19.0.0, SVG Export Plug-In . SVG Version: 6.00 Build 0)  -->
<svg version="1.1" id="Capa_1" xmlns="http://www.w3.org/2000/svg" xmlns:xlink="http://www.w3.org/1999/xlink" x="0px" y="0px"
	 viewBox="0 0 512.001 512.001" style="enable-background:new 0 0 512.001 512.001;" xml:space="preserve">
<g>
	<g>
		<path d="M383.682,160.316l-0.301-0.296c-3.938-3.876-10.27-3.825-14.143,0.111c-3.874,3.936-3.824,10.267,0.111,14.142
			l0.264,0.259c1.95,1.929,4.493,2.892,7.035,2.892c2.576,0,5.152-0.99,7.108-2.966
			C387.641,170.532,387.608,164.201,383.682,160.316z"/>
	</g>
</g>
<g>
	<g>
		<path d="M412.347,196.775c-2.833-4.742-8.971-6.291-13.713-3.458c-4.742,2.832-6.29,8.971-3.459,13.713
			c38.061,63.733,27.931,144.959-24.636,197.523c-30.597,30.598-71.279,47.449-114.551,47.449
			c-43.271,0-83.955-16.851-114.553-47.449c-63.164-63.164-63.164-165.939,0-229.103c53.294-53.293,135.274-62.965,199.365-23.52
			c4.701,2.895,10.861,1.429,13.758-3.274c2.895-4.704,1.429-10.863-3.275-13.759c-34.267-21.091-75.289-30.243-115.5-25.778
			c-40.844,4.538-79.373,23.071-108.491,52.188c-70.961,70.962-70.961,186.426,0,257.388c34.376,34.375,80.08,53.307,128.695,53.307
			c48.614,0,94.319-18.932,128.694-53.307C443.735,359.642,455.111,268.385,412.347,196.775z"/>
	</g>
</g>
<g>
	<g>
		<path d="M113.771,433.455l-0.62-0.617c-3.906-3.904-10.236-3.904-14.143,0c-3.905,3.905-3.905,10.237,0,14.143l0.684,0.68
			c1.95,1.932,4.494,2.897,7.039,2.897c2.574,0,5.147-0.988,7.103-2.961C117.722,443.674,117.693,437.343,113.771,433.455z"/>
	</g>
</g>
<g>
	<g>
		<path d="M438.054,162.882l25.166-25.165c1.875-1.875,2.929-4.419,2.929-7.071c0-2.652-1.054-5.196-2.929-7.071l-37-37
			c-3.905-3.904-10.235-3.905-14.143,0l-24.546,24.546c-28.344-20.936-61.035-34.662-95.793-40.257V58.28
			c11.639-4.128,20-15.243,20-28.28c0-16.542-13.458-30-30-30h-48c-16.542,0-30,13.458-30,30c0,13.036,8.361,24.152,20,28.28v12.037
			c-35.235,5.097-68.433,18.536-97.263,39.331l-23.076-23.075c-3.906-3.905-10.236-3.904-14.143,0l-37,37
			c-1.875,1.875-2.929,4.419-2.929,7.071c0,2.652,1.054,5.196,2.929,7.071l23.156,23.155
			c-53.164,74.337-55.97,175.686-3.503,253.297c3.094,4.577,9.312,5.775,13.885,2.684c4.575-3.093,5.777-9.31,2.684-13.885
			c-54.019-79.905-43.643-187.485,24.674-255.8C151.303,109.012,202.03,88,255.988,88c53.956,0,104.684,21.012,142.836,59.165
			c38.153,38.152,59.165,88.88,59.165,142.836c0,53.957-21.012,104.684-59.165,142.836
			c-69.614,69.614-178.485,79.099-258.869,22.558c-4.515-3.177-10.753-2.091-13.933,2.426c-3.177,4.518-2.091,10.755,2.427,13.933
			c37.3,26.237,82.026,40.246,127.616,40.246c6.016,0,12.05-0.244,18.08-0.736c52.337-4.271,101.638-27.1,138.821-64.283
			c41.93-41.93,65.022-97.681,65.022-156.979C477.989,243.867,464.006,199.883,438.054,162.882z M99.009,133.022
			c-3.89,3.891-7.599,7.903-11.146,12.014l-14.391-14.391l22.857-22.858l14.359,14.358
			C106.689,125.617,102.791,129.24,99.009,133.022z M271.739,68.555C266.521,68.191,261.269,68,255.988,68
			c-4.102,0-8.185,0.121-12.249,0.341V60h28V68.555z M281.739,40h-48c-5.514,0-10-4.486-10-10s4.486-10,10-10h48
			c5.514,0,10,4.486,10,10S287.253,40,281.739,40z M412.966,133.024c-3.191-3.192-6.473-6.261-9.82-9.233l16.003-16.003
			l22.857,22.858l-16.275,16.275C421.69,142.143,417.442,137.5,412.966,133.024z"/>
	</g>
</g>
<g>
	<g>
		<path d="M350.942,220.001h-189.91c-28.329,0-51.377,23.047-51.377,51.377v37.246c0,28.33,23.048,51.377,51.377,51.377h189.91
			c28.329,0,51.377-23.047,51.377-51.377v-37.246C402.32,243.048,379.271,220.001,350.942,220.001z M382.319,308.624
			c0,17.301-14.075,31.377-31.377,31.377h-189.91c-17.302,0-31.377-14.076-31.377-31.377v-37.246
			c0-17.301,14.075-31.377,31.377-31.377h189.91c17.302,0.001,31.377,14.076,31.377,31.377V308.624z"/>
	</g>
</g>
<g>
	<g>
		<path d="M177.979,254.001h-8.333c-14.245,0-25.834,11.589-25.834,25.833v20.333c0,14.244,11.589,25.833,25.834,25.833h8.333
			c14.244,0,25.833-11.589,25.833-25.833v-20.333C203.812,265.59,192.223,254.001,177.979,254.001z M183.812,300.169
			c0,3.216-2.616,5.833-5.833,5.833h-8.333c-3.217,0-5.834-2.617-5.834-5.833v-20.333c0-3.217,2.617-5.833,5.834-5.833h8.333
			c3.217,0,5.833,2.617,5.833,5.833V300.169z"/>
	</g>
</g>
<g>
	<g>
		<path d="M274.313,254.001h-8.333c-14.244,0-25.833,11.589-25.833,25.833v20.333c0,14.244,11.589,25.833,25.833,25.833h8.333
			c14.245,0,25.834-11.589,25.834-25.833v-20.333C300.147,265.59,288.558,254.001,274.313,254.001z M280.147,300.169
			c0,3.216-2.617,5.833-5.834,5.833h-8.333c-3.217,0-5.833-2.617-5.833-5.833v-20.333c0-3.217,2.616-5.833,5.833-5.833h8.333
			c3.217,0,5.834,2.617,5.834,5.833V300.169z"/>
	</g>
</g>
<g>
	<g>
		<path d="M344.329,254.001h-8.333c-14.245,0-25.834,11.589-25.834,25.833v20.333c0,14.244,11.589,25.833,25.834,25.833h8.333
			c14.244,0,25.833-11.589,25.833-25.833v-20.333C370.162,265.59,358.573,254.001,344.329,254.001z M350.162,300.168
			c0,3.216-2.616,5.833-5.833,5.833h-8.333c-3.217,0-5.834-2.617-5.834-5.833v-20.333c0-3.217,2.617-5.833,5.834-5.833h8.333
			c3.217,0,5.833,2.616,5.833,5.833V300.168z"/>
	</g>
</g>
<g>
	<g>
		<path d="M228.729,265.592c-1.86-1.86-4.44-2.92-7.07-2.92c-2.64,0-5.22,1.06-7.08,2.92c-1.86,1.87-2.92,4.44-2.92,7.08
			c0,2.63,1.06,5.21,2.92,7.07c1.86,1.86,4.44,2.93,7.08,2.93c2.63,0,5.21-1.07,7.07-2.93c1.859-1.87,2.92-4.44,2.92-7.07
			C231.649,270.042,230.588,267.462,228.729,265.592z"/>
	</g>
</g>
<g>
	<g>
		<path d="M228.729,300.932c-1.86-1.86-4.44-2.93-7.07-2.93c-2.64,0-5.22,1.07-7.08,2.93c-1.86,1.86-2.92,4.44-2.92,7.07
			c0,2.63,1.06,5.21,2.92,7.07c1.86,1.86,4.44,2.93,7.08,2.93c2.63,0,5.21-1.07,7.07-2.93c1.859-1.86,2.92-4.44,2.92-7.07
			C231.649,305.372,230.588,302.792,228.729,300.932z"/>
	</g>
</g>
<g>
</g>
<g>
</g>
<g>
</g>
<g>
</g>
<g>
</g>
<g>
</g>
<g>
</g>
<g>
</g>
<g>
</g>
<g>
</g>
<g>
</g>
<g>
</g>
<g>
</g>
<g>
</g>
<g>
</g>
</svg>
