<?xml version="1.0" encoding="iso-8859-1"?>
<!-- Generator: Adobe Illustrator 19.0.0, SVG Export Plug-In . SVG Version: 6.00 Build 0)  -->
<svg version="1.1" id="Capa_1" xmlns="http://www.w3.org/2000/svg" xmlns:xlink="http://www.w3.org/1999/xlink" x="0px" y="0px"
	 viewBox="0 0 512 512" style="enable-background:new 0 0 512 512;" xml:space="preserve">
<g>
	<g>
		<path d="M169.304,126.336c-1.867-1.867-4.457-2.941-7.097-2.941s-5.23,1.074-7.097,2.941c-1.867,1.867-2.941,4.457-2.941,7.097
			c0,2.64,1.074,5.23,2.941,7.097c1.867,1.867,4.457,2.941,7.097,2.941s5.23-1.074,7.097-2.941c1.867-1.867,2.941-4.457,2.941-7.097
			C172.245,130.793,171.171,128.203,169.304,126.336z"/>
	</g>
</g>
<g>
	<g>
		<path d="M468.424,213.231c-1.867-1.867-4.457-2.941-7.097-2.941s-5.23,1.074-7.097,2.941c-1.867,1.867-2.941,4.457-2.941,7.097
			s1.074,5.23,2.941,7.097c1.867,1.867,4.457,2.941,7.097,2.941s5.23-1.074,7.097-2.941c1.867-1.867,2.941-4.457,2.941-7.097
			S470.291,215.098,468.424,213.231z"/>
	</g>
</g>
<g>
	<g>
		<path d="M327.93,0c-32.48,0-64.386,8.623-92.269,24.937c-27.052,15.827-49.74,38.479-65.611,65.506
			c-2.807,4.78-1.208,10.931,3.572,13.738c4.781,2.807,10.932,1.209,13.738-3.572c14.857-25.301,36.128-45.705,61.018-59.652v3.395
			c0,15.867,12.908,28.776,28.776,28.776c4.797,0,8.7,3.903,8.7,8.7v29.779c0,4.797-3.903,8.7-8.7,8.7h-25.906
			c-17.193,0-31.182,13.988-31.182,31.182v14.197c-13.805-3.494-28.252-5.358-43.126-5.358
			C79.985,160.328,1.105,239.208,1.105,336.164S79.984,512,176.941,512c52.079,0,98.934-22.766,131.159-58.86
			c0.608-0.539,1.148-1.146,1.608-1.812c20.928-24.095,35.411-53.923,40.766-86.778c43.235-5.319,83.085-25.901,112.642-58.291
			c30.811-33.764,47.78-77.551,47.78-123.295C510.896,82.078,428.818,0,327.93,0z M345.611,21.038
			c77.336,8.386,138.605,71.116,144.707,149.104h-52.206c-13.921,0-25.246-11.325-25.246-25.246v-20.97
			c0-8.446-5.71-15.821-13.885-17.937l-16.414-4.248c3.716-3.469,5.862-8.331,5.862-13.528v-3.487
			c0-10.216-8.312-18.527-18.528-18.527h-20.071c-2.326,0-4.218-1.892-4.218-4.218V21.038z M252.913,229.297l-22.815-39.548
			c26.679,9.716,49.973,26.53,67.596,48.144L252.913,229.297z M313.536,261.375c8.815,16.036,14.884,33.784,17.579,52.606
			l-44.925,45.319l-49.479-11.109l-16.549-50.932l31.088-47.84L313.536,261.375z M176.941,180.404
			c8.799-0.001,17.426,0.744,25.832,2.153l31.972,55.421l-31.057,47.792h-53.492l-31.057-47.792l31.967-55.418
			C159.511,181.15,168.14,180.404,176.941,180.404z M217.131,352.898l-20.013,14.54l-20.012,14.539l-40.026-29.081l15.288-47.053
			h49.474L217.131,352.898z M123.78,189.75l-22.799,39.526l-44.6,8.377C73.98,216.155,97.2,199.431,123.78,189.75z M40.523,261.058
			l62.093-11.663l31.104,47.864l-16.549,50.931l-48.403,10.867l-1.019,0.229l-44.874-46.081
			C25.645,294.547,31.734,276.959,40.523,261.058z M48.16,423.683c-16.292-23.898-26.117-52.538-26.924-83.387l32.715,33.596
			L48.16,423.683z M65.863,445.238l7.758-66.695l49.101-11.023l44.017,31.98v47.248l-47.542,34.075
			C98.994,472.729,80.871,460.519,65.863,445.238z M176.942,491.925c-11.552,0-22.81-1.275-33.651-3.672l34.076-24.422
			l38.051,23.281C203.107,490.252,190.217,491.925,176.942,491.925z M239.96,478.593l-52.818-32.316v-46.776l44.017-31.981
			l2.699,0.606l46.713,10.487l10.199,63.751C276.532,457.615,259.276,470.013,239.96,478.593z M307.649,420.785l-7.524-47.029
			l32.496-32.779C331.725,370.331,322.67,397.664,307.649,420.785z M430.125,310.133l-18.169-39.345
			c-4.827-10.453-15.385-17.206-26.898-17.206c-5.267,0-9.552-4.285-9.552-9.552v-4.111c0-5.267,4.285-9.552,9.552-9.552h42.644
			c5.544,0,10.038-4.494,10.038-10.038s-4.494-10.038-10.038-10.038h-42.644c-16.336,0-29.627,13.291-29.627,29.627v4.111
			c0,16.336,13.291,29.627,29.627,29.627c3.712,0,7.116,2.177,8.672,5.548l19.701,42.663
			c-18.124,11.113-38.678,18.796-60.838,22.132c0.114-2.599,0.184-5.209,0.184-7.835c0-74.707-46.835-138.67-112.682-164.098
			c0.029-0.31,0.047-0.624,0.047-0.942v-19.635c0-6.125,4.983-11.107,11.107-11.107h25.906c15.866,0,28.775-12.908,28.775-28.775
			v-29.78c0-15.866-12.908-28.775-28.775-28.775c-4.797,0-8.701-3.904-8.701-8.701V31.433c17.984-7.089,37.295-11.023,57.081-11.318
			V61.98c0,13.395,10.898,24.293,24.293,24.293h18.524v1.122c-5.783,4.124-8.642,10.958-7.491,18.035
			c1.198,7.36,6.426,13.092,13.645,14.961l18.283,4.732v19.773c0,24.99,20.331,45.321,45.321,45.321h52.547
			C488.565,238.615,465.617,281.648,430.125,310.133z"/>
	</g>
</g>
<g>
</g>
<g>
</g>
<g>
</g>
<g>
</g>
<g>
</g>
<g>
</g>
<g>
</g>
<g>
</g>
<g>
</g>
<g>
</g>
<g>
</g>
<g>
</g>
<g>
</g>
<g>
</g>
<g>
</g>
</svg>
