<?xml version="1.0" encoding="iso-8859-1"?>
<!-- Generator: Adobe Illustrator 19.0.0, SVG Export Plug-In . SVG Version: 6.00 Build 0)  -->
<svg version="1.1" id="Capa_1" xmlns="http://www.w3.org/2000/svg" xmlns:xlink="http://www.w3.org/1999/xlink" x="0px" y="0px"
	 viewBox="0 0 512.001 512.001" style="enable-background:new 0 0 512.001 512.001;" xml:space="preserve">
<g>
	<g>
		<path d="M353,140.974H157c-5.523,0-10,4.477-10,10s4.477,10,10,10h196c10.477,0,19,8.523,19,19v208.027c0,10.477-8.523,19-19,19
			H78.969c-10.477,0-19-8.523-19-19V179.974c0-10.476,8.524-19,19-19H88c5.523,0,10-4.477,10-10s-4.477-10-10-10h-9.031
			c-21.505,0-39,17.495-39,39v208.027c0,21.505,17.495,39,39,39H353c21.505,0,39-17.495,39-39V179.974
			C392,158.469,374.505,140.974,353,140.974z"/>
	</g>
</g>
<g>
	<g>
		<path d="M502,95.974h-31c-5.523,0-10,4.477-10,10s4.477,10,10,10h21v336.027H20V115.974h376.346c5.523,0,10-4.477,10-10
			s-4.477-10-10-10H293.594l38.971-38.971c3.951,1.919,8.383,2.997,13.062,2.997c16.542,0,30-13.458,30-30s-13.458-30-30-30
			s-30,13.458-30,30c0,4.572,1.032,8.905,2.869,12.787l-50.2,50.2l-50.199-50.2c1.837-3.882,2.869-8.215,2.869-12.787
			c0-16.542-13.458-30-30-30c-16.542,0-30,13.458-30,30s13.458,30,30,30c4.679,0,9.111-1.078,13.062-2.997l38.971,38.971H10
			c-5.523,0-10,4.477-10,10v356.027c0,5.523,4.477,10,10,10h46.096v30c0,5.523,4.477,10,10,10h380c5.523,0,10-4.477,10-10v-30H502
			c5.523,0,10-4.477,10-10V105.974C512,100.451,507.523,95.974,502,95.974z M345.627,20c5.514,0,10,4.486,10,10s-4.486,10-10,10
			c-5.514,0-10-4.486-10-10S340.112,20,345.627,20z M190.964,40c-5.514,0-10-4.486-10-10s4.486-10,10-10c5.514,0,10,4.486,10,10
			S196.479,40,190.964,40z M436.096,492.001h-360v-20h360V492.001z"/>
	</g>
</g>
<g>
	<g>
		<path d="M442,199.501c-19.472,0-35.313,15.842-35.313,35.313s15.842,35.314,35.313,35.314c19.472,0,35.313-15.842,35.313-35.313
			S461.472,199.501,442,199.501z M442,250.127c-8.443,0-15.313-6.87-15.313-15.313c0-8.443,6.87-15.313,15.313-15.313
			c8.444,0,15.313,6.87,15.313,15.313C457.313,243.257,450.443,250.127,442,250.127z"/>
	</g>
</g>
<g>
	<g>
		<path d="M308.691,266.615c-0.018-0.099-0.036-0.199-0.057-0.297c-8.296-43.588-46.68-76.645-92.647-76.645
			c-45.967,0-84.352,33.057-92.647,76.645c-0.024,0.099-0.041,0.198-0.059,0.297c-1.053,5.633-1.61,11.439-1.61,17.372
			c0,30.673,14.721,57.969,37.467,75.205c0.169,0.149,0.335,0.301,0.517,0.441c0.289,0.222,0.588,0.419,0.892,0.605
			c15.573,11.353,34.735,18.064,55.439,18.064c20.692,0,39.844-6.703,55.412-18.045c0.267-0.162,0.529-0.333,0.785-0.523
			c0.264-0.196,0.514-0.404,0.753-0.62c22.687-17.24,37.365-44.5,37.365-75.127C310.301,278.053,309.744,272.247,308.691,266.615z
			 M225.985,210.365c27.608,3.732,50.459,22.662,59.791,48.081h-31.934l-27.857-20.24V210.365z M241.893,274.486l-9.896,30.457
			h-32.024l-9.896-30.457l25.908-18.824L241.893,274.486z M205.985,210.365v27.841l-27.858,20.24h-31.934
			C155.526,233.027,178.378,214.097,205.985,210.365z M141.67,283.988c0-1.866,0.093-3.71,0.228-5.542h28.435l11.622,35.767
			l-17.713,23.043C150.336,323.744,141.67,304.864,141.67,283.988z M215.985,358.303c-12.918-0.001-25.074-3.32-35.668-9.141
			l18.618-24.219h34.967l17.91,24.128C241.18,354.947,228.969,358.303,215.985,358.303z M267.859,337.132l-17.591-23.698
			l11.368-34.988h28.436c0.136,1.832,0.228,3.676,0.228,5.542C290.299,304.799,281.69,323.628,267.859,337.132z"/>
	</g>
</g>
<g>
	<g>
		<path d="M442,294.194c-16.542,0-30,13.458-30,30v72c0,16.542,13.458,30,30,30s30-13.458,30-30v-72
			C472,307.652,458.542,294.194,442,294.194z M452,396.194c0,5.514-4.486,10-10,10c-5.514,0-10-4.486-10-10v-72
			c0-5.514,4.486-10,10-10c5.514,0,10,4.486,10,10V396.194z"/>
	</g>
</g>
<g>
	<g>
		<path d="M440.07,98.9c-1.86-1.86-4.44-2.93-7.07-2.93s-5.21,1.07-7.07,2.93c-1.86,1.87-2.93,4.44-2.93,7.07
			c0,2.64,1.07,5.21,2.93,7.07c1.861,1.87,4.44,2.93,7.07,2.93s5.21-1.06,7.07-2.93c1.86-1.86,2.93-4.43,2.93-7.07
			C443,103.34,441.93,100.77,440.07,98.9z"/>
	</g>
</g>
<g>
	<g>
		<path d="M127.07,143.9c-1.86-1.86-4.44-2.93-7.07-2.93s-5.21,1.07-7.07,2.93c-1.86,1.86-2.93,4.44-2.93,7.07
			c0,2.64,1.07,5.21,2.93,7.08c1.86,1.86,4.44,2.92,7.07,2.92s5.21-1.06,7.07-2.92c1.86-1.87,2.93-4.44,2.93-7.08
			C130,148.34,128.93,145.76,127.07,143.9z"/>
	</g>
</g>
<g>
</g>
<g>
</g>
<g>
</g>
<g>
</g>
<g>
</g>
<g>
</g>
<g>
</g>
<g>
</g>
<g>
</g>
<g>
</g>
<g>
</g>
<g>
</g>
<g>
</g>
<g>
</g>
<g>
</g>
</svg>
