<?xml version="1.0" encoding="iso-8859-1"?>
<!-- Generator: Adobe Illustrator 19.0.0, SVG Export Plug-In . SVG Version: 6.00 Build 0)  -->
<svg version="1.1" id="Capa_1" xmlns="http://www.w3.org/2000/svg" xmlns:xlink="http://www.w3.org/1999/xlink" x="0px" y="0px"
	 viewBox="0 0 512 512" style="enable-background:new 0 0 512 512;" xml:space="preserve">
<g>
	<g>
		<path d="M303.82,144.297c-11.961-14.009-28.566-23.315-46.759-26.203l-50.531-8.022c0,0.004-0.001,0.007-0.002,0.011
			c-0.512-0.081-1.032-0.135-1.566-0.135h-87.557c-0.536,0-1.058,0.054-1.57,0.135c0-0.004,0.001-0.008,0.002-0.012l-50.531,8.022
			c-18.192,2.888-34.798,12.194-46.759,26.203C6.587,158.307,0,176.167,0,194.587V256c0,5.523,4.478,10,10,10h52.74v14
			c0,5.523,4.478,10,10,10c5.522,0,10-4.477,10-10v-71.667c0-5.523-4.478-10-10-10c-5.522,0-10,4.477-10,10V246H20v-51.413
			c0-28.421,20.373-52.284,48.442-56.74l39.5-6.271v1.989c0,29.217,23.884,52.987,53.241,52.987s53.242-23.77,53.242-52.987v-1.989
			l39.499,6.271c28.069,4.456,48.442,28.318,48.442,56.74V246h-41.345v-37.352c0-5.523-4.478-10-10-10c-5.522,0-10,4.477-10,10
			v156.001H82.742l-0.001-17.983c0-5.523-4.478-10-10-10c-5.523,0-10,4.478-10,10L62.742,502c0,5.523,4.478,10,10,10h178.28
			c5.522,0,10-4.477,10-10V266h51.345c5.522,0,10-4.477,10-10v-61.413C322.367,176.167,315.78,158.307,303.82,144.297z
			 M194.426,133.565c0,18.189-14.912,32.987-33.242,32.987c-18.329,0-33.241-14.798-33.241-32.987v-3.617h66.483V133.565z
			 M241.022,492h-69.839v-57c0-5.523-4.478-10-10-10c-5.522,0-10,4.477-10,10v57H82.742V384.649h158.28V492z"/>
	</g>
</g>
<g>
	<g>
		<path d="M214.81,206.334h-50.151c-5.522,0-10,4.477-10,10v36.333V277c0,3.417,1.745,6.598,4.627,8.434l25.075,15.974
			c1.639,1.044,3.506,1.566,5.373,1.566s3.734-0.522,5.373-1.566l25.076-15.974c2.882-1.836,4.627-5.017,4.627-8.434v-24.333
			v-36.333C224.81,210.811,220.332,206.334,214.81,206.334z M174.659,226.333h30.151v16.333h-30.151V226.333z M204.811,271.514
			l-15.076,9.604l-15.075-9.604v-8.847h30.151V271.514z"/>
	</g>
</g>
<g>
	<g>
		<path d="M493.453,34.349c-11.961-14.009-28.566-23.315-46.759-26.203l-50.531-8.022c0,0.004,0,0.007,0,0.011
			C395.651,0.054,395.13,0,394.595,0h-0.536h-86.484h-0.536c-0.534,0-1.054,0.054-1.564,0.134c-0.001-0.004-0.003-0.007-0.004-0.011
			L254.94,8.145c-18.192,2.888-34.798,12.194-46.759,26.203c-11.96,14.009-18.547,31.869-18.547,50.289V91.5c0,5.523,4.478,10,10,10
			c5.522,0,10-4.477,10-10v-6.862c0-28.421,20.373-52.283,48.442-56.739l39.499-6.271v1.989c0,29.217,23.885,52.987,53.242,52.987
			s53.242-23.77,53.242-52.987v-1.989l39.499,6.271C471.627,32.355,492,56.217,492,84.638v51.414h-25c-5.522,0-10,4.477-10,10
			s4.478,10,10,10h35c5.522,0,10-4.477,10-10V84.638C512,66.218,505.413,48.358,493.453,34.349z M384.059,23.617
			c0,18.189-14.912,32.987-33.242,32.987s-33.242-14.798-33.242-32.987V20h66.484V23.617z"/>
	</g>
</g>
<g>
	<g>
		<path d="M447.729,87.93c-1.87-1.86-4.439-2.93-7.069-2.93c-2.641,0-5.21,1.07-7.08,2.93c-1.86,1.86-2.92,4.44-2.92,7.07
			s1.06,5.21,2.92,7.07c1.859,1.86,4.439,2.93,7.08,2.93c2.63,0,5.21-1.07,7.069-2.93c1.86-1.86,2.931-4.44,2.931-7.07
			S449.59,89.79,447.729,87.93z"/>
	</g>
</g>
<g>
	<g>
		<path d="M440.655,122.5c-5.522,0-10,4.477-10,10v122.201H354.04c-5.522,0-10,4.477-10,10s4.478,10,10,10h76.615v107.351h-66.964
			V308c0-5.523-4.478-10-10-10c-5.522,0-10,4.477-10,10v74.052H286c-5.522,0-10,4.477-10,10s4.478,10,10,10h154.655
			c5.522,0,10-4.477,10-10V132.5C450.655,126.977,446.178,122.5,440.655,122.5z"/>
	</g>
</g>
<g>
	<g>
		<path d="M401.192,107.334H351.04c-5.522,0-10,4.477-10,10v36.333V178c0,3.417,1.745,6.598,4.627,8.434l25.076,15.974
			c1.639,1.044,3.506,1.566,5.373,1.566c1.867,0,3.734-0.522,5.373-1.566l25.076-15.974c2.882-1.836,4.627-5.017,4.627-8.434
			v-24.333v-36.333C411.192,111.811,406.714,107.334,401.192,107.334z M391.192,172.514l-15.076,9.604l-15.076-9.604v-8.847h30.152
			V172.514z M391.192,143.666H361.04v-16.333h30.152V143.666z"/>
	</g>
</g>
<g>
	<g>
		<path d="M72.794,303.333c-0.019,0-0.035,0-0.053,0c-5.498,0-9.971,4.443-9.999,9.948l-0.001,0.189
			c-0.029,5.523,4.426,10.023,9.948,10.052c0.019,0,0.035,0,0.053,0c5.498,0,9.971-4.443,9.999-9.948l0.001-0.189
			C82.771,307.862,78.316,303.362,72.794,303.333z"/>
	</g>
</g>
<g>
</g>
<g>
</g>
<g>
</g>
<g>
</g>
<g>
</g>
<g>
</g>
<g>
</g>
<g>
</g>
<g>
</g>
<g>
</g>
<g>
</g>
<g>
</g>
<g>
</g>
<g>
</g>
<g>
</g>
</svg>
