<?xml version="1.0" encoding="iso-8859-1"?>
<!-- Generator: Adobe Illustrator 19.0.0, SVG Export Plug-In . SVG Version: 6.00 Build 0)  -->
<svg version="1.1" id="Capa_1" xmlns="http://www.w3.org/2000/svg" xmlns:xlink="http://www.w3.org/1999/xlink" x="0px" y="0px"
	 viewBox="0 0 512 512" style="enable-background:new 0 0 512 512;" xml:space="preserve">
<g>
	<g>
		<path d="M506.426,404.966L426.058,226.33c-2.654-5.898-5.552-11.668-8.664-17.318c-0.031-0.059-0.064-0.117-0.096-0.176
			c-11.015-19.963-24.845-38.337-41.298-54.79l-14.015-14.014c-3.906-3.905-10.236-3.905-14.143,0l-18.14,18.14
			c-8.307,8.307-21.824,8.309-30.133,0.004l-56.599-56.575c-6.613-6.612-10.966-15.068-12.384-23.651V61.466l0.391-7.254
			c0.19-3.529,0.024-7.06-0.442-10.558c-0.001-0.014-0.004-0.027-0.006-0.04c-1.773-13.23-8.104-25.957-18.174-36.028
			c-4.468-4.467-10.275-7.145-16.352-7.538c-6.463-0.415-12.711,1.873-17.125,6.286l-71.094,71.095
			c-0.002,0.002-0.003,0.003-0.005,0.005l-30.25,30.25c-18.321,18.322-18.62,48.497-1.959,70.828l-10.095,10.095
			c-11.696,11.697-11.696,30.729,0,42.427l2.211,2.211c5.849,5.848,13.531,8.772,21.213,8.772c7.683,0,15.365-2.924,21.214-8.772
			l9.616-9.616l12.241,12.241c1.718,1.717,4.002,2.751,6.426,2.908c13.536,0.876,27.205,7.285,37.503,17.582l29.345,29.344
			c4.488,4.489,7.279,10.403,7.656,16.224c0.693,10.715,5.459,21,13.419,28.96l26.649,26.649l-9.282,9.282
			c-11.696,11.697-11.696,30.729-0.001,42.426l2.21,2.21c0.001,0,0.001,0,0.001,0c5.85,5.85,13.53,8.773,21.214,8.773
			c7.681,0,15.365-2.925,21.213-8.772l9.282-9.281l46.142,46.142l-9.282,9.281c-11.696,11.697-11.696,30.729,0,42.427l2.211,2.211
			c5.849,5.848,13.531,8.772,21.213,8.772c7.683,0,15.365-2.924,21.214-8.773l9.289-9.289
			c10.868,10.712,24.798,17.128,39.289,18.066c1.238,0.08,2.467,0.12,3.687,0.12c13.694,0,26.192-5.017,35.507-14.331l30.25-30.25
			C512.629,451.043,516.281,426.87,506.426,404.966z M452.214,333.215h-46.388l-10.709-23.126h46.693L452.214,333.215z
			 M407.818,234.535l5.529,12.289h-48.234l-10.709-23.126h48.163C404.41,227.26,406.169,230.869,407.818,234.535z M95.97,219.103
			c-3.898,3.898-10.243,3.899-14.142,0l-2.211-2.211c-3.899-3.899-3.899-10.243,0-14.142l9.281-9.282l16.354,16.353L95.97,219.103z
			 M274.18,397.312c-3.897,3.898-10.242,3.9-14.142,0l-2.21-2.211c-3.899-3.899-3.899-10.243,0-14.142l9.281-9.282l10.34,10.34
			l6.013,6.014L274.18,397.312z M364.959,488.092c-3.899,3.9-10.243,3.899-14.142,0l-2.211-2.211
			c-3.899-3.899-3.899-10.243,0-14.142l9.282-9.281l16.353,16.353L364.959,488.092z M452.73,482.657
			c-6.018,6.017-14.45,8.997-23.76,8.396c-9.792-0.634-19.305-5.103-26.785-12.583l-97.505-97.505
			c-0.002-0.002-0.003-0.004-0.005-0.005l-30.495-30.495c-0.002-0.002-0.003-0.003-0.005-0.005l-33.715-33.715
			c-4.458-4.458-7.229-10.33-7.603-16.11c-0.697-10.758-5.482-21.083-13.473-29.075l-29.345-29.344
			c-12.919-12.918-29.298-21.01-46.482-23.043l-47.762-47.762c-14.808-14.808-16.658-37.052-4.125-49.584l2.426-2.426
			c1.571,12.828,7.541,25.636,17.807,35.902l50.316,50.316c1.718,1.717,4.002,2.751,6.426,2.908
			c13.536,0.876,27.205,7.285,37.503,17.582l29.345,29.345c4.488,4.488,7.279,10.402,7.656,16.224
			c0.693,10.714,5.459,20.999,13.419,28.959l161.725,161.726c10.479,10.478,23.57,16.536,36.662,18.069L452.73,482.657z
			 M482.982,452.404c-0.001,0.001-0.002,0.002-0.003,0.002l-0.008,0.008c-12.782,12.771-35.451,10.891-50.536-4.195L270.711,286.495
			c-4.458-4.458-7.229-10.329-7.603-16.109c-0.697-10.758-5.482-21.083-13.473-29.074l-29.345-29.345
			c-12.919-12.918-29.298-21.01-46.482-23.043l-47.763-47.762c-14.808-14.808-16.658-37.052-4.125-49.584l71.1-71.1
			c0.473-0.474,1.26-0.498,1.69-0.471c1.209,0.078,2.485,0.706,3.501,1.722c6.655,6.656,11.011,15.188,12.374,23.829v15.378
			l-0.434,8.052c-0.189,3.516-0.027,7.034,0.434,10.52V144c0,5.523,4.478,10,10,10c5.522,0,10-4.477,10-10v-26.499l54.846,54.821
			c16.108,16.099,42.313,16.094,58.414-0.008l11.068-11.069l6.943,6.943c10.956,10.956,20.649,22.83,29.003,35.509h-52.107
			c-3.412,0-6.59,1.74-8.427,4.616c-1.837,2.876-2.081,6.49-0.647,9.586l19.97,43.126c1.637,3.535,5.178,5.798,9.074,5.798h63.622
			l10.467,23.265h-53.346c-3.412,0-6.59,1.74-8.427,4.616c-1.837,2.876-2.081,6.49-0.647,9.586l19.971,43.126
			c1.637,3.535,5.179,5.798,9.074,5.798h61.776l26.975,59.957C494.601,427.427,492.557,442.826,482.982,452.404z"/>
	</g>
</g>
<g>
	<g>
		<path d="M281.873,457.668c-3.905-3.906-10.235-3.906-14.143-0.001C245.59,479.807,216.155,492,184.845,492H73.319
			c-29.346,0-53.221-23.875-53.221-53.221v-26.321c0-15.535,6.05-30.141,17.035-41.126l8.199-8.199
			c33.436-33.436,77.892-51.85,125.178-51.85h12.482c5.522,0,10-4.477,10-10s-4.478-10-10-10h-12.481
			c-26.006,0-51.374,5.046-75.399,14.998c-24.026,9.952-45.532,24.321-63.921,42.71l-8.199,8.199
			C8.228,371.953,0.099,391.581,0.099,412.458v26.321C0.099,479.153,32.946,512,73.32,512h111.526
			c36.651,0,71.109-14.273,97.027-40.19C285.778,467.905,285.778,461.573,281.873,457.668z"/>
	</g>
</g>
<g>
	<g>
		<path d="M147.874,323.072c-16.542,0-30,13.458-30,30s13.458,30,30,30c16.542,0,30-13.458,30-30S164.416,323.072,147.874,323.072z
			 M147.874,363.072c-5.514,0-10-4.486-10-10c0-5.514,4.486-10,10-10c5.514,0,10,4.486,10,10
			C157.874,358.586,153.388,363.072,147.874,363.072z"/>
	</g>
</g>
<g>
	<g>
		<path d="M83.874,411.937c-16.542,0-30,13.458-30,30s13.458,30,30,30s30-13.458,30-30S100.416,411.937,83.874,411.937z
			 M83.874,451.937c-5.514,0-10-4.486-10-10c0-5.514,4.486-10,10-10c5.514,0,10,4.486,10,10
			C93.874,447.451,89.388,451.937,83.874,451.937z"/>
	</g>
</g>
<g>
	<g>
		<path d="M187.326,426.544c-16.542,0-30,13.458-30,30s13.458,30,30,30s30-13.458,30-30S203.868,426.544,187.326,426.544z
			 M187.326,466.544c-5.514,0-10-4.486-10-10c0-5.514,4.486-10,10-10s10,4.486,10,10
			C197.326,462.058,192.84,466.544,187.326,466.544z"/>
	</g>
</g>
<g>
	<g>
		<path d="M456.211,200.121c-5.321-1.458-10.827,1.675-12.287,7.001c-1.46,5.326,1.675,10.829,7.002,12.289
			c24.109,6.607,40.948,28.706,40.948,53.741c0,10.47-2.918,20.67-8.438,29.496c-2.929,4.683-1.507,10.853,3.176,13.781
			c1.649,1.031,3.481,1.523,5.293,1.523c3.332,0,6.591-1.666,8.488-4.699c7.511-12.01,11.481-25.876,11.481-40.102
			C511.874,239.134,488.983,209.103,456.211,200.121z"/>
	</g>
</g>
<g>
	<g>
		<path d="M227.653,176.109c-1.86-1.86-4.44-2.93-7.07-2.93s-5.21,1.07-7.07,2.93c-1.859,1.86-2.93,4.44-2.93,7.07
			s1.07,5.21,2.93,7.07s4.44,2.93,7.07,2.93s5.21-1.07,7.07-2.93c1.859-1.86,2.93-4.44,2.93-7.07S229.513,177.969,227.653,176.109z"
			/>
	</g>
</g>
<g>
	<g>
		<path d="M297.692,431.936h-0.178c-5.522,0-10,4.477-10,10s4.478,10,10,10h0.178c5.522,0,10-4.477,10-10
			S303.215,431.936,297.692,431.936z"/>
	</g>
</g>
<g>
</g>
<g>
</g>
<g>
</g>
<g>
</g>
<g>
</g>
<g>
</g>
<g>
</g>
<g>
</g>
<g>
</g>
<g>
</g>
<g>
</g>
<g>
</g>
<g>
</g>
<g>
</g>
<g>
</g>
</svg>
