<?xml version="1.0" encoding="iso-8859-1"?>
<!-- Generator: Adobe Illustrator 19.0.0, SVG Export Plug-In . SVG Version: 6.00 Build 0)  -->
<svg version="1.1" id="Capa_1" xmlns="http://www.w3.org/2000/svg" xmlns:xlink="http://www.w3.org/1999/xlink" x="0px" y="0px"
	 viewBox="0 0 512.003 512.003" style="enable-background:new 0 0 512.003 512.003;" xml:space="preserve">
<g>
	<g>
		<path d="M459.935,0.218H52.064C23.356,0.218,0,23.573,0,52.282v277.657c0,5.518,4.474,9.992,9.992,9.992H50.35
			c0.01,0,0.021,0.002,0.032,0.002c0.01,0,0.02-0.002,0.029-0.002h80.661c5.517,0,9.992-4.473,9.992-9.992s-4.474-9.992-9.992-9.992
			H67.16l51.914-95.919h4.018c0.007,0,0.014,0.001,0.021,0.001c0.007,0,0.014-0.001,0.021-0.001h94.38
			c0.007,0,0.014,0.001,0.021,0.001c0.007,0,0.014-0.001,0.021-0.001h76.892c0.007,0,0.014,0.001,0.021,0.001
			c0.007,0,0.014-0.001,0.021-0.001h94.38c0.007,0,0.014,0.001,0.021,0.001c0.007,0,0.014-0.001,0.021-0.001h4.018l51.914,95.919
			h-63.912c-5.517,0-9.992,4.473-9.992,9.992s4.474,9.992,9.992,9.992h80.661c0.01,0,0.02,0.002,0.029,0.002
			c0.011,0,0.021-0.002,0.032-0.002h40.359c0.693,0,1.054-0.022,1.156-0.072c4.973-0.574,8.836-4.793,8.836-9.92V52.282
			C512,23.573,488.644,0.218,459.935,0.218z M103.13,132.335c0,0.003,0,0.007,0,0.01v0.297c0,0.003,0,0.007,0,0.01v78.853
			l-42.747,78.98V60.599h42.747V132.335z M123.113,199.907v-43.137l21.569,21.569L123.113,199.907z M162.946,96.646l31.713,31.714
			l-35.848,35.848l-31.713-31.714L162.946,96.646z M155.158,60.599h15.572l-7.785,7.786L155.158,60.599z M256,95.28l33.08,33.08
			L256,161.44l-33.08-33.08L256,95.28z M249.58,60.6h12.84L256,67.019L249.58,60.6z M349.053,96.646l35.848,35.848l-31.713,31.714
			L317.34,128.36L349.053,96.646z M341.269,60.599h15.572l-7.786,7.786L341.269,60.599z M303.21,114.229l-33.08-33.08l20.551-20.551
			h22.326l21.916,21.916L303.21,114.229z M208.79,114.229l-31.713-31.714l21.916-21.916h22.326l20.551,20.551L208.79,114.229z
			 M123.113,108.217V60.599h3.786l21.916,21.916L123.113,108.217z M147.235,204.045l11.576-11.576l11.576,11.576H147.235z
			 M213.395,204.044h-14.746v0.001l-25.707-25.707l35.848-35.848l33.08,33.08L213.395,204.044z M241.656,204.045L256,189.701
			l14.344,14.344H241.656z M313.35,204.046h-14.746v-0.001l-28.474-28.474l33.08-33.08l35.848,35.848L313.35,204.046z
			 M341.612,204.045l11.576-11.576l11.576,11.576H341.612z M388.887,199.907l-21.569-21.569l21.569-21.569V199.907z
			 M388.887,108.218l-25.702-25.702L385.102,60.6h3.786V108.218z M451.617,290.486l-42.747-78.98v-78.853c0-0.003,0-0.007,0-0.01
			v-0.297c0-0.003,0-0.007,0-0.01V60.599h42.747V290.486z M492.016,319.947H471.6V50.607c0-5.518-4.474-9.992-9.992-9.992H50.391
			c-5.517,0-9.992,4.473-9.992,9.992v269.339H19.983V52.282c0-17.69,14.391-32.081,32.081-32.081h407.871
			c17.69,0,32.081,14.392,32.081,32.081V319.947z"/>
	</g>
</g>
<g>
	<g>
		<path d="M502.008,491.801H316.273c22.554-17.597,37.084-45.022,37.084-75.779c0-6.038-0.566-11.946-1.637-17.678
			c-0.02-0.11-0.039-0.219-0.063-0.327c-8.453-44.399-47.554-78.07-94.377-78.07c-46.828,0-85.932,33.678-94.379,78.085
			c-0.021,0.095-0.037,0.191-0.055,0.288c-1.073,5.74-1.642,11.656-1.642,17.703c0,30.757,14.53,58.182,37.084,75.779H9.992
			c-5.517,0-9.992,4.473-9.992,9.992c0,5.518,4.474,9.992,9.992,9.992h492.017c5.517,0,9.992-4.473,9.992-9.992
			C512,496.275,507.526,491.801,502.008,491.801z M267.27,340.606c28.486,3.755,52.056,23.307,61.571,49.556H295.86l-28.59-20.771
			V340.606z M283.988,406.238l-10.201,31.397h-33.014l-10.201-31.397l26.708-19.405L283.988,406.238z M247.288,340.606v28.785
			L218.7,390.162h-32.982C195.234,363.914,218.804,344.361,247.288,340.606z M181.187,416.022c0-1.979,0.1-3.935,0.25-5.877h29.393
			l11.95,36.78l-18.303,23.81C190.134,456.888,181.187,437.486,181.187,416.022z M264.007,491.8h-13.456v0.001
			c-10.806-0.952-20.97-4.163-30.014-9.172l19.226-25.011h35.919l18.497,24.919C285.096,487.597,274.877,490.843,264.007,491.8z
			 M292.04,446.127l11.691-35.981h29.392c0.149,1.942,0.25,3.898,0.25,5.877c-0.001,21.399-8.892,40.75-23.159,54.588
			L292.04,446.127z"/>
	</g>
</g>
<g>
	<g>
		<path d="M350.66,322.874c-1.858-1.858-4.436-2.928-7.064-2.928c-2.638,0-5.206,1.069-7.064,2.928
			c-1.868,1.858-2.928,4.436-2.928,7.064c0,2.628,1.059,5.206,2.928,7.064c1.858,1.858,4.427,2.928,7.064,2.928
			c2.628,0,5.196-1.07,7.064-2.928c1.857-1.858,2.928-4.436,2.928-7.064C353.587,327.31,352.518,324.733,350.66,322.874z"/>
	</g>
</g>
<g>
	<g>
		<path d="M175.467,322.874c-1.857-1.858-4.426-2.927-7.063-2.927c-2.628,0-5.206,1.069-7.064,2.927
			c-1.858,1.858-2.927,4.436-2.927,7.064c0,2.628,1.068,5.206,2.927,7.064c1.859,1.858,4.436,2.927,7.064,2.927
			c2.638,0,5.206-1.069,7.063-2.927c1.868-1.858,2.929-4.436,2.929-7.064C178.396,327.311,177.336,324.733,175.467,322.874z"/>
	</g>
</g>
<g>
</g>
<g>
</g>
<g>
</g>
<g>
</g>
<g>
</g>
<g>
</g>
<g>
</g>
<g>
</g>
<g>
</g>
<g>
</g>
<g>
</g>
<g>
</g>
<g>
</g>
<g>
</g>
<g>
</g>
</svg>
