<?xml version="1.0" encoding="iso-8859-1"?>
<!-- Generator: Adobe Illustrator 19.0.0, SVG Export Plug-In . SVG Version: 6.00 Build 0)  -->
<svg version="1.1" id="Capa_1" xmlns="http://www.w3.org/2000/svg" xmlns:xlink="http://www.w3.org/1999/xlink" x="0px" y="0px"
	 viewBox="0 0 512 512" style="enable-background:new 0 0 512 512;" xml:space="preserve">
<g>
	<g>
		<path d="M506.831,95.578l-171-94.333C334.352,0.428,332.69,0,331,0h-40c-5.523,0-10,4.477-10,10v305.075H92
			c-5.523,0-10,4.477-10,10s4.477,10,10,10h73.397c4.854,61.519,54.084,110.75,115.604,115.603V492H20V325.075
			c0-5.523-4.477-10-10-10s-10,4.477-10,10V502c0,5.523,4.477,10,10,10h281h40c5.523,0,10-4.477,10-10V26.937l140.297,77.396
			l-79.621,43.923c-4.836,2.667-6.594,8.75-3.926,13.586c2.668,4.836,8.752,6.595,13.586,3.926l95.493-52.679
			c3.189-1.759,5.17-5.113,5.17-8.756S510.021,97.337,506.831,95.578z M281,430.6c-50.483-4.746-90.779-45.042-95.525-95.525H281
			V430.6z M321,492h-20V325.075V208.667h20V492z M321,188.667h-20V20h20V188.667z"/>
	</g>
</g>
<g>
	<g>
		<path d="M378.331,169.39c-1.87-1.86-4.44-2.93-7.08-2.93c-2.63,0-5.21,1.07-7.07,2.93c-1.86,1.86-2.93,4.44-2.93,7.07
			s1.07,5.21,2.93,7.07c1.86,1.86,4.44,2.93,7.07,2.93c2.64,0,5.21-1.07,7.08-2.93c1.86-1.86,2.92-4.44,2.92-7.07
			S380.19,171.25,378.331,169.39z"/>
	</g>
</g>
<g>
	<g>
		<path d="M56.57,318c-1.86-1.86-4.44-2.92-7.07-2.92s-5.21,1.06-7.07,2.92c-1.86,1.87-2.93,4.44-2.93,7.08
			c0,2.63,1.07,5.2,2.93,7.07c1.86,1.86,4.44,2.93,7.07,2.93s5.21-1.07,7.07-2.93c1.86-1.87,2.93-4.44,2.93-7.07
			C59.5,322.44,58.43,319.86,56.57,318z"/>
	</g>
</g>
<g>
</g>
<g>
</g>
<g>
</g>
<g>
</g>
<g>
</g>
<g>
</g>
<g>
</g>
<g>
</g>
<g>
</g>
<g>
</g>
<g>
</g>
<g>
</g>
<g>
</g>
<g>
</g>
<g>
</g>
</svg>
