<?xml version="1.0" encoding="iso-8859-1"?>
<!-- Generator: Adobe Illustrator 19.0.0, SVG Export Plug-In . SVG Version: 6.00 Build 0)  -->
<svg version="1.1" id="Capa_1" xmlns="http://www.w3.org/2000/svg" xmlns:xlink="http://www.w3.org/1999/xlink" x="0px" y="0px"
	 viewBox="0 0 512 512" style="enable-background:new 0 0 512 512;" xml:space="preserve">
<g>
	<g>
		<path d="M161,281c-5.523,0-10,4.477-10,10s4.477,10,10,10c27.57,0,50,22.43,50,50s-22.43,50-50,50s-50-22.43-50-50
			c0-6.952,1.396-13.675,4.15-19.983c2.211-5.061-0.101-10.956-5.162-13.166c-5.063-2.211-10.957,0.101-13.166,5.163
			C92.959,331.862,91,341.277,91,351c0,38.598,31.402,70,70,70s70-31.402,70-70C231,312.402,199.598,281,161,281z"/>
	</g>
</g>
<g>
	<g>
		<path d="M509.072,56.929l-54-54c-3.252-3.252-8.305-3.867-12.243-1.488L306.353,83.9c-0.282,0.164-0.558,0.343-0.827,0.537
			c-3.979,2.868-5.29,8.199-3.097,12.585c0.504,1.008,1.169,1.912,1.958,2.684l10.097,10.097c3.025,3.024,3.025,7.945,0,10.97
			l-36.55,36.55c-1.465,1.465-3.413,2.272-5.485,2.272c-2.072,0-4.02-0.807-5.485-2.272l-28.474-28.474
			c-3.208-3.208-8.174-3.854-12.098-1.574L90.527,206.267c-6.963,3.404-13.647,7.295-20.004,11.63l-0.381,0.221
			c-0.57,0.331-1.091,0.713-1.569,1.131C27.133,248.408,0,296.593,0,351c0,33.384,10.216,64.426,27.682,90.168
			C11.836,444.894,0,459.138,0,476.104C0,495.897,16.103,512,35.896,512c16.966,0,31.211-11.836,34.936-27.682
			C96.575,501.785,127.616,512,161,512c88.776,0,161-72.224,161-161c0-46.33-19.984-90.445-54.827-121.033
			c-4.15-3.644-10.469-3.233-14.112,0.918c-3.644,4.15-3.232,10.469,0.918,14.112C284.497,271.789,302,310.426,302,351
			c0,77.748-63.252,141-141,141S20,428.748,20,351c0-48.139,24.255-90.714,61.181-116.165l18.846-10.957
			C118.49,214.987,139.174,210,161,210c8.264,0,16.543,0.719,24.609,2.138c5.439,0.958,10.625-2.677,11.581-8.116
			c0.957-5.439-2.677-10.625-8.116-11.581C179.868,190.822,170.423,190,161,190c-0.924,0-1.843,0.02-2.764,0.035l71.555-41.602
			l23.032,23.031c5.243,5.243,12.213,8.13,19.627,8.13c7.415,0,14.385-2.887,19.627-8.13l36.55-36.55
			c10.822-10.823,10.822-28.432,0-39.255l-1.154-1.154L446.467,22.61L487.858,64L343.429,208.429
			c-3.905,3.905-3.905,10.237,0,14.143c3.905,3.906,10.237,3.905,14.143,0l151.5-151.5
			C512.976,67.166,512.976,60.834,509.072,56.929z M51.792,476.104c0,8.765-7.131,15.896-15.896,15.896S20,484.869,20,476.104
			c0-8.765,7.131-15.896,15.896-15.896S51.792,467.339,51.792,476.104z"/>
	</g>
</g>
<g>
	<g>
		<path d="M252.071,64.429l-43-43c-3.905-3.905-10.237-3.905-14.143,0c-3.906,3.905-3.905,10.237,0,14.143l43.001,43
			c1.953,1.953,4.512,2.929,7.071,2.929s5.119-0.976,7.071-2.929C255.976,74.667,255.976,68.335,252.071,64.429z"/>
	</g>
</g>
<g>
	<g>
		<path d="M280.842,0c-5.523,0-10,4.477-10,10v45.971c0,5.523,4.477,10,10,10s10-4.477,10-10V10C290.842,4.477,286.365,0,280.842,0z
			"/>
	</g>
</g>
<g>
	<g>
		<path d="M230.638,96.175h-45.971c-5.523,0-10,4.477-10,10s4.477,10,10,10h45.971c5.523,0,10-4.477,10-10
			S236.161,96.175,230.638,96.175z"/>
	</g>
</g>
<g>
	<g>
		<path d="M325,230.562c-5.523,0-10,4.477-10,10v0.104c0,5.523,4.477,10,10,10s10-4.477,10-10v-0.104
			C335,235.039,330.523,230.562,325,230.562z"/>
	</g>
</g>
<g>
	<g>
		<path d="M134.94,293.9c-1.86-1.86-4.44-2.93-7.07-2.93s-5.21,1.07-7.07,2.93c-1.86,1.86-2.93,4.44-2.93,7.07s1.07,5.21,2.93,7.07
			c1.86,1.86,4.44,2.93,7.07,2.93s5.21-1.07,7.07-2.93s2.93-4.44,2.93-7.07S136.8,295.76,134.94,293.9z"/>
	</g>
</g>
<g>
</g>
<g>
</g>
<g>
</g>
<g>
</g>
<g>
</g>
<g>
</g>
<g>
</g>
<g>
</g>
<g>
</g>
<g>
</g>
<g>
</g>
<g>
</g>
<g>
</g>
<g>
</g>
<g>
</g>
</svg>
