<?xml version="1.0" encoding="iso-8859-1"?>
<!-- Generator: Adobe Illustrator 19.0.0, SVG Export Plug-In . SVG Version: 6.00 Build 0)  -->
<svg version="1.1" id="Capa_1" xmlns="http://www.w3.org/2000/svg" xmlns:xlink="http://www.w3.org/1999/xlink" x="0px" y="0px"
	 viewBox="0 0 512 512" style="enable-background:new 0 0 512 512;" xml:space="preserve">
<g>
	<g>
		<path d="M461.91,207.43c-1.86-1.86-4.43-2.93-7.07-2.93c-2.63,0-5.21,1.07-7.07,2.93s-2.93,4.44-2.93,7.07s1.07,5.21,2.93,7.07
			c1.87,1.86,4.44,2.93,7.07,2.93s5.21-1.07,7.07-2.93c1.87-1.86,2.93-4.44,2.93-7.07S463.78,209.29,461.91,207.43z"/>
	</g>
</g>
<g>
	<g>
		<path d="M454.843,175.75c5.523,0,10-4.477,10-10V10h-0.001c0-5.523-4.477-10-10-10H208.715c-5.523,0-10,4.477-10,10v97H57.156
			c-5.523,0-10,4.477-10,10v385c0,5.523,4.477,10,10,10h246.127c5.523,0,10-4.477,10-10v-97h141.56c5.523,0,10-4.477,10-10V262
			c0-5.523-4.477-10-10-10s-10,4.477-10,10v123h-131.56V117c0-5.523-4.477-10-10-10h-84.567V20h226.127v145.75
			C444.843,171.273,449.32,175.75,454.843,175.75z M293.283,127v267.99c0,0.003,0,0.006,0,0.01c0,0.004,0,0.006,0,0.01V492H67.156
			V127h20v87.5c0,5.523,4.477,10,10,10s10-4.477,10-10V127H293.283z"/>
	</g>
</g>
<g>
	<g>
		<path d="M104.229,241.93c-1.86-1.86-4.44-2.93-7.07-2.93c-2.63,0-5.21,1.07-7.08,2.93c-1.86,1.86-2.92,4.44-2.92,7.07
			s1.06,5.21,2.92,7.07c1.87,1.86,4.44,2.93,7.08,2.93c2.63,0,5.21-1.07,7.07-2.93c1.86-1.86,2.93-4.44,2.93-7.07
			S106.09,243.79,104.229,241.93z"/>
	</g>
</g>
<g>
</g>
<g>
</g>
<g>
</g>
<g>
</g>
<g>
</g>
<g>
</g>
<g>
</g>
<g>
</g>
<g>
</g>
<g>
</g>
<g>
</g>
<g>
</g>
<g>
</g>
<g>
</g>
<g>
</g>
</svg>
