<?xml version="1.0" encoding="iso-8859-1"?>
<!-- Generator: Adobe Illustrator 19.0.0, SVG Export Plug-In . SVG Version: 6.00 Build 0)  -->
<svg version="1.1" id="Capa_1" xmlns="http://www.w3.org/2000/svg" xmlns:xlink="http://www.w3.org/1999/xlink" x="0px" y="0px"
	 viewBox="0 0 512 512" style="enable-background:new 0 0 512 512;" xml:space="preserve">
<g>
	<g>
		<path d="M455.07,139.93c-1.86-1.86-4.44-2.93-7.07-2.93s-5.21,1.07-7.07,2.93c-1.86,1.86-2.93,4.44-2.93,7.07s1.07,5.21,2.93,7.07
			S445.37,157,448,157s5.21-1.07,7.07-2.93c1.86-1.86,2.93-4.44,2.93-7.07S456.93,141.79,455.07,139.93z"/>
	</g>
</g>
<g>
	<g>
		<path d="M448,114c5.523,0,10-4.477,10-10V10c0-5.523-4.477-10-10-10H64c-5.523,0-10,4.477-10,10v492c0,5.523,4.477,10,10,10h384
			c5.523,0,10-4.477,10-10V189.333c0-5.523-4.477-10-10-10s-10,4.477-10,10v56.793H332.024
			c-4.805-37.616-36.997-66.793-75.897-66.793c-38.9,0-71.092,29.178-75.897,66.793H74V20h47v77c0,5.523,4.477,10,10,10h66.163
			c11.616,21.564,34.077,35.168,58.964,35.168c24.888,0,47.349-13.604,58.964-35.168H381c5.523,0,10-4.477,10-10V20h47v84
			C438,109.523,442.477,114,448,114z M308.5,491.746h-105v-23.5h105V491.746z M371,491.746h-42.5v-33.5c0-5.523-4.477-10-10-10h-125
			c-5.523,0-10,4.477-10,10v33.5H141v-67h167.78c0.007,0,0.013,0.001,0.02,0.001c0.01,0,0.02-0.001,0.03-0.001H371V491.746z
			 M221.52,404.746c8.731-9.507,21.164-15.168,34.607-15.168c13.444,0,25.876,5.661,34.607,15.168H221.52z M256.127,199.333
			c27.851,0,51.047,20.248,55.681,46.793H200.445C205.08,219.582,228.276,199.333,256.127,199.333z M311.717,266.127
			c-4.84,26.295-27.917,46.286-55.591,46.286s-50.751-19.991-55.591-46.286H311.717z M180.294,266.127
			c5.029,37.37,37.107,66.286,75.833,66.286s70.804-28.915,75.833-66.286H438V492h-47v-77.254c0-5.523-4.477-10-10-10h-65.909
			c-11.615-21.564-34.077-35.168-58.964-35.168c-24.887,0-47.348,13.604-58.964,35.168H131c-5.523,0-10,4.477-10,10V492H74V266.127
			H180.294z M256.127,122.168c-13.443,0-25.876-5.661-34.607-15.168h69.214C282.003,116.507,269.571,122.168,256.127,122.168z
			 M371,87h-62.232c-0.02,0-0.041,0-0.061,0H141V20h42.5v33.754c0,5.523,4.477,10,10,10h30.167c5.523,0,10-4.477,10-10
			c0-5.523-4.477-10-10-10H203.5v-23.5h105v23.5h-20.167c-5.523,0-10,4.477-10,10c0,5.523,4.477,10,10,10H318.5
			c5.523,0,10-4.477,10-10V20H371V87z"/>
	</g>
</g>
<g>
	<g>
		<path d="M263.07,46.68c-1.86-1.86-4.44-2.93-7.07-2.93s-5.21,1.07-7.07,2.93S246,51.12,246,53.75c0,2.64,1.07,5.21,2.93,7.08
			c1.86,1.86,4.44,2.92,7.07,2.92s5.21-1.06,7.07-2.92c1.86-1.87,2.93-4.44,2.93-7.08C266,51.12,264.93,48.54,263.07,46.68z"/>
	</g>
</g>
<g>
</g>
<g>
</g>
<g>
</g>
<g>
</g>
<g>
</g>
<g>
</g>
<g>
</g>
<g>
</g>
<g>
</g>
<g>
</g>
<g>
</g>
<g>
</g>
<g>
</g>
<g>
</g>
<g>
</g>
</svg>
