<?xml version="1.0" encoding="iso-8859-1"?>
<!-- Generator: Adobe Illustrator 19.0.0, SVG Export Plug-In . SVG Version: 6.00 Build 0)  -->
<svg version="1.1" id="Capa_1" xmlns="http://www.w3.org/2000/svg" xmlns:xlink="http://www.w3.org/1999/xlink" x="0px" y="0px"
	 viewBox="0 0 512 512" style="enable-background:new 0 0 512 512;" xml:space="preserve">
<g>
	<g>
		<path d="M502.004,341.789h-51.288c-5.519,0-9.995,4.476-9.995,9.995c0,5.519,4.476,9.995,9.995,9.995h51.288
			c5.519,0,9.995-4.476,9.995-9.995C511.999,346.265,507.523,341.789,502.004,341.789z"/>
	</g>
</g>
<g>
	<g>
		<path d="M502.005,491.921H345.96V362.388c30.008-1.299,54.02-26.119,54.02-56.442v-53.878c0.085-0.524,0.141-1.057,0.141-1.604
			c0-0.547-0.056-1.081-0.141-1.604V142.092c0-35.297-28.717-64.015-64.015-64.015c-0.997,0-1.96,0.151-2.87,0.423
			c0.007-0.43,0.033-0.855,0.033-1.285c0-5.618-0.62-11.093-1.766-16.373c-0.073-0.421-0.163-0.837-0.286-1.237
			c-7.963-33.949-38.396-59.333-74.698-59.508c-0.064-0.001-0.126-0.01-0.19-0.01c-0.021,0-0.042,0.003-0.063,0.003
			c-0.042,0-0.083-0.003-0.125-0.003c-36.483,0-67.109,25.469-75.085,59.556c-0.117,0.386-0.205,0.784-0.275,1.187
			c-1.148,5.284-1.769,10.763-1.769,16.386c0,0.433,0.026,0.859,0.033,1.289c-0.914-0.275-1.88-0.427-2.883-0.427
			c-35.297,0-64.015,28.717-64.015,64.015v108.37v55.484c0,30.323,24.012,55.143,54.021,56.442v129.535H10.249
			c-5.519,0-9.995,4.476-9.995,9.995s4.476,9.995,9.995,9.995h491.756c5.519,0,9.995-4.476,9.995-9.995
			S507.524,491.921,502.005,491.921z M345.96,99.21c19.475,4.54,34.03,22.043,34.03,42.882v98.375h-34.03V99.21z M312.932,72.545
			c0.126,1.542,0.207,3.095,0.207,4.669c0,13.457-4.688,25.834-12.501,35.608l-10.929-10.929l9.535-29.348H312.932z M266.183,21.002
			c18.268,3.301,33.546,15.299,41.354,31.553H295.23l-29.047-21.105V21.002z M256.188,48.897l24.045,17.47l-9.183,28.267h-29.721
			l-9.183-28.267L256.188,48.897z M285.61,126.066c-8.641,5.256-18.779,8.287-29.61,8.287c-10.735,0-20.783-2.979-29.372-8.149
			l11.578-11.579h35.964L285.61,126.066z M246.193,20.934v10.517l-29.047,21.105h-12.684
			C212.325,36.19,227.759,24.138,246.193,20.934z M199.068,72.546h14.064l9.535,29.347l-11.14,11.139
			c-7.914-9.806-12.666-22.265-12.666-35.818C198.861,75.64,198.942,74.087,199.068,72.546z M256,154.342
			c19.476,0,37.276-7.271,50.866-19.222c0.361-0.274,0.712-0.564,1.042-0.894c0.036-0.036,0.066-0.075,0.101-0.112
			c7.498-6.86,13.628-15.182,17.962-24.506V250.46l-0.001,16.729c-5.875,1.566-11.786,2.93-17.722,4.096
			c0.997-2.646,1.743-5.429,2.19-8.332l7.524-48.8c1.819-11.808-1.598-23.783-9.376-32.852c-7.777-9.068-19.092-14.27-31.04-14.27
			H234.44c-11.948,0-23.261,5.201-31.041,14.271c-7.777,9.069-11.194,21.044-9.373,32.851l7.522,48.8
			c0.448,2.903,1.194,5.686,2.19,8.332c-5.936-1.165-11.847-2.529-17.722-4.095v-15.13c0.084-0.522,0.14-1.052,0.14-1.598
			c0-0.546-0.056-1.076-0.14-1.598l-0.001-139.285C198.276,135.981,225.026,154.342,256,154.342z M298.205,211.11l-7.523,48.8
			c-1.06,6.876-5.317,12.475-11.128,15.432c-15.68,1.369-31.439,1.369-47.12-0.001c-5.811-2.957-10.068-8.556-11.128-15.431
			l-7.522-48.8c-0.931-6.036,0.816-12.156,4.792-16.793c3.977-4.636,9.759-7.294,15.866-7.294h43.106
			c6.107,0,11.89,2.659,15.866,7.294S299.136,205.074,298.205,211.11z M131.995,142.091c0.001-20.838,14.555-38.341,34.031-42.881
			v141.256h-34.031V142.091z M335.966,342.451c-5.519,0-9.995,4.476-9.995,9.995v139.476H186.017V352.447
			c0-5.52-4.475-9.995-9.995-9.995h-7.519c-20.13,0-36.506-16.377-36.506-36.505v-45.488h34.031v14.304
			c0,4.428,2.914,8.328,7.158,9.584c17.776,5.26,35.885,8.783,54.109,10.591c4.561,1.733,9.506,2.678,14.67,2.678h28.058
			c5.163,0,10.11-0.945,14.67-2.678c18.224-1.808,36.333-5.33,54.109-10.591c4.245-1.256,7.158-5.156,7.158-9.584v-14.305h34.03
			v45.488c0,20.129-16.377,36.505-36.506,36.505H335.966z"/>
	</g>
</g>
<g>
	<g>
		<path d="M421.3,344.718c-1.858-1.859-4.437-2.93-7.065-2.93c-2.629,0-5.207,1.069-7.067,2.93
			c-1.859,1.858-2.929,4.437-2.929,7.065c0,2.629,1.068,5.207,2.929,7.066c1.86,1.859,4.439,2.929,7.067,2.929
			c2.629,0,5.207-1.068,7.065-2.929c1.859-1.859,2.93-4.438,2.93-7.066C424.229,349.154,423.16,346.576,421.3,344.718z"/>
	</g>
</g>
<g>
	<g>
		<path d="M61.283,341.789H9.995c-5.519,0-9.995,4.476-9.995,9.995c0,5.519,4.476,9.995,9.995,9.995h51.288
			c5.519,0,9.995-4.476,9.995-9.995C71.278,346.265,66.802,341.789,61.283,341.789z"/>
	</g>
</g>
<g>
	<g>
		<path d="M104.828,344.718c-1.858-1.859-4.437-2.93-7.065-2.93c-2.629,0-5.207,1.069-7.067,2.93
			c-1.859,1.858-2.929,4.437-2.929,7.065c0,2.629,1.068,5.207,2.929,7.066c1.86,1.859,4.438,2.929,7.067,2.929
			c2.629,0,5.207-1.068,7.065-2.929c1.869-1.859,2.93-4.438,2.93-7.066C107.758,349.154,106.697,346.576,104.828,344.718z"/>
	</g>
</g>
<g>
	<g>
		<path d="M288.165,346.433c-1.833-2.892-5.018-4.644-8.441-4.644h-51.051c-5.519,0-9.995,4.476-9.995,9.995
			c0,5.519,4.476,9.995,9.995,9.995h35.286l-32.241,68.358c-2.355,4.994-0.216,10.95,4.777,13.304
			c1.377,0.649,2.829,0.956,4.257,0.956c3.748,0,7.342-2.119,9.048-5.734l38.966-82.616
			C290.225,352.951,289.998,349.324,288.165,346.433z"/>
	</g>
</g>
<g>
</g>
<g>
</g>
<g>
</g>
<g>
</g>
<g>
</g>
<g>
</g>
<g>
</g>
<g>
</g>
<g>
</g>
<g>
</g>
<g>
</g>
<g>
</g>
<g>
</g>
<g>
</g>
<g>
</g>
</svg>
