<?xml version="1.0" encoding="iso-8859-1"?>
<!-- Generator: Adobe Illustrator 19.0.0, SVG Export Plug-In . SVG Version: 6.00 Build 0)  -->
<svg version="1.1" id="Capa_1" xmlns="http://www.w3.org/2000/svg" xmlns:xlink="http://www.w3.org/1999/xlink" x="0px" y="0px"
	 viewBox="0 0 511.999 511.999" style="enable-background:new 0 0 511.999 511.999;" xml:space="preserve">
<g>
	<g>
		<path d="M482.164,265.109h-17.308l-22.613-64.67c-0.002-0.006-0.003-0.011-0.005-0.017L379.41,20.746
			C375.002,8.144,363.529,0,350.177,0c-13.351,0-24.825,8.144-29.247,20.791l-56.865,165.112
			c-16.665-9.852-35.09-17.024-54.685-20.917c-0.208-0.045-0.416-0.089-0.627-0.121c-10.868-2.117-22.087-3.239-33.565-3.239
			c-11.476,0-22.693,1.122-33.56,3.238c-0.225,0.034-0.447,0.08-0.669,0.128c-49.252,9.795-91.129,40.301-116.14,82.027
			c-0.457,0.607-0.849,1.261-1.158,1.958c-11.761,20.21-19.589,42.974-22.443,67.24c-0.009,0.077-0.019,0.155-0.027,0.232
			c-0.777,6.683-1.19,13.476-1.19,20.363c0,45.481,17.426,86.966,45.946,118.14c0.487,0.671,1.052,1.284,1.692,1.817
			c18.552,19.715,41.604,35.149,67.505,44.627c0.409,0.175,0.826,0.323,1.252,0.442c18.386,6.569,38.176,10.159,58.791,10.159
			c22.983,0,44.942-4.457,65.07-12.539c0.512-0.165,1.011-0.365,1.492-0.611c24.701-10.185,46.579-25.856,64.112-45.492
			c0.606-0.537,1.144-1.143,1.603-1.806c20.755-23.895,35.146-53.452,40.54-86.006h53.683c5.523,0,10-4.478,10-10
			s-4.477-10.001-10-10.001h-51.532c0.143-2.893,0.218-5.803,0.218-8.73c0-6.58-0.377-13.074-1.087-19.467
			c-0.006-0.061-0.014-0.121-0.021-0.181c-1.236-11.023-3.489-21.741-6.681-32.054h115.098c0.025,0,0.05,0.003,0.075,0.003
			c0.023,0,0.047-0.003,0.07-0.003h24.334c5.422,0,9.833,4.411,9.833,9.833v50.601h-13.639c-5.523,0-10,4.478-10,10
			s4.477,10.001,10,10.001h23.639c5.523,0,10-4.478,10-10.001v-60.601C511.999,278.493,498.615,265.109,482.164,265.109z
			 M339.826,27.348c2.384-6.817,8.525-7.347,10.352-7.347c1.826,0,7.968,0.53,10.353,7.347l30.051,85.94h-80.352L339.826,27.348z
			 M295.496,238.906l-44.616-8.564l-22.731-39.403C254.73,200.619,277.939,217.371,295.496,238.906z M311.279,262.3
			c8.782,15.977,14.828,33.659,17.514,52.412l-44.76,45.15l-49.297-11.067l-16.488-50.744l30.975-47.662L311.279,262.3z
			 M149.446,183.774c8.375-1.404,16.973-2.147,25.741-2.147c8.767,0,17.363,0.742,25.736,2.146l31.854,55.216l-30.943,47.615H148.54
			l-30.943-47.616L149.446,183.774z M215.229,353.486l-19.939,14.487l-19.939,14.487l-39.878-28.974l15.232-46.88h49.292v0
			L215.229,353.486z M122.225,190.94l-22.715,39.381l-44.435,8.346C72.607,217.247,95.742,200.584,122.225,190.94z M39.274,261.984
			l61.863-11.62l30.99,47.688l-16.488,50.743L66.4,359.85l-44.708-45.911C24.45,295.349,30.518,277.826,39.274,261.984z
			 M46.883,424.009c-16.233-23.808-26.02-52.344-26.825-83.079l32.596,33.472L46.883,424.009z M64.52,445.485l7.729-66.448
			l42.867-9.625l6.052-1.359l43.855,31.863v47.072l-47.366,33.949C97.528,472.874,79.473,460.709,64.52,445.485z M175.187,491.997
			c-11.509,0.002-22.724-1.268-33.526-3.657l33.95-24.333l37.911,23.195C201.257,490.33,188.413,491.997,175.187,491.997z
			 M237.975,478.715l-52.623-32.196v-46.604l32.285-23.456l11.571-8.406l49.229,11.053l10.161,63.516
			C274.41,457.816,257.219,470.167,237.975,478.715z M305.413,421.122l-7.495-46.855l32.376-32.658
			C329.4,370.853,320.379,398.086,305.413,421.122z M336.534,265.109c-0.498,0-0.984,0.048-1.462,0.119
			c-2.472-5.497-5.218-10.843-8.221-16.023c-0.289-0.631-0.644-1.227-1.056-1.784c-11.54-19.369-26.706-36.333-44.558-49.952
			l22.104-64.181h94.235l21.132,60.434h-41.185c-5.523,0-10,4.478-10,10s4.477,10,10,10h48.179l17.968,51.386H336.534z"/>
	</g>
</g>
<g>
	<g>
		<path d="M444.764,348.471c-1.86-1.859-4.44-2.93-7.07-2.93c-2.63,0-5.21,1.07-7.07,2.93c-1.87,1.86-2.93,4.44-2.93,7.07
			c0,2.64,1.06,5.21,2.93,7.07c1.86,1.859,4.44,2.93,7.07,2.93c2.63,0,5.21-1.07,7.07-2.93c1.86-1.86,2.93-4.431,2.93-7.07
			C447.694,352.911,446.624,350.331,444.764,348.471z"/>
	</g>
</g>
<g>
	<g>
		<path d="M342.589,196.654c-1.86-1.86-4.44-2.93-7.07-2.93c-2.63,0-5.21,1.069-7.07,2.93c-1.86,1.86-2.93,4.439-2.93,7.07
			c0,2.63,1.07,5.21,2.93,7.069c1.86,1.86,4.44,2.931,7.07,2.931c2.63,0,5.21-1.07,7.07-2.931c1.86-1.859,2.93-4.439,2.93-7.069
			C345.519,201.093,344.449,198.514,342.589,196.654z"/>
	</g>
</g>
<g>
</g>
<g>
</g>
<g>
</g>
<g>
</g>
<g>
</g>
<g>
</g>
<g>
</g>
<g>
</g>
<g>
</g>
<g>
</g>
<g>
</g>
<g>
</g>
<g>
</g>
<g>
</g>
<g>
</g>
</svg>
