<?xml version="1.0" encoding="iso-8859-1"?>
<!-- Generator: Adobe Illustrator 19.0.0, SVG Export Plug-In . SVG Version: 6.00 Build 0)  -->
<svg version="1.1" id="Capa_1" xmlns="http://www.w3.org/2000/svg" xmlns:xlink="http://www.w3.org/1999/xlink" x="0px" y="0px"
	 viewBox="0 0 512 512" style="enable-background:new 0 0 512 512;" xml:space="preserve">
<g>
	<g>
		<path d="M502,130H173.667c-5.523,0-10,4.478-10,10c0,5.522,4.477,10,10,10H492v212h-65.155c-5.523,0-10,4.478-10,10
			c0,5.522,4.477,10,10,10H502c5.523,0,10-4.478,10-10V140C512,134.478,507.523,130,502,130z"/>
	</g>
</g>
<g>
	<g>
		<path d="M391.07,364.93c-1.86-1.861-4.44-2.93-7.07-2.93s-5.21,1.07-7.07,2.93S374,369.37,374,372s1.07,5.21,2.93,7.069
			c1.86,1.861,4.44,2.931,7.07,2.931s5.21-1.07,7.07-2.931c1.86-1.859,2.93-4.439,2.93-7.069S392.93,366.791,391.07,364.93z"/>
	</g>
</g>
<g>
	<g>
		<path d="M341.833,362H20V150h77.667c5.523,0,10-4.478,10-10c0-5.522-4.477-10-10-10H10c-5.523,0-10,4.478-10,10v232
			c0,5.522,4.477,10,10,10h331.833c5.523,0,10-4.478,10-10C351.833,366.478,347.356,362,341.833,362z"/>
	</g>
</g>
<g>
	<g>
		<path d="M125.437,196.755c0-5.522-4.477-10-10-10H54.021c-5.523,0-10,4.478-10,10v60.269c0,5.522,4.477,10,10,10h51.416v40.413
			H54.021c-5.523,0-10,4.478-10,10c0,5.522,4.477,10,10,10h61.416c5.523,0,10-4.478,10-10v-60.268c0-0.024-0.003-0.048-0.004-0.073
			c0-0.024,0.004-0.048,0.004-0.073V196.755z M105.437,247.024H64.021v-40.269h41.416V247.024z"/>
	</g>
</g>
<g>
	<g>
		<path d="M222.176,186.828H160.76c-5.523,0-10,4.478-10,10V317.51c0,5.522,4.477,10,10,10h61.416c5.523,0,10-4.478,10-10V196.828
			C232.176,191.306,227.699,186.828,222.176,186.828z M212.176,307.51H170.76V206.828h41.416V307.51z"/>
	</g>
</g>
<g>
	<g>
		<path d="M457.552,186.683h-61.416c-5.523,0-10,4.478-10,10v120.681c0,5.522,4.477,10,10,10h61.416c5.523,0,10-4.477,10-9.999
			V196.683C467.552,191.161,463.075,186.683,457.552,186.683z M447.553,307.364h-41.416h0V206.683h41.416V307.364z"/>
	</g>
</g>
<g>
	<g>
		<path d="M350.812,186.683h-61.416c-5.523,0-10,4.478-10,10v120.681c0,5.522,4.477,10,10,10h61.416c5.523,0,10-4.477,10-9.999
			V196.683C360.812,191.161,356.335,186.683,350.812,186.683z M340.812,307.364h-41.416V206.683h41.416V307.364z"/>
	</g>
</g>
<g>
	<g>
		<path d="M264.1,224.93c-1.87-1.861-4.44-2.93-7.08-2.93c-2.63,0-5.2,1.07-7.07,2.93c-1.86,1.86-2.93,4.44-2.93,7.07
			s1.07,5.21,2.93,7.069c1.87,1.861,4.44,2.931,7.07,2.931c2.64,0,5.21-1.07,7.08-2.931c1.86-1.859,2.92-4.439,2.92-7.069
			S265.96,226.79,264.1,224.93z"/>
	</g>
</g>
<g>
	<g>
		<path d="M264.1,272.93c-1.87-1.861-4.44-2.93-7.08-2.93c-2.63,0-5.2,1.07-7.07,2.93c-1.86,1.86-2.93,4.44-2.93,7.07
			s1.07,5.21,2.93,7.069c1.87,1.861,4.44,2.931,7.07,2.931s5.21-1.07,7.08-2.931c1.86-1.859,2.92-4.439,2.92-7.069
			S265.96,274.79,264.1,272.93z"/>
	</g>
</g>
<g>
	<g>
		<path d="M142.07,132.93c-1.86-1.861-4.44-2.93-7.07-2.93s-5.21,1.07-7.07,2.93S125,137.37,125,140s1.07,5.21,2.93,7.069
			c1.86,1.861,4.44,2.931,7.07,2.931s5.21-1.07,7.07-2.931c1.86-1.859,2.93-4.439,2.93-7.069S143.93,134.791,142.07,132.93z"/>
	</g>
</g>
<g>
</g>
<g>
</g>
<g>
</g>
<g>
</g>
<g>
</g>
<g>
</g>
<g>
</g>
<g>
</g>
<g>
</g>
<g>
</g>
<g>
</g>
<g>
</g>
<g>
</g>
<g>
</g>
<g>
</g>
</svg>
