<?xml version="1.0" encoding="iso-8859-1"?>
<!-- Generator: Adobe Illustrator 19.0.0, SVG Export Plug-In . SVG Version: 6.00 Build 0)  -->
<svg version="1.1" id="Capa_1" xmlns="http://www.w3.org/2000/svg" xmlns:xlink="http://www.w3.org/1999/xlink" x="0px" y="0px"
	 viewBox="0 0 511.999 511.999" style="enable-background:new 0 0 511.999 511.999;" xml:space="preserve">
<g>
	<g>
		<path d="M509.02,289.104c-1.859-1.859-4.438-2.929-7.068-2.929c-2.63,0-5.209,1.07-7.069,2.929
			c-1.86,1.86-2.929,4.439-2.929,7.069s1.069,5.209,2.929,7.069c1.86,1.859,4.439,2.929,7.069,2.929c2.629,0,5.209-1.07,7.068-2.929
			c1.86-1.86,2.93-4.439,2.93-7.069S510.881,290.963,509.02,289.104z"/>
	</g>
</g>
<g>
	<g>
		<path d="M444.963,246.122H324.986c-5.521,0-9.998,4.477-9.998,9.998v54.823c0,5.521,4.477,9.998,9.998,9.998h119.977
			c5.521,0,9.998-4.477,9.998-9.998V256.12C454.961,250.599,450.484,246.122,444.963,246.122z M434.965,300.944h-99.981v-34.826
			h99.981V300.944z"/>
	</g>
</g>
<g>
	<g>
		<path d="M444.963,334.938c-19.295,0-34.993,15.698-34.993,34.993c0,19.295,15.698,34.993,34.993,34.993
			c19.295,0,34.993-15.698,34.993-34.993C479.957,350.636,464.259,334.938,444.963,334.938z M444.963,384.928
			c-8.269,0-14.997-6.728-14.997-14.997s6.728-14.997,14.997-14.997c8.269,0,14.997,6.728,14.997,14.997
			S453.233,384.928,444.963,384.928z"/>
	</g>
</g>
<g>
	<g>
		<path d="M444.963,414.019c-19.295,0-34.993,15.698-34.993,34.993c0,19.295,15.698,34.993,34.993,34.993
			c19.295,0,34.993-15.698,34.993-34.993C479.957,429.717,464.259,414.019,444.963,414.019z M444.963,464.009
			c-8.269,0-14.997-6.728-14.997-14.997s6.728-14.997,14.997-14.997c8.269,0,14.997,6.728,14.997,14.997
			S453.233,464.009,444.963,464.009z"/>
	</g>
</g>
<g>
	<g>
		<path d="M324.986,334.938c-19.295,0-34.993,15.698-34.993,34.993c0,19.295,15.698,34.993,34.993,34.993
			c19.295,0,34.993-15.698,34.993-34.993C359.98,350.636,344.282,334.938,324.986,334.938z M324.986,384.928
			c-8.269,0-14.997-6.728-14.997-14.997s6.728-14.997,14.997-14.997s14.997,6.728,14.997,14.997S333.256,384.928,324.986,384.928z"
			/>
	</g>
</g>
<g>
	<g>
		<path d="M324.986,414.019c-19.295,0-34.993,15.698-34.993,34.993c0,19.295,15.698,34.993,34.993,34.993
			c19.295,0,34.993-15.698,34.993-34.993C359.98,429.717,344.282,414.019,324.986,414.019z M324.986,464.009
			c-8.269,0-14.997-6.728-14.997-14.997s6.728-14.997,14.997-14.997s14.997,6.728,14.997,14.997S333.256,464.009,324.986,464.009z"
			/>
	</g>
</g>
<g>
	<g>
		<path d="M501.952,186.466c5.521,0,9.998-4.477,9.998-9.998V10c0-5.521-4.477-9.998-9.998-9.998H378.309
			c-5.521,0-9.998,4.477-9.998,9.998c0,5.521,4.477,9.998,9.998,9.998h113.645V166.47h-86.983h-39.992h-86.983V19.998h14.33
			c5.521,0,9.998-4.477,9.998-9.998c0-5.521-4.477-9.998-9.998-9.998h-24.328c-5.521,0-9.998,4.477-9.998,9.998v166.468
			c0,5.521,4.477,9.998,9.998,9.998h86.983v19.996h-86.983c-5.521,0-9.998,4.477-9.998,9.998v28.483h-22.252
			c-5.097,0-9.242-4.145-9.242-9.242c0-14.469-10.568-26.511-24.389-28.828c2.906-5.324,4.56-11.425,4.56-17.907v-44.833
			c0-27.565-22.426-49.99-49.99-49.99h-27.8c15.25-8.634,25.572-25,25.572-43.742c0-27.703-22.538-50.24-50.24-50.24
			s-50.24,22.538-50.24,50.24c0,18.741,10.322,35.107,25.572,43.742h-29.51c-27.565,0-49.99,22.426-49.99,49.99v44.833
			c0,20.674,16.819,37.493,37.493,37.493h2.5v229.339c-11.842,5.917-19.996,18.154-19.996,32.266v13.937
			c0,5.521,4.477,9.998,9.998,9.998h146.639c5.521,0,9.998-4.477,9.998-9.998v-13.937c0-14.112-8.154-26.35-19.996-32.266V226.459
			h2.5h28.084c5.097,0,9.242,4.145,9.242,9.242c0,16.122,13.117,29.238,29.238,29.238h22.252v236.967
			c0,5.521,4.477,9.998,9.998,9.998h233.955c5.521,0,9.998-4.477,9.998-9.998V330.244c0-5.521-4.477-9.998-9.998-9.998
			s-9.998,4.477-9.998,9.998v161.664H277.995V226.459h213.959v32.139c0,5.521,4.477,9.998,9.998,9.998s9.998-4.477,9.998-9.998
			v-42.137c0-5.521-4.477-9.998-9.998-9.998h-86.983v-19.996H501.952z M73.973,50.4c0-16.677,13.568-30.244,30.244-30.244
			c16.677,0,30.244,13.567,30.244,30.244c0,16.677-13.567,30.244-30.244,30.244C87.541,80.645,73.973,67.077,73.973,50.4z
			 M60.037,114.138h86.65v44.833h-22.474H84.221H60.037V114.138z M146.687,226.459v18.484h-86.65v-18.484H146.687z M94.22,206.462
			v-27.495h19.996v27.495H94.22z M37.541,206.462c-9.648,0-17.497-7.849-17.497-17.497v-44.833c0-13.034,8.357-24.154,19.996-28.281
			v53.118c0,5.521,4.477,9.998,9.998,9.998h24.184v27.495H50.039H37.541z M93.364,492.003H40.041v-3.939
			c0-8.853,7.203-16.057,16.057-16.057h37.266V492.003z M93.364,452.011H60.037v-33.423h33.327V452.011z M93.364,398.593H60.037
			v-42.834h33.327V398.593z M103.362,290.352c-5.521,0-9.998,4.477-9.998,9.998v35.412H60.037v-70.823h86.65v70.823H113.36V300.35
			C113.36,294.83,108.883,290.352,103.362,290.352z M113.36,398.593v-42.834h33.328v42.834H113.36z M146.687,418.589v33.423H113.36
			v-33.423H146.687z M166.684,492.004H113.36v-19.996h37.267c8.853,0,16.057,7.203,16.057,16.057V492.004z M186.68,188.966
			c0,9.647-7.85,17.497-17.497,17.497h-12.498h-22.474v-27.495h22.474c5.521,0,9.998-4.477,9.998-9.998v-53.118
			c11.639,4.126,19.996,15.246,19.996,28.281V188.966z M394.973,206.462h-19.996v-19.996h19.996V206.462z"/>
	</g>
</g>
<g>
	<g>
		<path d="M342.052,2.929C340.193,1.07,337.614,0,334.984,0c-2.629,0-5.209,1.069-7.069,2.929c-1.86,1.861-2.929,4.438-2.929,7.069
			c0,2.629,1.069,5.209,2.929,7.068c1.86,1.861,4.439,2.93,7.069,2.93c2.63,0,5.209-1.07,7.068-2.93
			c1.86-1.859,2.93-4.438,2.93-7.068C344.983,7.368,343.913,4.789,342.052,2.929z"/>
	</g>
</g>
<g>
	<g>
		<path d="M471.49,116.396L460.27,98.057c-1.929-3.15-5.433-4.975-9.122-4.763c-3.687,0.22-6.953,2.454-8.493,5.811l-5.741,12.511
			h-5.091l-20.053-55.348c-1.4-3.862-5.02-6.477-9.126-6.589c-0.092-0.003-0.184-0.004-0.276-0.004
			c-3.997,0-7.624,2.387-9.197,6.081l-23.784,55.86h-7.642l-10.326-37.639c-1.137-4.144-4.793-7.098-9.082-7.338
			c-4.317-0.247-8.254,2.287-9.846,6.277l-15.441,38.699h-10.057c-5.523,0.001-9.999,4.477-9.999,9.999
			c0,5.521,4.477,9.998,9.998,9.998h16.832c4.091,0,7.77-2.493,9.286-6.293l6.909-17.314l4.459,16.254
			c1.191,4.343,5.139,7.353,9.642,7.353h21.876c4.008,0,7.629-2.395,9.199-6.081l16.425-38.577l13.791,38.065
			c1.435,3.957,5.192,6.593,9.4,6.593h18.514c3.907,0,7.457-2.276,9.087-5.828l0.592-1.289l1.43,2.337
			c1.887,3.082,5.172,4.782,8.538,4.781c1.778,0,3.58-0.475,5.208-1.471C472.889,127.26,474.371,121.106,471.49,116.396z"/>
	</g>
</g>
<g>
</g>
<g>
</g>
<g>
</g>
<g>
</g>
<g>
</g>
<g>
</g>
<g>
</g>
<g>
</g>
<g>
</g>
<g>
</g>
<g>
</g>
<g>
</g>
<g>
</g>
<g>
</g>
<g>
</g>
</svg>
