<?xml version="1.0" encoding="iso-8859-1"?>
<!-- Generator: Adobe Illustrator 19.0.0, SVG Export Plug-In . SVG Version: 6.00 Build 0)  -->
<svg version="1.1" id="Capa_1" xmlns="http://www.w3.org/2000/svg" xmlns:xlink="http://www.w3.org/1999/xlink" x="0px" y="0px"
	 viewBox="0 0 512.002 512.002" style="enable-background:new 0 0 512.002 512.002;" xml:space="preserve">
<g>
	<g>
		<path d="M508.629,323.098l-45.978-40.69c1.15-8.741,1.732-17.6,1.732-26.404c0-8.804-0.582-17.663-1.732-26.404l45.978-40.69
			c3.588-3.174,4.42-8.446,1.984-12.571l-57.158-96.827c-2.368-4.012-7.193-5.86-11.63-4.45l-59.103,18.711
			c-14.426-10.857-30.16-19.776-46.903-26.59l-12.97-59.315c-1.004-4.592-5.07-7.864-9.77-7.864h-17.078c-5.522,0-10,4.478-10,10
			c0,5.522,4.478,10,10,10h9.028l12.393,56.675c0.724,3.31,3.073,6.027,6.243,7.222c18.387,6.93,35.502,16.626,50.869,28.82
			c2.604,2.065,6.063,2.704,9.234,1.699l56.507-17.891l48.92,82.871l-43.846,38.804c-2.563,2.268-3.788,5.688-3.248,9.067
			c1.514,9.467,2.281,19.134,2.281,28.732c0,9.598-0.768,19.266-2.281,28.732c-0.54,3.38,0.686,6.8,3.248,9.067l43.846,38.804
			l-48.92,82.871l-23.969-7.589l13.861-23.481c2.808-4.756,1.229-10.887-3.527-13.694c-4.757-2.808-10.888-1.228-13.695,3.527
			l-16.206,27.453l-8.9-2.818c-5.611-1.776-11.741-0.726-16.398,2.813c-14.564,11.071-30.638,19.959-47.775,26.417
			c-3.17,1.194-5.52,3.912-6.243,7.222l-12.393,56.675h-98.057L195.4,439.074c-1.218-5.571-5.092-10.149-10.359-12.246
			c-16.128-6.424-31.287-15.03-45.058-25.581c-4.268-3.27-9.856-4.26-14.952-2.646l-53.305,16.876l-48.919-82.871l41.45-36.685
			c4.013-3.548,5.952-8.85,5.189-14.18c-1.213-8.488-1.827-17.148-1.827-25.739c0-8.543,0.608-17.158,1.808-25.604
			c0.771-5.42-1.233-10.834-5.356-14.48l-41.264-36.52l48.92-82.871l56.507,17.891c3.17,1.005,6.632,0.366,9.234-1.699
			c15.367-12.194,32.482-21.891,50.869-28.82c3.17-1.194,5.52-3.912,6.243-7.222l12.393-56.675h7.528c5.522,0,10-4.478,10-10
			c0-5.522-4.478-10-10-10h-15.578c-4.699,0-8.766,3.272-9.77,7.864l-12.97,59.315c-16.743,6.813-32.478,15.732-46.903,26.59
			L70.178,75.06c-4.443-1.41-9.264,0.438-11.63,4.45L1.39,176.338c-2.436,4.124-1.604,9.396,1.983,12.571l45.978,40.69
			c-1.149,8.729-1.731,17.601-1.731,26.404c0,8.805,0.582,17.676,1.731,26.404l-45.978,40.69c-3.587,3.175-4.419,8.447-1.983,12.571
			l57.158,96.827c2.367,4.011,7.19,5.858,11.63,4.45l59.104-18.712c14.417,10.846,30.178,19.781,46.902,26.589l12.97,59.315
			c1.004,4.592,5.07,7.864,9.77,7.864H313.08c4.699,0,8.766-3.272,9.77-7.864l12.97-59.315
			c16.724-6.806,32.475-15.733,46.902-26.589l59.104,18.712c4.44,1.408,9.263-0.439,11.63-4.45l57.158-96.827
			C513.048,331.545,512.216,326.272,508.629,323.098z"/>
	</g>
</g>
<g>
	<g>
		<path d="M263.071,2.934c-1.859-1.86-4.439-2.93-7.069-2.93s-5.21,1.069-7.07,2.93c-1.86,1.861-2.93,4.44-2.93,7.07
			s1.069,5.21,2.93,7.069c1.86,1.86,4.44,2.931,7.07,2.931s5.21-1.07,7.069-2.931c1.86-1.859,2.931-4.439,2.931-7.069
			S264.932,4.794,263.071,2.934z"/>
	</g>
</g>
<g>
	<g>
		<path d="M411.627,238.44c-0.006-0.063-0.014-0.125-0.021-0.187c-2.484-22.147-9.55-42.926-20.237-61.361
			c-0.275-0.588-0.606-1.146-0.988-1.669c-22.574-37.864-60.499-65.554-105.127-74.419c-0.199-0.043-0.398-0.084-0.599-0.115
			c-9.805-1.908-19.927-2.919-30.282-2.919c-10.36-0.001-20.485,1.011-30.294,2.921c-0.191,0.029-0.378,0.069-0.567,0.109
			c-44.494,8.832-82.329,36.375-104.932,74.059c-0.424,0.571-0.789,1.182-1.084,1.831c-10.617,18.251-17.682,38.806-20.26,60.717
			c-0.009,0.071-0.017,0.142-0.024,0.214c-0.701,6.033-1.074,12.165-1.074,18.383c0,41.063,15.726,78.52,41.468,106.673
			c0.468,0.635,1.003,1.217,1.608,1.727c16.748,17.781,37.55,31.703,60.921,40.256c0.371,0.156,0.748,0.29,1.133,0.4
			c16.607,5.935,34.483,9.177,53.104,9.177c20.757,0,40.59-4.025,58.77-11.323c0.459-0.151,0.907-0.333,1.342-0.549
			c22.294-9.19,42.043-23.329,57.873-41.044c0.577-0.517,1.091-1.095,1.533-1.727c24.108-27.777,38.717-64.009,38.717-103.59
			C412.607,250.067,412.267,244.209,411.627,238.44z M375.835,190.055c7.618,13.976,12.888,29.405,15.292,45.755l-39.409,39.753
			l-43.113-9.68l-4.457-13.719l-10.006-30.795l27.151-41.783L375.835,190.055z M359.707,166.595l-36.757-7.055l-18.73-32.467
			C325.878,135.475,344.906,149.184,359.707,166.595z M231.92,119.601c7.31-1.199,14.808-1.833,22.452-1.833
			c7.643,0.001,15.14,0.635,22.449,1.834l28.028,48.585l-27.12,41.734h-46.712l-27.122-41.735L231.92,119.601z M289.098,270.573
			l-17.29,12.562l-17.289,12.562l-34.58-25.124l13.208-40.651h42.743L289.098,270.573z M204.521,127.074l-18.715,32.444
			l-36.597,6.874C163.985,149.078,182.948,135.444,204.521,127.074z M133.067,189.774l54.368-10.212l27.168,41.808l-14.464,44.514
			l-43.057,9.667l-39.369-40.429C120.18,218.917,125.472,203.629,133.067,189.774z M138.539,331.355
			c-13.078-20.034-21.102-43.65-22.25-69.03l27.048,27.776L138.539,331.355z M156.137,353.156l6.796-58.421l34.647-7.779l8.09-1.816
			l38.557,28.014v41.192l-41.616,29.828C185.042,377.053,169.26,366.424,156.137,353.156z M254.372,394.238
			c-9.452,0-18.684-0.956-27.607-2.772l28.032-20.092l31.34,19.175C275.934,392.957,265.3,394.238,254.372,394.238z
			 M310.794,382.189l-46.275-28.312v-40.724l32.076-23.305l6.479-4.707l10.641,2.389l32.405,7.276l8.93,55.816
			C342.602,363.859,327.583,374.653,310.794,382.189z M371.818,328.825l-6.217-38.859l26.833-27.067
			C391.244,287.002,383.846,309.496,371.818,328.825z"/>
	</g>
</g>
<g>
	<g>
		<path d="M448.872,337.954c-1.86-1.86-4.431-2.931-7.07-2.931c-2.63,0-5.2,1.07-7.07,2.931c-1.859,1.859-2.92,4.439-2.92,7.069
			s1.061,5.21,2.92,7.07c1.86,1.86,4.44,2.93,7.07,2.93c2.639,0,5.209-1.069,7.07-2.93c1.87-1.86,2.93-4.44,2.93-7.07
			S450.742,339.813,448.872,337.954z"/>
	</g>
</g>
<g>
</g>
<g>
</g>
<g>
</g>
<g>
</g>
<g>
</g>
<g>
</g>
<g>
</g>
<g>
</g>
<g>
</g>
<g>
</g>
<g>
</g>
<g>
</g>
<g>
</g>
<g>
</g>
<g>
</g>
</svg>
