<?xml version="1.0" encoding="iso-8859-1"?>
<!-- Generator: Adobe Illustrator 19.0.0, SVG Export Plug-In . SVG Version: 6.00 Build 0)  -->
<svg version="1.1" id="Capa_1" xmlns="http://www.w3.org/2000/svg" xmlns:xlink="http://www.w3.org/1999/xlink" x="0px" y="0px"
	 viewBox="0 0 512 512" style="enable-background:new 0 0 512 512;" xml:space="preserve">
<g>
	<g>
		<path d="M211.71,208.09c-1.87-1.86-4.45-2.93-7.08-2.93s-5.2,1.069-7.07,2.93c-1.86,1.86-2.92,4.43-2.92,7.07
			c0,2.63,1.06,5.21,2.92,7.069c1.87,1.86,4.44,2.931,7.07,2.931s5.21-1.07,7.08-2.931c1.86-1.859,2.92-4.439,2.92-7.069
			S213.57,209.95,211.71,208.09z"/>
	</g>
</g>
<g>
	<g>
		<path d="M204.634,184.996c5.523,0,10-4.478,10-10V144c0-27.57-22.429-50-50-50H136.83c15.253-8.636,25.577-25.005,25.577-43.75
			c0-27.708-22.542-50.25-50.25-50.25c-27.708,0-50.25,22.542-50.25,50.25c0,18.745,10.324,35.114,25.577,43.75H57.968
			c-27.57,0-50,22.43-50,50v141.997c0,5.522,4.477,10,10,10h30v160.094c-11.869,6.168-20,18.572-20,32.847v12.999
			c0,5.522,4.477,10,10,10h73.333h73.333c5.523,0,10-4.478,10-10v-12.999c0-14.275-8.131-26.679-20-32.847V295.997h30
			c5.523,0,10-4.478,10-10V249c0-5.522-4.477-10-10-10c-5.523,0-10,4.478-10,10v26.997h-20V115.714
			c11.641,4.127,20,15.249,20,28.286v30.996C194.634,180.518,199.111,184.996,204.634,184.996z M81.907,50.25
			c0-16.68,13.571-30.25,30.25-30.25c16.68,0,30.25,13.57,30.25,30.25s-13.57,30.25-30.25,30.25
			C95.477,80.5,81.907,66.93,81.907,50.25z M67.968,114h86.667v130.83h-0.001H67.968V114z M27.968,275.997V144
			c0-13.037,8.359-24.159,20-28.286v160.283H27.968z M101.301,491.937H47.968v-2.999c0-9.374,7.626-17.001,17.001-17.001h36.332
			V491.937z M101.301,451.938H67.968v-96.271h33.333V451.938z M111.301,290.248c-5.523,0-10,4.478-10,10v35.419H67.968v-49.67
			V264.83h86.667v21.167h-0.001v49.67h-33.333v-35.419C121.301,294.726,116.824,290.248,111.301,290.248z M154.634,355.667v96.271
			h-33.333v-96.271H154.634z M174.635,488.939v2.999h-0.001h-53.333v-20h36.333C167.009,471.938,174.635,479.565,174.635,488.939z"
			/>
	</g>
</g>
<g>
	<g>
		<path d="M494.032,0h-230c-5.523,0-10,4.478-10,10v40c0,5.522,4.477,10,10,10h57.635c5.523,0,10-4.478,10-10s-4.477-10-10-10
			h-47.635V20h210v20H397c-5.523,0-10,4.478-10,10s4.477,10,10,10h97.032c5.523,0,10-4.478,10-10V10
			C504.032,4.478,499.555,0,494.032,0z"/>
	</g>
</g>
<g>
	<g>
		<path d="M366.1,42.93c-1.86-1.86-4.43-2.93-7.07-2.93c-2.63,0-5.21,1.069-7.07,2.93c-1.86,1.86-2.93,4.44-2.93,7.07
			s1.07,5.21,2.93,7.069c1.86,1.86,4.44,2.931,7.07,2.931s5.21-1.07,7.07-2.931c1.86-1.859,2.93-4.439,2.93-7.069
			S367.96,44.79,366.1,42.93z"/>
	</g>
</g>
<g>
	<g>
		<path d="M354.032,90.4h-90c-5.523,0-10,4.478-10,10v40c0,5.523,4.477,10,10,10h90c5.523,0,10-4.478,10-10v-40
			C364.032,94.878,359.555,90.4,354.032,90.4z M344.032,130.4h-70v-20h70V130.4z"/>
	</g>
</g>
<g>
	<g>
		<path d="M454.032,180.8h-190c-5.523,0-10,4.478-10,10v40c0,5.522,4.477,10,10,10h190c5.523,0,10-4.478,10-10v-40
			C464.032,185.277,459.555,180.8,454.032,180.8z M444.032,220.8h-170v-20h170V220.8z"/>
	</g>
</g>
<g>
	<g>
		<path d="M364.032,361.6h-100c-5.523,0-10,4.478-10,10v40c0,5.522,4.477,10,10,10h100c5.523,0,10-4.478,10-10v-40
			C374.032,366.078,369.555,361.6,364.032,361.6z M354.032,401.6h-80v-20h80V401.6z"/>
	</g>
</g>
<g>
	<g>
		<path d="M403.907,271.2H264.032c-5.523,0-10,4.478-10,10v40c0,5.523,4.477,10,10,10h139.875c5.523,0,10-4.478,10-10v-40
			C413.907,275.678,409.43,271.2,403.907,271.2z M393.907,311.2H274.032v-20h119.875V311.2z"/>
	</g>
</g>
<g>
	<g>
		<path d="M434.032,452h-170c-5.523,0-10,4.478-10,10v40c0,5.522,4.477,10,10,10h170c5.523,0,10-4.478,10-10v-40
			C444.032,456.478,439.555,452,434.032,452z M424.032,492h-150v-20h150V492z"/>
	</g>
</g>
<g>
</g>
<g>
</g>
<g>
</g>
<g>
</g>
<g>
</g>
<g>
</g>
<g>
</g>
<g>
</g>
<g>
</g>
<g>
</g>
<g>
</g>
<g>
</g>
<g>
</g>
<g>
</g>
<g>
</g>
</svg>
