<?xml version="1.0" encoding="iso-8859-1"?>
<!-- Generator: Adobe Illustrator 19.0.0, SVG Export Plug-In . SVG Version: 6.00 Build 0)  -->
<svg version="1.1" id="Capa_1" xmlns="http://www.w3.org/2000/svg" xmlns:xlink="http://www.w3.org/1999/xlink" x="0px" y="0px"
	 viewBox="0 0 512 512" style="enable-background:new 0 0 512 512;" xml:space="preserve">
<g>
	<g>
		<path d="M164.446,2.929C162.586,1.07,160.007,0,157.377,0c-2.63,0-5.209,1.069-7.069,2.929c-1.86,1.861-2.929,4.439-2.929,7.069
			c0,2.63,1.07,5.209,2.929,7.068c1.86,1.861,4.439,2.93,7.069,2.93c2.629,0,5.209-1.07,7.069-2.93
			c1.86-1.859,2.929-4.438,2.929-7.068C167.375,7.369,166.306,4.789,164.446,2.929z"/>
	</g>
</g>
<g>
	<g>
		<path d="M309.985,299.812l-86.779-22.597l-0.002-21.808c18.446-15.653,31.438-37.525,35.693-62.34
			c0.859-0.153,1.713-0.407,2.539-0.799c16.761-7.951,27.59-25.059,27.59-43.585V68.421C289.026,30.693,258.291,0,220.512,0H195.02
			c-5.522,0-9.998,4.477-9.998,9.998s4.476,9.998,9.998,9.998h25.492c26.753,0,48.518,21.724,48.518,48.426v80.264
			c0,7.715-3.225,15.002-8.617,20.248v-71.52c0-3.556-1.889-6.845-4.961-8.637c-3.072-1.791-6.865-1.815-9.959-0.065l-5.984,3.385
			c-12.638,7.147-26.99,10.925-41.509,10.925c-0.008,0-0.017,0-0.025,0c-23.752-0.008-46.559-11.268-61.007-30.118
			c-2.146-2.799-5.605-4.262-9.108-3.847c-3.502,0.413-6.528,2.641-7.961,5.863c-10.376,23.31-33.568,38.374-59.084,38.374H59.8
			c-5.522,0-9.998,4.477-9.998,9.998v46.803c-4.466-4.386-7.079-10.409-7.079-16.877V68.422
			c0.001-26.702,21.767-48.426,48.52-48.426h23.125c5.522,0,9.998-4.477,9.998-9.998S119.891,0,114.369,0H91.243
			C53.465,0,22.729,30.693,22.729,68.422v84.795c0,16.402,9.065,31.279,23.657,38.826c1.469,0.76,3.038,1.119,4.584,1.119
			c0.121,0,0.24-0.02,0.36-0.024c4.267,24.788,17.253,46.634,35.682,62.272v21.806L7.549,297.907
			c-5.343,1.392-8.547,6.852-7.156,12.195c1.172,4.499,5.227,7.481,9.668,7.481c0.834,0,1.682-0.104,2.527-0.324l35.562-9.26
			c7.826,52.358,52.917,91.977,106.959,91.977c28.076,0,54.684-10.709,74.924-30.154c17.377-16.694,28.507-38.323,32.026-61.824
			l42.886,11.167c47.579,12.389,80.809,55.379,80.809,104.544v78.14c0,5.521,4.476,9.998,9.998,9.998s9.998-4.477,9.998-9.998
			v-78.14C405.751,365.443,366.371,314.496,309.985,299.812z M69.799,175.27v-42.46c24.858-2.654,47.247-16.21,61.154-36.764
			c17.888,17.078,42.038,26.963,67.016,26.971c0.011,0,0.02,0,0.031,0c14.619,0,29.103-3.096,42.417-9.016v61.268
			c0,46.956-38.27,85.157-85.308,85.157C108.069,260.427,69.799,222.226,69.799,175.27z M203.211,292.325
			c0,26.523-21.578,48.101-48.101,48.101s-48.101-21.578-48.101-48.101v-23.527c14.425,7.427,30.78,11.626,48.099,11.626
			c17.32,0,33.673-4.199,48.101-11.627L203.211,292.325z M155.11,379.98c-44.77,0-81.979-33.358-87.448-77.062l19.592-5.102
			c2.808,34.988,32.158,62.605,67.856,62.605c35.696,0,65.044-27.614,67.856-62.603l19.596,5.103
			C237.109,346.677,200.025,379.98,155.11,379.98z"/>
	</g>
</g>
<g>
	<g>
		<path d="M306.374,410.253c-5.522,0-9.998,4.477-9.998,9.998v81.751c0,5.521,4.476,9.998,9.998,9.998s9.998-4.477,9.998-9.998
			v-81.751C316.372,414.73,311.895,410.253,306.374,410.253z"/>
	</g>
</g>
<g>
	<g>
		<path d="M206.364,140.306h-14.843c-5.522,0-9.998,4.477-9.998,9.998s4.476,9.998,9.998,9.998h14.843
			c5.522,0,9.998-4.477,9.998-9.998S211.886,140.306,206.364,140.306z"/>
	</g>
</g>
<g>
	<g>
		<path d="M157.377,193.349h-6.336v-43.046c0-5.521-4.476-9.998-9.998-9.998h-29.007c-5.522,0-9.998,4.477-9.998,9.998
			s4.476,9.998,9.998,9.998h19.009v43.046c0,5.521,4.476,9.998,9.998,9.998h16.334c5.522,0,9.998-4.477,9.998-9.998
			S162.899,193.349,157.377,193.349z"/>
	</g>
</g>
<g>
	<g>
		<path d="M484.933,260.606c-3.705-4.094-10.028-4.411-14.122-0.704l-0.196,0.177c-4.127,3.668-4.499,9.987-0.831,14.114
			c1.976,2.223,4.72,3.355,7.477,3.355c2.363,0,4.734-0.833,6.639-2.526l0.33-0.296C488.324,271.022,488.639,264.7,484.933,260.606z
			"/>
	</g>
</g>
<g>
	<g>
		<path d="M431.435,129.256V80.293c11.923,3.388,20.507,12.654,20.507,23.529c0,16.539,13.455,29.994,29.994,29.994
			s29.994-13.455,29.994-29.994c0-43.643-35.285-79.695-80.495-84.379V9.998c0-5.521-4.476-9.998-9.998-9.998
			s-9.998,4.477-9.998,9.998v9.447c-45.21,4.683-80.494,40.735-80.494,84.379s35.284,79.695,80.494,84.378v48.962
			c-11.923-3.388-20.506-12.654-20.506-23.529c0-16.539-13.455-29.994-29.994-29.994s-29.994,13.455-29.994,29.994
			c0,43.643,35.284,79.695,80.494,84.379v7.345c0,5.521,4.476,9.998,9.998,9.998s9.998-4.477,9.998-9.998v-7.349
			c6.088-0.631,12.083-1.83,17.911-3.604c5.282-1.61,8.259-7.196,6.651-12.478c-1.609-5.282-7.196-8.257-12.478-6.651
			c-7.105,2.165-14.534,3.262-22.081,3.262c-38.871,0-70.496-29.115-70.496-64.903c0-5.513,4.485-9.998,9.998-9.998
			s9.998,4.485,9.998,9.998c0,24.762,22.655,44.907,50.5,44.907c27.847,0,50.501-20.145,50.501-44.907
			c0-24.763-22.655-44.908-50.501-44.908c-38.871,0-70.496-29.115-70.496-64.903c0-35.788,31.625-64.903,70.496-64.903
			c38.872,0,70.497,29.115,70.497,64.903c0,5.513-4.485,9.998-9.998,9.998s-9.998-4.485-9.998-9.998
			c0-24.762-22.655-44.907-50.501-44.907s-50.5,20.145-50.5,44.907c0,24.762,22.655,44.907,50.5,44.907
			c38.872,0,70.497,29.116,70.497,64.904c0,7.577-1.412,15-4.196,22.062c-2.025,5.138,0.498,10.943,5.635,12.968
			c5.137,2.029,10.943-0.497,12.969-5.634c3.709-9.408,5.59-19.299,5.59-29.396C511.93,169.991,476.645,133.939,431.435,129.256z
			 M431.435,190.104c11.923,3.389,20.507,12.655,20.507,23.531c0,10.876-8.583,20.141-20.507,23.529V190.104z M411.439,127.354
			c-11.923-3.389-20.506-12.655-20.506-23.53s8.583-20.141,20.506-23.529V127.354z"/>
	</g>
</g>
<g>
</g>
<g>
</g>
<g>
</g>
<g>
</g>
<g>
</g>
<g>
</g>
<g>
</g>
<g>
</g>
<g>
</g>
<g>
</g>
<g>
</g>
<g>
</g>
<g>
</g>
<g>
</g>
<g>
</g>
</svg>
