<?xml version="1.0" encoding="iso-8859-1"?>
<!-- Generator: Adobe Illustrator 19.0.0, SVG Export Plug-In . SVG Version: 6.00 Build 0)  -->
<svg version="1.1" id="Capa_1" xmlns="http://www.w3.org/2000/svg" xmlns:xlink="http://www.w3.org/1999/xlink" x="0px" y="0px"
	 viewBox="0 0 512 512" style="enable-background:new 0 0 512 512;" xml:space="preserve">
<g>
	<g>
		<path d="M413.95,2.934c-1.86-1.87-4.44-2.93-7.07-2.93s-5.21,1.06-7.07,2.93c-1.86,1.86-2.93,4.43-2.93,7.07
			c0,2.63,1.07,5.199,2.93,7.069c1.86,1.861,4.44,2.931,7.07,2.931s5.21-1.07,7.07-2.931c1.86-1.859,2.93-4.439,2.93-7.069
			C416.88,7.363,415.81,4.783,413.95,2.934z"/>
	</g>
</g>
<g>
	<g>
		<path d="M502,0h-56.333c-5.523,0-10,4.478-10,10s4.477,10,10,10H492v472H20V20h341c5.523,0,10-4.478,10-10s-4.477-10-10-10H10
			C4.477,0,0,4.478,0,10v492c0,5.522,4.477,10,10,10h492c5.523,0,10-4.478,10-10V10C512,4.478,507.523,0,502,0z"/>
	</g>
</g>
<g>
	<g>
		<path d="M209.082,363.188v-55.034c0-5.522-4.477-10-10-10H138V256.28h21c5.523,0,10-4.478,10-10c0-5.522-4.477-10-10-10h-31
			c-5.523,0-10,4.478-10,10v51.873H74c-5.523,0-10,4.478-10,10v55.034c-20.014,4.561-35,22.49-35,43.866c0,24.813,20.187,45,45,45
			s45-20.187,45-45c0-21.376-14.986-39.305-35-43.866v-45.034h105.081v45.034c-20.014,4.562-34.999,22.491-34.999,43.867
			c0,24.813,20.187,45,45,45c24.813,0,45-20.187,45-45C244.082,385.678,229.096,367.749,209.082,363.188z M99,407.054
			c0,13.785-11.215,25-25,25c-13.785,0-25-11.215-25-25c0-13.785,11.215-25,25-25C87.785,382.054,99,393.269,99,407.054z
			 M199.082,432.054c-13.785,0-25-11.215-25-25c0-13.785,11.215-25,25-25c13.785,0,25,11.215,25,25
			C224.082,420.839,212.867,432.054,199.082,432.054z"/>
	</g>
</g>
<g>
	<g>
		<path d="M203.07,239.204c-1.86-1.859-4.44-2.92-7.07-2.92s-5.21,1.061-7.07,2.92c-1.86,1.87-2.93,4.44-2.93,7.08
			c0,2.63,1.07,5.21,2.93,7.07s4.44,2.93,7.07,2.93c2.63-0.001,5.21-1.07,7.07-2.93c1.86-1.87,2.93-4.44,2.93-7.07
			S204.93,241.074,203.07,239.204z"/>
	</g>
</g>
<g>
	<g>
		<path d="M448,363.187v-55.034c0-5.522-4.477-10-10-10h-47.541V246.28c0-5.522-4.477-10-10-10H266.127v-36.968
			c33.815-4.923,59.874-34.1,59.874-69.258c0-7.48-1.192-14.684-3.374-21.448c-0.097-0.345-0.211-0.68-0.341-1.005
			c-9.38-27.614-35.54-47.547-66.285-47.547c-0.018,0-0.035,0.001-0.053,0.001c-0.009,0-0.018-0.001-0.026-0.001
			c-0.027,0-0.053,0.004-0.08,0.004c-30.669,0.069-56.751,19.968-66.12,47.525c-0.137,0.342-0.257,0.693-0.358,1.055
			c-2.176,6.754-3.364,13.948-3.364,21.416c0,35.245,26.189,64.476,60.126,69.29v36.936H228.34c-5.523,0-10,4.478-10,10
			c0,5.522,4.477,10,10,10h142.12v41.873h-57.541c-5.523,0-10,4.478-10,10v55.034c-20.014,4.561-35,22.49-35,43.866
			c0,24.813,20.187,45,45,45s45-20.187,45-45c0-21.376-14.986-39.305-35-43.866v-45.034H428v45.034
			c-20.014,4.561-35,22.49-35,43.866c0,24.813,20.187,45,45,45s45-20.187,45-45C483,385.677,468.014,367.748,448,363.187z
			 M305.551,123.45c0.287,2.163,0.45,4.364,0.45,6.604c-0.001,12.823-4.857,24.53-12.822,33.39l-9.168-14.108l7.268-22.37
			L305.551,123.45z M265.921,81.046c14.012,2.832,25.913,11.541,33.022,23.433l-13.278,3.271l-19.744-14.345V81.046z
			 M255.921,110.86l15.825,11.498l-6.045,18.604H246.14l-6.045-18.604L255.921,110.86z M245.921,81.075v12.33l-19.701,14.314
			l-13.162-3.241C220.141,92.631,231.979,83.94,245.921,81.075z M218.831,163.455c-7.97-8.861-12.831-20.573-12.831-33.401
			c0-2.24,0.163-4.442,0.45-6.605l14.098,3.471l7.342,22.596L218.831,163.455z M256.127,176.756c-2.703,0-5.151,1.077-6.95,2.819
			c-5.023-0.688-9.81-2.123-14.245-4.193l9.371-14.42h23.412l9.367,14.414c-4.374,2.043-9.088,3.47-14.036,4.171
			C261.249,177.822,258.814,176.756,256.127,176.756z M337.919,407.054c0,13.785-11.215,25-25,25c-13.785,0-25-11.215-25-25
			c0-13.785,11.215-25,25-25C326.704,382.054,337.919,393.269,337.919,407.054z M438,432.054c-13.785,0-25-11.215-25-25
			c0-13.785,11.215-25,25-25c13.785,0,25,11.215,25,25C463,420.839,451.785,432.054,438,432.054z"/>
	</g>
</g>
<g>
</g>
<g>
</g>
<g>
</g>
<g>
</g>
<g>
</g>
<g>
</g>
<g>
</g>
<g>
</g>
<g>
</g>
<g>
</g>
<g>
</g>
<g>
</g>
<g>
</g>
<g>
</g>
<g>
</g>
</svg>
