<?xml version="1.0" encoding="iso-8859-1"?>
<!-- Generator: Adobe Illustrator 19.0.0, SVG Export Plug-In . SVG Version: 6.00 Build 0)  -->
<svg version="1.1" id="Capa_1" xmlns="http://www.w3.org/2000/svg" xmlns:xlink="http://www.w3.org/1999/xlink" x="0px" y="0px"
	 viewBox="0 0 512.001 512.001" style="enable-background:new 0 0 512.001 512.001;" xml:space="preserve">
<g>
	<g>
		<path d="M512,111.161c0-5.523-4.477-9.999-9.999-9.999H377.09v-29.13c0-39.707-32.304-72.011-72.011-72.011h-99.167
			c-39.707,0-72.011,32.304-72.011,72.011v29.13H9.999c-5.523,0-9.999,4.477-9.999,9.999v231.324c0,0.407,0.021,0.808,0.031,1.213
			v122.087c0,25.473,20.722,46.195,46.193,46.195h419.553c25.471,0,46.193-20.723,46.193-46.195V343.697
			c0.009-0.405,0.031-0.806,0.031-1.213L512,111.161L512,111.161z M153.901,72.032c0-28.68,23.332-52.013,52.013-52.013h99.167
			c28.68,0,52.013,23.332,52.013,52.013v29.13H335.75v-29.13c0-16.912-13.758-30.669-30.669-30.669h-99.167
			c-16.912,0-30.669,13.758-30.669,30.669v29.13h-21.343V72.032z M315.751,72.032v29.13h-0.001H195.243v-29.13
			c0-5.883,4.788-10.671,10.671-10.671h99.167C310.964,61.361,315.751,66.149,315.751,72.032z M492.002,146.444
			c-0.012,0.203-0.031,0.404-0.031,0.609v1.801h-72.452c-5.523,0-9.999,4.477-9.999,9.999c0,5.523,4.477,9.999,9.999,9.999h72.452
			v174.844c-0.641,17.406-14.993,31.37-32.551,31.37H162.507c-5.523,0-9.999,4.478-9.999,9.999s4.477,9.999,9.999,9.999h296.912
			c12.285,0,23.591-4.247,32.551-11.334v82.052c0,14.446-11.751,26.197-26.195,26.197H46.224c-14.444,0-26.195-11.752-26.195-26.197
			v-82.052c8.961,7.087,20.266,11.334,32.551,11.334h26.935c5.523,0,9.999-4.478,9.999-9.999s-4.477-9.999-9.999-9.999H52.581
			c-17.56,0-31.91-13.964-32.551-31.37L19.998,121.16h472.003V146.444z"/>
	</g>
</g>
<g>
	<g>
		<path d="M131.29,378.001c-1.86-1.871-4.44-2.93-7.069-2.93c-2.63,0-5.21,1.06-7.069,2.93c-1.86,1.86-2.93,4.43-2.93,7.069
			c0,2.63,1.07,5.2,2.93,7.068c1.86,1.86,4.44,2.931,7.069,2.931c2.63,0,5.21-1.07,7.069-2.931c1.86-1.859,2.93-4.439,2.93-7.068
			C134.22,382.429,133.15,379.85,131.29,378.001z"/>
	</g>
</g>
<g>
	<g>
		<path d="M335.993,207.873h-39.905v-39.905c0-5.523-4.477-9.999-9.999-9.999h-60.178c-5.523,0-9.999,4.477-9.999,9.999v39.905
			h-39.905c-5.523,0-9.999,4.477-9.999,9.999v60.179c-0.001,5.522,4.477,9.998,9.998,9.998h39.905v39.905
			c0,5.522,4.477,9.999,9.999,9.999h60.179c5.523,0,9.999-4.478,9.999-9.999v-39.905h39.905c5.523,0,9.999-4.478,9.999-9.999
			v-60.178C345.992,212.35,341.515,207.873,335.993,207.873z M325.994,268.052h-39.905c-5.523,0-9.999,4.478-9.999,9.999v39.905
			h-40.18v-39.905c0-5.522-4.477-9.999-9.999-9.999h-39.905v-40.181h39.904c5.523,0,9.999-4.477,9.999-9.999v-39.905h40.181v39.905
			c0,5.523,4.477,9.999,9.999,9.999h39.905V268.052z"/>
	</g>
</g>
<g>
	<g>
		<path d="M389.088,151.779c-1.86-1.86-4.44-2.93-7.069-2.93c-2.63,0-5.21,1.07-7.069,2.93c-1.86,1.86-2.93,4.44-2.93,7.069
			c0,2.64,1.07,5.22,2.93,7.069c1.86,1.87,4.44,2.94,7.069,2.94c2.63,0,5.21-1.07,7.069-2.94c1.86-1.85,2.93-4.43,2.93-7.069
			C392.018,156.218,390.948,153.639,389.088,151.779z"/>
	</g>
</g>
<g>
</g>
<g>
</g>
<g>
</g>
<g>
</g>
<g>
</g>
<g>
</g>
<g>
</g>
<g>
</g>
<g>
</g>
<g>
</g>
<g>
</g>
<g>
</g>
<g>
</g>
<g>
</g>
<g>
</g>
</svg>
