<?xml version="1.0" encoding="iso-8859-1"?>
<!-- Generator: Adobe Illustrator 19.0.0, SVG Export Plug-In . SVG Version: 6.00 Build 0)  -->
<svg version="1.1" id="Capa_1" xmlns="http://www.w3.org/2000/svg" xmlns:xlink="http://www.w3.org/1999/xlink" x="0px" y="0px"
	 viewBox="0 0 512 512" style="enable-background:new 0 0 512 512;" xml:space="preserve">
<g>
	<g>
		<path d="M508.804,133.084c-4.359-11.647-12.998-20.888-24.327-26.019c-11.296-5.116-23.908-5.527-35.513-1.156
			c-11.605,4.37-20.813,12.998-25.929,24.294l-46.163,101.933l30.236-167.225c4.562-25.231-12.254-49.47-37.484-54.032
			c-25.235-4.563-49.47,12.254-54.032,37.484l-20.784,114.948V46.5c0-25.64-20.86-46.5-46.5-46.5c-25.64,0-46.5,20.86-46.5,46.5
			v118.84l-15.092-85.39c-2.162-12.231-8.957-22.888-19.134-30.008c-10.177-7.121-22.521-9.853-34.749-7.689
			c-12.231,2.161-22.889,8.957-30.009,19.134c-7.12,10.177-9.851,22.518-7.688,34.749l27.172,153.742v23.101l-35.34-74.872
			C79.483,182.247,63.316,172,45.779,172c-13.571,0-26.333,5.983-35.013,16.416c-8.68,10.432-12.243,24.069-9.775,37.414
			l15.633,84.538c6.686,36.156,22.721,70.148,46.371,98.303c22.15,26.368,50.498,47.038,82.314,60.091V502c0,5.522,4.477,10,10,10
			h233c3.957,0,7.542-2.333,9.144-5.951l4.561-10.299l0.295,1.023c29.082-55.818,44.453-118.593,44.453-181.534
			c0-3.908-0.367-7.758-1.056-11.522l61.83-135.034C512.712,157.375,513.163,144.732,508.804,133.084z M335.273,51.922
			c2.6-14.379,16.416-23.958,30.792-21.362c14.379,2.6,23.962,16.414,21.362,30.792l-34.46,190.584l-53.86,0.001L335.273,51.922z
			 M221.809,46.5c0-14.612,11.887-26.5,26.5-26.5c14.612,0,26.5,11.888,26.5,26.5v205.438l-53,0.001V46.5z M381.8,492H165.309
			v-20.062h225.375L381.8,492z M400.778,451.938h-51.973v-10.92c0-29.766,24.216-53.982,53.982-53.982h16.95
			C415.384,409.18,409.037,430.93,400.778,451.938z M423.107,367.036h-20.319c-40.794,0-73.982,33.188-73.982,73.982v10.92H157.191
			C94.722,428.04,48.464,372.565,36.29,306.73l-15.633-84.538c-1.384-7.485,0.614-15.134,5.483-20.985
			C31.009,195.356,38.167,192,45.779,192c9.836,0,18.905,5.748,23.103,14.643l35.4,75c4.891,10.362,12.523,18.947,21.775,25.066
			c0.553,0.444,1.157,0.826,1.798,1.145c9.539,5.85,20.654,9.145,32.212,9.145c38.307,0,71.976,25.845,81.876,62.851l10.169,38.011
			c1.427,5.334,6.908,8.5,12.245,7.075c5.335-1.428,8.503-6.909,7.076-12.245l-10.169-38.011
			C249.028,328.943,207.414,297,160.068,297c-6.243,0-12.289-1.435-17.759-4.023V249c0-0.583-0.051-1.166-0.152-1.74L114.831,92.654
			c-1.232-6.97,0.324-14.003,4.382-19.803c4.058-5.8,10.131-9.673,17.102-10.905c6.972-1.23,14.003,0.325,19.803,4.382
			c5.8,4.058,9.673,10.131,10.905,17.101l31.857,180.25c0.844,4.777,4.996,8.26,9.847,8.26l174.711-0.004c0.007,0,0.014,0,0.021,0
			c11.563,0,22.434,4.501,30.612,12.676c3.111,3.109,5.687,6.61,7.689,10.389h-71.455c-5.523,0-10,4.478-10,10
			c0,5.522,4.477,10,10,10h75.809c0.216,0,0.428-0.019,0.64-0.032c0.001,0.09,0.007,0.18,0.007,0.271
			C426.761,332.571,425.524,349.888,423.107,367.036z M489.35,160.356l-54.194,118.357c-2.064-2.909-4.373-5.674-6.948-8.247
			c-10.468-10.463-23.951-16.808-38.486-18.226l51.531-113.786c6.011-13.273,21.701-19.18,34.972-13.17
			c6.448,2.92,11.366,8.18,13.847,14.81C492.553,146.724,492.297,153.919,489.35,160.356z"/>
	</g>
</g>
<g>
	<g>
		<path d="M319.875,297.93c-1.86-1.86-4.44-2.93-7.07-2.93s-5.21,1.069-7.07,2.93c-1.86,1.86-2.93,4.44-2.93,7.07
			s1.07,5.21,2.93,7.069c1.86,1.861,4.44,2.931,7.07,2.931s5.21-1.07,7.07-2.931c1.86-1.859,2.93-4.439,2.93-7.069
			S321.735,299.79,319.875,297.93z"/>
	</g>
</g>
<g>
	<g>
		<path d="M279.357,421.5h-0.096c-5.523,0-9.952,4.478-9.952,10c0,5.522,4.525,10,10.048,10c5.523,0,10-4.478,10-10
			C289.357,425.978,284.88,421.5,279.357,421.5z"/>
	</g>
</g>
<g>
</g>
<g>
</g>
<g>
</g>
<g>
</g>
<g>
</g>
<g>
</g>
<g>
</g>
<g>
</g>
<g>
</g>
<g>
</g>
<g>
</g>
<g>
</g>
<g>
</g>
<g>
</g>
<g>
</g>
</svg>
