<?xml version="1.0" encoding="iso-8859-1"?>
<!-- Generator: Adobe Illustrator 19.0.0, SVG Export Plug-In . SVG Version: 6.00 Build 0)  -->
<svg version="1.1" id="Capa_1" xmlns="http://www.w3.org/2000/svg" xmlns:xlink="http://www.w3.org/1999/xlink" x="0px" y="0px"
	 viewBox="0 0 512 512" style="enable-background:new 0 0 512 512;" xml:space="preserve">
<g>
	<g>
		<path d="M263.066,260.701c-1.859-1.86-4.438-2.929-7.067-2.929c-2.629,0-5.208,1.068-7.067,2.929
			c-1.859,1.858-2.929,4.437-2.929,7.067c0,2.629,1.07,5.208,2.929,7.066c1.859,1.859,4.438,2.93,7.067,2.93
			c2.629,0,5.208-1.07,7.067-2.93c1.859-1.858,2.929-4.437,2.929-7.066C265.995,265.138,264.925,262.559,263.066,260.701z"/>
	</g>
</g>
<g>
	<g>
		<path d="M345.408,143.433l94.18,94.18c1.874,1.874,4.417,2.928,7.068,2.928h55.234c5.52,0,9.995-4.475,9.995-9.995
			c0-5.52-4.475-9.995-9.995-9.995h-4.391c8.9-9.277,14.386-21.851,14.386-35.69c0-28.454-23.149-51.602-51.602-51.602
			c-26.404,0-48.225,19.937-51.235,45.545l-49.504-49.505c-8.532-8.532-20.966-10.83-31.608-6.91l71.211-71.212
			c11.691-11.692,11.691-30.715,0-42.407c-11.692-11.692-30.716-11.692-42.408,0l-49.504,49.505
			c-3.01-25.608-24.831-45.545-51.235-45.545s-48.226,19.937-51.235,45.545L155.26,8.769c-11.692-11.692-30.716-11.692-42.408,0
			c-11.691,11.692-11.691,30.715,0,42.407l71.212,71.211c-10.642-3.92-23.076-1.621-31.608,6.91l-49.504,49.506
			c-3.01-25.608-24.831-45.545-51.235-45.545c-28.454,0-51.602,23.148-51.602,51.602c0,13.84,5.486,26.414,14.386,35.69H10.11
			c-5.52,0-9.995,4.475-9.995,9.995c0,5.52,4.475,9.995,9.995,9.995h55.234c2.651,0,5.194-1.053,7.068-2.928l94.18-94.18
			c3.897-3.897,10.239-3.897,14.136,0s3.897,10.239,0,14.136l-82.604,82.604c-1.874,1.874-2.928,4.417-2.928,7.068v85.256h-43.48
			c-5.52,0-9.995,4.476-9.995,9.995s4.475,9.995,9.995,9.995h43.48v59.638H61.712V388.93c0-5.519-4.475-9.995-9.995-9.995
			s-9.995,4.476-9.995,9.995v23.196H10.11c-5.52,0-9.995,4.476-9.995,9.995c0,5.519,4.475,9.995,9.995,9.995h31.611v69.886
			c0,5.519,4.475,9.995,9.995,9.995s9.995-4.476,9.995-9.995v-69.885h33.484v69.635c0,5.519,4.475,9.995,9.995,9.995
			s9.995-4.476,9.995-9.995v-79.63v-0.126v-79.503v-11.193l77.342,77.342v91.11c0,5.519,4.475,9.995,9.995,9.995h106.95
			c5.52,0,9.995-4.476,9.995-9.995v-91.11l77.342-77.343v11.194v79.503v0.126v79.63c0,5.519,4.475,9.995,9.995,9.995
			s9.995-4.476,9.995-9.995v-69.635h33.484v69.886c0,5.519,4.475,9.995,9.995,9.995s9.995-4.476,9.995-9.995v-69.886h31.611
			c5.52,0,9.995-4.476,9.995-9.995c0-5.519-4.475-9.995-9.995-9.995h-31.611v-23.196c0-5.519-4.475-9.995-9.995-9.995
			s-9.995,4.476-9.995,9.995v23.196h-33.484v-59.638h85.086c5.52,0,9.995-4.476,9.995-9.995c0-5.519-4.475-9.995-9.995-9.995
			h-85.086v-85.256c0-2.651-1.054-5.194-2.928-7.068l-82.604-82.603c-3.897-3.897-3.897-10.239,0-14.137
			C335.167,139.537,341.51,139.537,345.408,143.433z M460.282,153.248c17.431,0,31.611,14.181,31.611,31.611
			c0,17.431-14.181,31.611-31.611,31.611s-31.611-14.181-31.611-31.611C428.671,167.43,442.851,153.248,460.282,153.248z
			 M51.717,216.471c-17.43,0-31.611-14.181-31.611-31.611c0-17.43,14.18-31.611,31.611-31.611s31.611,14.181,31.611,31.611
			C83.328,202.29,69.147,216.471,51.717,216.471z M255.999,32.719c17.431,0,31.611,14.181,31.611,31.611
			c0,17.431-14.181,31.611-31.611,31.611c-17.43,0-31.611-14.18-31.611-31.611C224.388,46.9,238.568,32.719,255.999,32.719z
			 M126.989,37.042c-3.897-3.899-3.897-10.241,0-14.137c3.896-3.897,10.239-3.897,14.136,0l94.18,94.18
			c1.874,1.874,4.417,2.928,7.068,2.928h27.255c2.651,0,5.194-1.054,7.068-2.928l94.18-94.18c3.896-3.897,10.239-3.897,14.136,0
			c3.897,3.897,3.897,10.239,0,14.136l-82.604,82.604c-1.874,1.874-2.928,4.417-2.928,7.068v85.256h-86.959v-85.256
			c0-2.651-1.054-5.194-2.928-7.068L126.989,37.042z M385.011,314.83l-82.604,82.604c-1.874,1.875-2.928,4.417-2.928,7.068v85.256
			H212.52v-85.256c0-2.651-1.054-5.193-2.928-7.068l-82.604-82.603c-3.897-3.897-3.897-10.24,0-14.137
			c3.896-3.898,10.239-3.898,14.136,0l94.18,94.18c1.874,1.874,4.417,2.928,7.068,2.928h27.255c2.651,0,5.194-1.053,7.068-2.928
			l94.18-94.18c3.896-3.898,10.239-3.897,14.136-0.001C388.908,304.591,388.908,310.934,385.011,314.83z M224.388,342.12
			c0-17.431,14.181-31.612,31.611-31.612s31.611,14.181,31.611,31.612c0.001,17.43-14.18,31.611-31.611,31.611
			C238.568,373.731,224.388,359.55,224.388,342.12z M396.812,251.382v33.075c-11.766-9.541-29.13-8.841-40.073,2.102l-49.504,49.505
			c-3.01-25.608-24.831-45.546-51.235-45.546s-48.226,19.938-51.235,45.546l-49.504-49.505
			c-10.943-10.943-28.308-11.643-40.073-2.101v-33.076l77.342-77.342v47.924v62.176c0,5.519,4.475,9.995,9.995,9.995
			c5.52,0,9.995-4.476,9.995-9.995v-52.181h86.959v52.181c0,5.519,4.475,9.995,9.995,9.995c5.52,0,9.995-4.476,9.995-9.995v-62.176
			v-47.924L396.812,251.382z"/>
	</g>
</g>
<g>
	<g>
		<path d="M28.176,335.426c-1.859-1.859-4.438-2.929-7.067-2.929c-2.639,0-5.208,1.068-7.067,2.929
			c-1.869,1.859-2.929,4.438-2.929,7.067s1.06,5.208,2.929,7.066c1.859,1.859,4.438,2.93,7.067,2.93s5.208-1.07,7.067-2.93
			c1.859-1.858,2.929-4.437,2.929-7.066S30.035,337.285,28.176,335.426z"/>
	</g>
</g>
<g>
</g>
<g>
</g>
<g>
</g>
<g>
</g>
<g>
</g>
<g>
</g>
<g>
</g>
<g>
</g>
<g>
</g>
<g>
</g>
<g>
</g>
<g>
</g>
<g>
</g>
<g>
</g>
<g>
</g>
</svg>
