<?xml version="1.0" encoding="iso-8859-1"?>
<!-- Generator: Adobe Illustrator 19.0.0, SVG Export Plug-In . SVG Version: 6.00 Build 0)  -->
<svg version="1.1" id="Capa_1" xmlns="http://www.w3.org/2000/svg" xmlns:xlink="http://www.w3.org/1999/xlink" x="0px" y="0px"
	 viewBox="0 0 512 512" style="enable-background:new 0 0 512 512;" xml:space="preserve">
<g>
	<g>
		<path d="M502,0H10C4.478,0,0,4.477,0,10v374c0,5.523,4.478,10,10,10h35.607c5.522,0,10-4.477,10-10s-4.478-10-10-10H20v-27h472v27
			H117.936c-5.522,0-10,4.477-10,10s4.478,10,10,10h64.874v108c0,5.523,4.478,10,10,10h126.127c5.522,0,10-4.477,10-10V394H502
			c5.522,0,10-4.477,10-10V10C512,4.477,507.522,0,502,0z M246.908,492H202.81v-98h44.098V492z M308.937,492h-42.029v-98h42.029V492
			z M492,47H296.909c-5.522,0-10,4.477-10,10s4.478,10,10,10h194.964v260H20V67h193.934c5.522,0,10-4.477,10-10s-4.478-10-10-10H20
			V20h472V47z"/>
	</g>
</g>
<g>
	<g>
		<path d="M90.336,376.93c-1.859-1.86-4.44-2.93-7.069-2.93c-2.63,0-5.21,1.07-7.07,2.93c-1.86,1.86-2.93,4.44-2.93,7.07
			s1.069,5.21,2.93,7.07c1.861,1.86,4.44,2.93,7.07,2.93c2.63,0,5.21-1.07,7.069-2.93c1.86-1.86,2.931-4.44,2.931-7.07
			S92.197,378.79,90.336,376.93z"/>
	</g>
</g>
<g>
	<g>
		<path d="M184.856,246h-60.187c-5.238,0-9.5-4.262-9.5-9.5c0-5.238,4.262-9.5,9.5-9.5h20.687c38.322,0,69.5-31.178,69.5-69.5
			S183.678,88,145.355,88H96.27c-16.542,0-30,13.458-30,30s13.458,30,30,30h49.086c5.238,0,9.5,4.262,9.5,9.5
			c0,5.238-4.262,9.5-9.5,9.5h-20.687c-38.322,0-69.5,31.178-69.5,69.5s31.178,69.5,69.5,69.5h60.187c16.542,0,30-13.458,30-30
			S201.398,246,184.856,246z M184.856,286h-60.187c-27.294,0-49.5-22.206-49.5-49.5s22.206-49.5,49.5-49.5h20.687
			c16.267,0,29.5-13.234,29.5-29.5s-13.233-29.5-29.5-29.5H96.27c-5.514,0-10-4.486-10-10s4.486-10,10-10h49.086
			c27.294,0,49.5,22.206,49.5,49.5s-22.206,49.5-49.5,49.5h-20.687c-16.267,0-29.5,13.234-29.5,29.5s13.233,29.5,29.5,29.5h60.187
			c5.514,0,10,4.486,10,10C194.856,281.514,190.37,286,184.856,286z"/>
	</g>
</g>
<g>
	<g>
		<path d="M299.669,131.465c-5.144-5.994-12.608-9.777-20.479-10.378c-7.877-0.596-15.824,2.004-21.821,7.149
			c-5.993,5.145-9.775,12.609-10.376,20.479c-0.602,7.872,2.004,15.825,7.148,21.82c5.146,5.995,12.61,9.777,20.48,10.378h-0.001
			c0.745,0.057,1.491,0.085,2.236,0.085c7.123,0,14.155-2.577,19.582-7.234c5.995-5.145,9.778-12.609,10.379-20.48
			C307.419,145.413,304.813,137.461,299.669,131.465z M286.877,151.761c-0.197,2.583-1.491,5.134-3.461,6.825
			c-1.971,1.69-4.689,2.58-7.271,2.384h-0.001c-2.582-0.197-5.135-1.491-6.825-3.461c-1.715-1.999-2.584-4.649-2.384-7.271
			c0.2-2.623,1.462-5.111,3.46-6.825c1.811-1.554,4.154-2.413,6.528-2.413c0.248,0,0.497,0.009,0.744,0.028
			c2.584,0.199,5.135,1.492,6.824,3.46C286.182,146.459,287.074,149.178,286.877,151.761z"/>
	</g>
</g>
<g>
	<g>
		<path d="M298.116,226.915c-5.585-5.585-13.316-8.788-21.211-8.788c-7.894,0-15.625,3.203-21.213,8.789
			c-5.584,5.586-8.787,13.317-8.787,21.211c0,7.895,3.203,15.625,8.789,21.211c5.587,5.585,13.317,8.789,21.211,8.789
			c7.894,0,15.625-3.204,21.211-8.789c5.586-5.586,8.789-13.317,8.789-21.211C306.905,240.234,303.702,232.503,298.116,226.915z
			 M283.974,255.195c-1.835,1.836-4.478,2.932-7.068,2.932c-2.59,0-5.233-1.096-7.069-2.932c-1.862-1.862-2.931-4.438-2.931-7.068
			s1.068-5.207,2.93-7.069c1.863-1.863,4.44-2.931,7.07-2.931c2.591,0,5.233,1.096,7.067,2.93c1.836,1.836,2.933,4.479,2.933,7.07
			C286.905,250.717,285.81,253.36,283.974,255.195z"/>
	</g>
</g>
<g>
	<g>
		<path d="M426.585,90.284c-11.247-4.658-24.08-2.108-32.694,6.502l-53.83,53.831c-11.695,11.697-11.695,30.729,0,42.427
			c11.698,11.697,30.731,11.697,42.428-0.001l2.616-2.616v86.406c0,16.542,13.458,30,30,30s30-13.458,30-30V118
			C445.105,105.823,437.835,94.944,426.585,90.284z M425.105,276.834c0,5.514-4.486,10-10,10c-5.514,0-10-4.486-10-10v-110.55
			c0-4.044-2.437-7.691-6.173-9.239c-1.237-0.513-2.537-0.762-3.825-0.762c-2.603,0-5.16,1.017-7.073,2.93l-19.688,19.688
			c-1.889,1.889-4.4,2.929-7.071,2.929s-5.183-1.04-7.071-2.929c-3.898-3.899-3.898-10.243,0-14.142l53.829-53.829
			c2.87-2.871,7.148-3.722,10.898-2.168c3.751,1.553,6.174,5.18,6.174,9.239V276.834z"/>
	</g>
</g>
<g>
	<g>
		<path d="M263.976,49.93c-1.86-1.86-4.44-2.93-7.07-2.93s-5.21,1.07-7.07,2.93c-1.859,1.86-2.93,4.44-2.93,7.07
			s1.07,5.21,2.93,7.07s4.44,2.93,7.07,2.93s5.21-1.07,7.07-2.93c1.859-1.86,2.93-4.44,2.93-7.07S265.836,51.79,263.976,49.93z"/>
	</g>
</g>
<g>
</g>
<g>
</g>
<g>
</g>
<g>
</g>
<g>
</g>
<g>
</g>
<g>
</g>
<g>
</g>
<g>
</g>
<g>
</g>
<g>
</g>
<g>
</g>
<g>
</g>
<g>
</g>
<g>
</g>
</svg>
