<?xml version="1.0" encoding="iso-8859-1"?>
<!-- Generator: Adobe Illustrator 19.0.0, SVG Export Plug-In . SVG Version: 6.00 Build 0)  -->
<svg version="1.1" id="Capa_1" xmlns="http://www.w3.org/2000/svg" xmlns:xlink="http://www.w3.org/1999/xlink" x="0px" y="0px"
	 viewBox="0 0 512.002 512.002" style="enable-background:new 0 0 512.002 512.002;" xml:space="preserve">
<g>
	<g>
		<path d="M422.911,444.47c-1.86-1.86-4.44-2.93-7.07-2.93s-5.21,1.07-7.07,2.93c-1.859,1.86-2.93,4.44-2.93,7.07
			s1.07,5.21,2.93,7.07s4.44,2.93,7.07,2.93s5.21-1.07,7.07-2.93c1.859-1.86,2.93-4.44,2.93-7.07S424.771,446.33,422.911,444.47z"/>
	</g>
</g>
<g>
	<g>
		<path d="M380.373,441.539h-35.872c-5.522,0-10,4.477-10,10s4.478,10,10,10h35.872c5.522,0,10-4.477,10-10
			S385.896,441.539,380.373,441.539z"/>
	</g>
</g>
<g>
	<g>
		<path d="M511.51,498.903l-20.243-62.153c-13.162-40.411-50.555-67.559-93.054-67.559c-0.003,0-0.008,0-0.011,0l-49.773,0.005
			l-5.715-40.669c3.959-3.79,7.646-7.83,11.045-12.088h14.576c20.718,0,37.777-15.925,39.603-36.175
			c15.339-4.882,26.484-19.259,26.484-36.195v-50.577c0-11.389-5.046-21.615-13.011-28.582C421.078,73.922,347.014,0,256.018,0
			c-90.84,0-164.8,73.668-165.387,164.442c-8.279,6.972-13.553,17.405-13.553,29.05v50.577c0,20.941,17.037,37.978,37.978,37.978
			h24.007c6.404,17.49,16.74,33.37,30.246,46.333l-5.736,40.817l-49.772-0.005c-0.005,0-0.005,0-0.01,0
			c-42.497,0-79.895,27.15-93.056,67.559L0.492,498.903c-0.991,3.045-0.465,6.38,1.417,8.972C3.79,510.466,6.799,512,10.001,512h88
			c5.522,0,10-4.477,10-10s-4.478-10-10-10H23.776l15.978-49.057c10.472-32.152,40.223-53.752,74.037-53.752
			c0.003,0,0.007,0,0.009,0l53.561,0.006l33.622,43.446l22.418,31.212L215.438,492h-43.172c-5.522,0-10,4.477-10,10s4.478,10,10,10
			h50.705c0.012,0,0.024,0.002,0.036,0.002c0.02,0,0.04-0.002,0.06-0.002h65.871c0.02,0,0.04,0.002,0.06,0.002
			c0.012,0,0.024-0.002,0.036-0.002h212.969c3.202,0,6.211-1.534,8.092-4.125C511.975,505.284,512.501,501.948,511.51,498.903z
			 M368.335,296.439h-1.572c2.418-4.651,4.541-9.457,6.351-14.393h14.231C384.994,290.339,377.371,296.439,368.335,296.439z
			 M414.422,193.494v50.576c0,9.912-8.064,17.977-17.977,17.977H378.58c1.329-7.22,2.032-14.606,2.032-22.088v-64.443h15.833
			C406.357,175.516,414.422,183.581,414.422,193.494z M115.056,262.046c-9.913,0-17.978-8.064-17.978-17.978v-50.577
			c0-9.913,8.064-17.977,17.978-17.977h16.58v1.27c-0.018,0.244-0.037,0.487-0.037,0.735v62.564c0,7.44,0.696,14.783,2.011,21.963
			H115.056z M131.94,155.515h-16.886c-1.386,0-2.754,0.08-4.102,0.225C116.001,80.043,179.131,20,256.018,20
			c76.911,0,140.056,60.079,145.069,135.809c-1.522-0.187-3.069-0.294-4.642-0.294h-16.392
			c-3.483-50.491-37.192-92.786-83.104-108.857c-0.387-0.167-0.788-0.304-1.199-0.421c-12.488-4.227-25.858-6.52-39.754-6.52
			C190.331,39.717,136.397,90.914,131.94,155.515z M360.359,164.171v3.386h-9.861c-26.19,0-47.497-21.307-47.497-47.497V70.929
			C336.999,88.168,360.359,123.488,360.359,164.171z M283.001,63.27v31.765c0,39.968-32.517,72.485-72.485,72.485h-58.88v-3.349
			c0-57.596,46.816-104.454,104.361-104.454C265.333,59.717,274.384,60.957,283.001,63.27z M151.599,240.083V187.52h58.917
			c32.387,0,60.94-16.736,77.466-42.01c10.066,24.642,34.297,42.047,62.517,42.047h10.114v52.402
			c0,20.399-6.114,39.978-17.004,56.481h-48.71v-0.584c0-11.963-9.732-21.696-21.695-21.696h-31.532
			c-11.963,0-21.695,9.733-21.695,21.696v16.456c0,11.963,9.732,21.696,21.695,21.696h31.532c10.551,0,19.363-7.573,21.296-17.567
			h31.841c-5.361,4.793-11.256,9.065-17.644,12.691c-32.397,18.393-72.662,18.417-105.095,0.051l-0.1-0.056
			C171.488,310.995,151.599,276.876,151.599,240.083z M325.304,348.349l3.935,28.005l-29.828,37.773l-16.207-7.967l-10.296-5.062
			L325.304,348.349z M256.001,389.74l-30.292-30.497c9.968,2.446,20.18,3.684,30.396,3.684c10.122,0,20.242-1.217,30.124-3.618
			L256.001,389.74z M274.899,295.855v16.456c0,0.935-0.761,1.696-1.695,1.696h-31.532c-0.935,0-1.695-0.761-1.695-1.696v-16.456
			c0-0.935,0.761-1.696,1.695-1.696h31.532C274.139,294.159,274.899,294.92,274.899,295.855z M211.946,414.133l-29.191-37.72
			l3.943-28.063l52.33,52.682L211.946,414.133z M236.222,492l5.675-20.062h28.208L275.78,492H236.222z M272.449,451.938h-32.984
			L224.06,430.49l19.247-9.311l12.658-6.124l21.493,10.566l9.93,4.882L272.449,451.938z M296.564,492l-7.985-28.228l21.709-31.148
			l34.293-43.427l53.623-0.005c0.004,0,0.004,0,0.008,0c33.812,0,63.566,21.602,74.037,53.752L488.227,492H296.564z"/>
	</g>
</g>
<g>
	<g>
		<path d="M138.741,494.9c-1.86-1.86-4.44-2.93-7.07-2.93c-2.64,0-5.21,1.07-7.07,2.93c-1.87,1.86-2.93,4.44-2.93,7.07
			s1.06,5.21,2.93,7.07c1.86,1.86,4.431,2.93,7.07,2.93c2.63,0,5.21-1.07,7.07-2.93c1.859-1.86,2.93-4.44,2.93-7.07
			S140.601,496.76,138.741,494.9z"/>
	</g>
</g>
<g>
</g>
<g>
</g>
<g>
</g>
<g>
</g>
<g>
</g>
<g>
</g>
<g>
</g>
<g>
</g>
<g>
</g>
<g>
</g>
<g>
</g>
<g>
</g>
<g>
</g>
<g>
</g>
<g>
</g>
</svg>
