<?xml version="1.0" encoding="iso-8859-1"?>
<!-- Generator: Adobe Illustrator 19.0.0, SVG Export Plug-In . SVG Version: 6.00 Build 0)  -->
<svg version="1.1" id="Capa_1" xmlns="http://www.w3.org/2000/svg" xmlns:xlink="http://www.w3.org/1999/xlink" x="0px" y="0px"
	 viewBox="0 0 511.999 511.999" style="enable-background:new 0 0 511.999 511.999;" xml:space="preserve">
<g>
	<g>
		<path d="M341.645,491.909H10.06c-5.521,0-9.997,4.476-9.997,9.998c0,5.522,4.477,9.997,9.997,9.997h331.585
			c5.521,0,9.997-4.476,9.997-9.997S347.167,491.909,341.645,491.909z"/>
	</g>
</g>
<g>
	<g>
		<path d="M392.706,494.84c-1.86-1.86-4.439-2.929-7.068-2.929c-2.639,0-5.209,1.07-7.078,2.929
			c-1.859,1.86-2.919,4.439-2.919,7.068c0,2.629,1.06,5.209,2.919,7.068c1.87,1.859,4.449,2.929,7.078,2.929s5.199-1.07,7.068-2.929
			c1.859-1.859,2.929-4.439,2.929-7.068C395.635,499.269,394.565,496.699,392.706,494.84z"/>
	</g>
</g>
<g>
	<g>
		<path d="M501.938,491.909h-74.594c-5.521,0-9.997,4.476-9.997,9.998c0,5.522,4.477,9.997,9.997,9.997h74.594
			c5.521,0,9.997-4.476,9.997-9.997S507.46,491.909,501.938,491.909z"/>
	</g>
</g>
<g>
	<g>
		<path d="M493.705,314.929c0.066-0.463,0.111-0.933,0.111-1.414v-86.843V196.68h8.186c5.521,0,9.997-4.476,9.997-9.998
			c0-5.522-4.477-9.997-9.997-9.997h-8.312c-1.644-24.591-21.142-44.36-45.616-46.43V66.712h53.862c5.521,0,9.997-4.476,9.997-9.998
			c0-5.522-4.477-9.997-9.997-9.997h-53.675c1.679-14.959,14.404-26.628,29.806-26.628h23.869c5.521,0,9.997-4.476,9.997-9.997
			s-4.477-9.997-9.997-9.997h-23.869c-27.563,0-49.988,22.424-49.988,49.988v6.633v73.347h-16.24V56.714v-6.633
			c0-27.563-22.424-49.988-49.988-49.988h-47.738c-27.563,0-49.988,22.424-49.988,49.988v6.633v73.347h-16.252V56.714v-6.633
			c0-27.563-22.424-49.988-49.988-49.988h-47.738c-27.563,0-49.988,22.424-49.988,49.988v6.633v73.347H83.92V56.714v-6.633
			c0-27.563-22.424-49.988-49.988-49.988H10.063c-5.521,0-9.997,4.476-9.997,9.997s4.477,9.997,9.997,9.997h23.869
			c15.4,0,28.127,11.668,29.806,26.628H10.063c-5.521,0-9.997,4.476-9.997,9.997c0,5.522,4.477,9.998,9.997,9.998h53.862v63.542
			c-24.474,2.07-43.972,21.839-45.616,46.43H9.997c-5.521,0-9.997,4.476-9.997,9.997c0,5.522,4.477,9.998,9.997,9.998h8.186v29.993
			v86.843c0,0.481,0.046,0.951,0.111,1.414c-11.126,9.176-18.231,23.062-18.231,38.576v39.99c0,5.522,4.477,9.997,9.997,9.997
			h51.987v48.426H10.06c-5.521,0-9.997,4.476-9.997,9.998c0,5.522,4.477,9.997,9.997,9.997h491.878c5.521,0,9.997-4.476,9.997-9.997
			c0-5.522-4.477-9.998-9.997-9.998h-51.987v-48.426h51.987c5.521,0,9.997-4.476,9.997-9.997v-39.99
			C511.936,337.992,504.832,324.105,493.705,314.929z M490.227,343.508H349.69c4.126-11.637,15.245-19.995,28.279-19.995h83.979
			C474.982,323.513,486.101,331.87,490.227,343.508z M366.097,303.518V236.67H473.82v66.848H366.097z M473.82,216.675H366.097
			V196.68H473.82V216.675z M443.829,150.056c15.4,0,28.126,11.669,29.805,26.628H366.285c1.679-14.959,14.404-26.628,29.806-26.628
			H443.829z M314.113,20.088h47.738c15.4,0,28.127,11.668,29.806,26.628H284.308C285.987,31.758,298.713,20.088,314.113,20.088z
			 M284.121,66.712h107.723v63.542c-24.474,2.07-43.972,21.839-45.616,46.43h-16.371c-1.647-24.632-21.206-44.424-45.737-46.44
			V66.712z M346.213,314.93c-3.073,2.534-5.839,5.429-8.234,8.618c-2.365-3.149-5.094-6.01-8.122-8.523
			c0.075-0.494,0.126-0.995,0.126-1.509v-86.843v-29.993h16.119v29.993v86.843C346.102,313.998,346.148,314.467,346.213,314.93z
			 M309.988,236.67v66.848h-11.999H214.01h-11.745V236.67H309.988z M202.265,216.675V196.68h107.723v19.995H202.265z
			 M214.01,323.513h83.979c13.034,0,24.153,8.357,28.279,19.995H185.731C189.857,331.871,200.976,323.513,214.01,323.513z
			 M327.982,363.503v19.995H184.144v-19.995H327.982z M279.996,150.056c15.4,0,28.127,11.668,29.806,26.628H202.453
			c1.679-14.959,14.404-26.628,29.806-26.628H279.996z M150.149,20.088h47.738c15.4,0,28.127,11.668,29.806,26.628H120.343
			C122.022,31.758,134.748,20.088,150.149,20.088z M120.156,66.712h107.723v63.553c-24.412,2.13-43.842,21.874-45.483,46.419
			h-16.625c-1.644-24.591-21.142-44.36-45.616-46.43V66.712z M182.368,314.84c-3.118,2.556-5.924,5.481-8.348,8.708
			c-2.395-3.189-5.161-6.083-8.234-8.619c0.066-0.463,0.111-0.932,0.111-1.414v-86.843V196.68h16.373v29.993v86.843
			C182.27,313.966,182.31,314.406,182.368,314.84z M68.171,150.056h47.738c15.4,0,28.127,11.668,29.806,26.628H38.366
			C40.045,161.725,52.771,150.056,68.171,150.056z M38.179,236.67h16.204c5.521,0,9.997-4.476,9.997-9.997
			c0-5.522-4.477-9.998-9.997-9.998H38.179V196.68h107.723v19.995h-16.204c-5.521,0-9.997,4.476-9.997,9.998
			c0,5.522,4.477,9.997,9.997,9.997h16.204v66.848H38.179V236.67z M50.051,323.513h83.979c13.034,0,24.153,8.357,28.279,19.995
			H21.772C25.898,331.871,37.017,323.513,50.051,323.513z M20.058,383.498v-19.995h143.964v19.995H20.058z M102.038,451.919H82.043
			v-48.426h19.995V451.919z M226.133,451.919h-104.1v-48.426h51.987c0.021,0,0.042-0.003,0.063-0.003s0.042,0.003,0.063,0.003
			h51.987V451.919z M266.124,451.919h-19.995v-48.426h19.995V451.919z M389.966,451.919H286.119v-48.426h51.86h0.127h51.86V451.919z
			 M429.956,451.919h-19.995v-48.426h19.995V451.919z M491.941,383.498H348.104v-19.995h143.837V383.498z"/>
	</g>
</g>
<g>
	<g>
		<path d="M99.107,219.608c-1.859-1.87-4.438-2.929-7.067-2.929s-5.209,1.06-7.068,2.929c-1.86,1.86-2.929,4.429-2.929,7.068
			c0,2.629,1.069,5.209,2.929,7.068c1.861,1.86,4.439,2.929,7.068,2.929s5.209-1.07,7.067-2.929c1.86-1.859,2.93-4.439,2.93-7.068
			C102.038,224.037,100.968,221.468,99.107,219.608z"/>
	</g>
</g>
<g>
</g>
<g>
</g>
<g>
</g>
<g>
</g>
<g>
</g>
<g>
</g>
<g>
</g>
<g>
</g>
<g>
</g>
<g>
</g>
<g>
</g>
<g>
</g>
<g>
</g>
<g>
</g>
<g>
</g>
</svg>
