<?xml version="1.0" encoding="iso-8859-1"?>
<!-- Generator: Adobe Illustrator 19.0.0, SVG Export Plug-In . SVG Version: 6.00 Build 0)  -->
<svg version="1.1" id="Capa_1" xmlns="http://www.w3.org/2000/svg" xmlns:xlink="http://www.w3.org/1999/xlink" x="0px" y="0px"
	 viewBox="0 0 512.001 512.001" style="enable-background:new 0 0 512.001 512.001;" xml:space="preserve">
<g>
	<g>
		<path d="M417.64,205.3c-1.86-1.86-4.44-2.93-7.07-2.93s-5.21,1.07-7.07,2.93c-1.86,1.86-2.93,4.44-2.93,7.07s1.07,5.21,2.93,7.07
			s4.44,2.93,7.07,2.93s5.21-1.07,7.07-2.93s2.93-4.44,2.93-7.07S419.5,207.16,417.64,205.3z"/>
	</g>
</g>
<g>
	<g>
		<path d="M369.199,0H142.801c-28.327,0-51.372,23.045-51.372,51.372v409.257c0,28.326,23.045,51.372,51.372,51.372h226.397
			c28.327,0,51.372-23.045,51.372-51.372V256c0-5.523-4.477-10-10-10s-10,4.477-10,10v204.628c0,17.298-14.073,31.372-31.372,31.372
			H256.127H142.801c-17.299,0-31.372-14.073-31.372-31.372V51.372c0-17.298,14.073-31.372,31.372-31.372h226.397
			c17.299,0,31.372,14.073,31.372,31.372V167c0,5.523,4.477,10,10,10s10-4.477,10-10V51.372h0.001
			C420.572,23.045,397.525,0,369.199,0z"/>
	</g>
</g>
<g>
	<g>
		<path d="M370.572,53.746H141.683c-5.523,0-10,4.477-10,10V423c0,5.523,4.477,10,10,10h106.766
			c-12.834,3.401-22.322,15.112-22.322,29c0,16.542,13.458,30,30,30c16.542,0,30-13.458,30-30c0-13.888-9.488-25.599-22.322-29
			h106.766c5.523,0,10-4.477,10-10V63.746C380.572,58.223,376.095,53.746,370.572,53.746z M266.127,462c0,5.514-4.486,10-10,10
			s-10-4.486-10-10c0-5.514,4.486-10,10-10C261.642,452,266.127,456.486,266.127,462z M360.571,372.667h-80.317
			c-5.523,0-10,4.477-10,10s4.477,10,10,10h80.317V413H151.683v-88H232c5.523,0,10-4.477,10-10s-4.477-10-10-10h-80.317v-28h208.888
			V372.667z M360.572,257H151.683V73.746h208.888V257z"/>
	</g>
</g>
<g>
	<g>
		<path d="M263.2,31.43c-1.86-1.86-4.44-2.93-7.07-2.93c-2.64,0-5.21,1.07-7.07,2.93c-1.87,1.86-2.93,4.44-2.93,7.07
			s1.06,5.21,2.93,7.07c1.86,1.86,4.43,2.93,7.07,2.93c2.63,0,5.21-1.07,7.07-2.93s2.93-4.44,2.93-7.07S265.06,33.29,263.2,31.43z"
			/>
	</g>
</g>
<g>
	<g>
		<path d="M249.33,375.6c-1.87-1.87-4.44-2.93-7.08-2.93c-2.63,0-5.21,1.06-7.07,2.93c-1.86,1.86-2.93,4.44-2.93,7.07
			s1.07,5.21,2.93,7.07s4.44,2.93,7.07,2.93c2.64,0,5.21-1.07,7.08-2.93c1.86-1.86,2.92-4.44,2.92-7.07S251.19,377.46,249.33,375.6z
			"/>
	</g>
</g>
<g>
	<g>
		<path d="M322.56,141.748c-0.098-0.352-0.215-0.693-0.348-1.025c-9.382-27.611-35.54-47.541-66.283-47.541
			c-0.018,0-0.035,0.001-0.053,0.001c-0.009,0-0.018-0.001-0.026-0.001c-0.027,0-0.053,0.004-0.08,0.004
			c-30.672,0.069-56.756,19.972-66.123,47.534c-0.134,0.334-0.251,0.678-0.35,1.032c-2.178,6.757-3.367,13.956-3.367,21.43
			c0,38.598,31.402,70,70,70c38.598,0,70-31.402,70-70C325.93,155.707,324.74,148.508,322.56,141.748z M265.851,114.174
			c14.011,2.831,25.912,11.541,33.021,23.433l-13.277,3.271l-19.744-14.345V114.174z M255.851,143.989l15.825,11.498l-6.044,18.604
			H246.07l-6.045-18.604L255.851,143.989z M245.851,114.203v12.33l-19.701,14.314l-13.162-3.24
			C220.071,125.759,231.908,117.068,245.851,114.203z M218.761,196.583c-7.971-8.861-12.831-20.573-12.831-33.401
			c0-2.24,0.163-4.443,0.45-6.606l14.098,3.471l7.342,22.596L218.761,196.583z M255.93,213.182c-7.525,0-14.661-1.681-21.069-4.671
			l9.371-14.42h23.412l9.367,14.414C270.6,211.499,263.46,213.182,255.93,213.182z M293.108,196.572l-9.168-14.109l7.268-22.37
			l14.272-3.516c0.287,2.163,0.45,4.364,0.45,6.604C305.93,176.005,301.073,187.712,293.108,196.572z"/>
	</g>
</g>
<g>
</g>
<g>
</g>
<g>
</g>
<g>
</g>
<g>
</g>
<g>
</g>
<g>
</g>
<g>
</g>
<g>
</g>
<g>
</g>
<g>
</g>
<g>
</g>
<g>
</g>
<g>
</g>
<g>
</g>
</svg>
