<?xml version="1.0" encoding="iso-8859-1"?>
<!-- Generator: Adobe Illustrator 19.0.0, SVG Export Plug-In . SVG Version: 6.00 Build 0)  -->
<svg version="1.1" id="Capa_1" xmlns="http://www.w3.org/2000/svg" xmlns:xlink="http://www.w3.org/1999/xlink" x="0px" y="0px"
	 viewBox="0 0 511.999 511.999" style="enable-background:new 0 0 511.999 511.999;" xml:space="preserve">
<g>
	<g>
		<path d="M367.361,251.957c-6.512-25.872-19.968-49.561-38.913-68.505c-18.947-18.946-42.634-32.401-68.504-38.913
			c-7.767-1.956-15.832-0.77-22.707,3.342c-6.875,4.11-11.738,10.652-13.694,18.42c-4.035,16.032,5.727,32.361,21.763,36.401
			c3.37,0.848,6.723,1.909,9.968,3.156c5.154,1.978,10.936-0.595,12.915-5.749c1.978-5.154-0.595-10.936-5.749-12.915
			c-3.989-1.532-8.113-2.837-12.252-3.879c-5.346-1.346-8.601-6.789-7.256-12.133c0.652-2.59,2.272-4.77,4.564-6.141
			c2.291-1.37,4.978-1.767,7.568-1.114c22.367,5.63,42.855,17.27,59.248,33.662c16.391,16.391,28.031,36.879,33.662,59.25
			c0.652,2.588,0.256,5.276-1.114,7.567c-1.37,2.292-3.552,3.913-6.142,4.565c-3.445,0.866-7.004-0.119-9.522-2.637
			c-1.266-1.266-2.168-2.863-2.611-4.617c-1.469-5.839-3.45-11.599-5.885-17.119c-2.229-5.051-8.131-7.339-13.181-5.111
			c-5.051,2.228-7.339,8.13-5.111,13.181c1.982,4.493,3.594,9.18,4.79,13.932c1.324,5.257,4.042,10.054,7.861,13.873
			c5.681,5.68,13.412,8.784,21.288,8.784c2.422,0,4.858-0.294,7.252-0.897c7.768-1.955,14.309-6.818,18.42-13.694
			C368.13,267.789,369.317,259.724,367.361,251.957z"/>
	</g>
</g>
<g>
	<g>
		<path d="M442.592,256.53c-4.367-47.483-25.368-92.228-59.134-125.993c-34.398-34.397-80.013-55.473-128.445-59.346
			c-7.98-0.642-15.74,1.87-21.838,7.065c-6.098,5.195-9.807,12.453-10.446,20.438c-0.702,8.773,2.468,17.375,8.696,23.602
			c5.031,5.031,11.71,8.115,18.807,8.682c23.349,1.867,46.175,9.508,66.009,22.097c4.66,2.959,10.837,1.578,13.797-3.083
			c2.958-4.661,1.578-10.838-3.083-13.797c-22.571-14.326-48.55-23.022-75.131-25.147c-3.03-0.242-5.079-1.705-6.264-2.89
			c-2.079-2.078-3.137-4.947-2.903-7.872c0.439-5.495,5.254-9.613,10.762-9.167c43.699,3.495,84.861,22.513,115.901,53.554
			c30.47,30.47,49.422,70.845,53.363,113.689c0.245,2.659-0.561,5.253-2.268,7.306c-1.707,2.053-4.111,3.318-6.77,3.563
			c-2.658,0.244-5.254-0.561-7.307-2.268s-3.318-4.111-3.563-6.77c-2.308-25.087-10.544-49.738-23.817-71.286
			c-2.896-4.701-9.055-6.164-13.754-3.269c-4.7,2.895-6.165,9.053-3.269,13.754c11.665,18.94,18.904,40.597,20.931,62.633
			c0.733,7.977,4.529,15.191,10.689,20.312c5.436,4.519,12.137,6.933,19.121,6.932c0.929,0,1.863-0.043,2.8-0.129
			c7.977-0.733,15.19-4.529,20.312-10.689S443.327,264.506,442.592,256.53z"/>
	</g>
</g>
<g>
	<g>
		<path d="M437.106,74.794C389.611,27.298,326.468,0.736,259.313,0.001c-8.04-0.075-15.574,2.95-21.299,8.552
			c-5.726,5.602-8.928,13.098-9.015,21.107c-0.089,8.135,3.03,15.782,8.782,21.535c5.577,5.576,12.991,8.695,20.877,8.781
			c51.383,0.562,99.696,20.886,136.039,57.229c36.342,36.341,56.666,84.654,57.229,136.036c0.087,8.01,3.289,15.506,9.015,21.108
			c5.646,5.524,13.078,8.554,20.962,8.554c0.113,0,0.227-0.001,0.339-0.002c16.535-0.182,29.839-13.781,29.657-30.315
			C511.164,185.43,484.603,122.29,437.106,74.794z M482.021,262.908c-2.661,0.042-5.191-0.983-7.1-2.851
			c-1.908-1.867-2.976-4.365-3.004-7.035c-0.621-56.641-23.024-109.895-63.082-149.956c-40.061-40.06-93.318-62.464-149.958-63.083
			c-2.629-0.029-5.1-1.068-6.958-2.927c-1.917-1.917-2.957-4.466-2.928-7.179c0.029-2.669,1.096-5.168,3.005-7.035
			c1.882-1.841,4.359-2.852,6.987-2.852c0.037,0,0.075,0,0.112,0c61.899,0.677,120.098,25.159,163.875,68.938
			c43.778,43.778,68.26,101.975,68.937,163.873C491.967,258.315,487.533,262.848,482.021,262.908z"/>
	</g>
</g>
<g>
	<g>
		<path d="M274.993,247.199c-0.468-0.636-1.006-1.22-1.611-1.731c-16.721-17.753-37.484-31.657-60.811-40.209
			c-0.464-0.2-0.938-0.375-1.423-0.503c-16.543-5.885-34.34-9.1-52.875-9.1c-20.7,0-40.48,4.003-58.616,11.266
			c-0.53,0.166-1.044,0.378-1.541,0.631c-22.257,9.187-41.974,23.31-57.782,41.001c-0.576,0.516-1.09,1.094-1.531,1.725
			c-24.099,27.766-38.702,63.984-38.702,103.55c0,5.937,0.34,11.794,0.981,17.563c0.005,0.056,0.013,0.112,0.019,0.167
			c2.481,22.142,9.545,42.917,20.229,61.348c0.276,0.59,0.607,1.149,0.99,1.672c27.617,46.321,78.219,77.421,135.953,77.421
			c57.586,0,108.074-30.937,135.739-77.059c0.423-0.57,0.788-1.181,1.083-1.828c10.613-18.242,17.676-38.788,20.252-60.689
			c0.009-0.074,0.018-0.149,0.026-0.223c0.701-6.029,1.073-12.157,1.073-18.371C316.443,312.783,300.724,275.341,274.993,247.199z
			 M256.469,256.713l-6.793,58.399l-42.72,9.591l-38.541-28.002v-41.177l41.6-29.815
			C227.575,232.827,243.351,243.451,256.469,256.713z M192.691,339.264L179.489,379.9h-42.727l-13.203-40.635l17.283-12.557
			l17.283-12.557L192.691,339.264z M158.272,215.648c9.447,0,18.676,0.956,27.595,2.771l-28.021,20.083l-31.326-19.167
			C136.719,216.928,147.348,215.648,158.272,215.648z M101.872,227.692l46.257,28.302v40.707l-38.541,28.002l-43.029-9.661
			l-8.927-55.795C70.076,246.014,85.089,235.225,101.872,227.692z M20.263,346.936c1.19-24.094,8.585-46.579,20.607-65.899
			l6.215,38.843L20.263,346.936z M36.855,419.75c-7.615-13.97-12.883-29.394-15.286-45.737l39.394-39.738l43.097,9.676
			l14.458,44.497l-27.142,41.768L36.855,419.75z M52.978,443.202l36.743,7.052l18.722,32.453
			C86.794,474.31,67.773,460.606,52.978,443.202z M158.272,492.007c-7.641,0.001-15.134-0.633-22.44-1.83l-28.017-48.566
			l27.11-41.719h46.694l27.11,41.719l-28.013,48.564C173.409,491.373,165.913,492.007,158.272,492.007z M208.103,482.707
			l18.707-32.431l36.583-6.871C248.624,460.712,229.667,474.341,208.103,482.707z M279.53,420.032l-54.347,10.208l-27.158-41.791
			l14.458-44.497l43.039-9.663l39.355,40.411C292.412,390.9,287.122,406.182,279.53,420.032z M269.264,319.744l4.797-41.238
			c13.072,20.026,21.093,43.633,22.24,69.002L269.264,319.744z"/>
	</g>
</g>
<g>
	<g>
		<path d="M300.173,211.727c-1.859-1.859-4.438-2.929-7.067-2.929c-2.629,0-5.208,1.07-7.067,2.929
			c-1.859,1.859-2.929,4.438-2.929,7.067c0,2.629,1.07,5.208,2.929,7.067c1.859,1.859,4.438,2.929,7.067,2.929
			c2.629,0,5.208-1.07,7.067-2.929c1.859-1.859,2.929-4.438,2.929-7.067C303.102,216.165,302.032,213.586,300.173,211.727z"/>
	</g>
</g>
<g>
	<g>
		<path d="M355.191,158.808c-1.869-1.859-4.448-2.929-7.077-2.929c-2.629,0-5.208,1.07-7.067,2.929
			c-1.859,1.859-2.929,4.438-2.929,7.067c0,2.639,1.07,5.208,2.929,7.067c1.859,1.869,4.438,2.929,7.067,2.929
			c2.639,0,5.207-1.06,7.077-2.929c1.859-1.859,2.919-4.428,2.919-7.067C358.11,163.246,357.051,160.667,355.191,158.808z"/>
	</g>
</g>
<g>
</g>
<g>
</g>
<g>
</g>
<g>
</g>
<g>
</g>
<g>
</g>
<g>
</g>
<g>
</g>
<g>
</g>
<g>
</g>
<g>
</g>
<g>
</g>
<g>
</g>
<g>
</g>
<g>
</g>
</svg>
