<?xml version="1.0" encoding="iso-8859-1"?>
<!-- Generator: Adobe Illustrator 19.0.0, SVG Export Plug-In . SVG Version: 6.00 Build 0)  -->
<svg version="1.1" id="Capa_1" xmlns="http://www.w3.org/2000/svg" xmlns:xlink="http://www.w3.org/1999/xlink" x="0px" y="0px"
	 viewBox="0 0 512 512" style="enable-background:new 0 0 512 512;" xml:space="preserve">
<g>
	<g>
		<path d="M426.727,22.613C412.128,8.029,392.729,0,372.097,0c-0.026,0-0.053,0-0.079,0l-60.421,0.06H200.581L139.983,0
			c-0.026,0-0.052,0-0.078,0c-20.633,0-40.032,8.029-54.632,22.613C70.656,37.217,62.606,56.638,62.606,77.3v114.849
			c0,5.522,4.477,9.999,9.999,9.999h58.152v116.001v45.918c0,5.522,4.477,9.999,9.999,9.999s9.999-4.476,9.999-9.999v-35.919
			h210.661v163.855h-95.332V383.955c0-5.522-4.477-9.999-9.999-9.999s-9.999,4.476-9.999,9.999v108.047h-95.332v-46.445
			c0-5.522-4.477-9.999-9.999-9.999s-9.999,4.476-9.999,9.999v56.443c0,5.522,4.477,9.999,9.999,9.999h230.659
			c5.521,0,9.999-4.477,9.999-9.999V318.15V202.148h57.981c5.521,0,9.999-4.477,9.999-9.999V77.301
			C449.395,56.638,441.345,37.217,426.727,22.613z M210.573,20.058L210.573,20.058h91.025v7.565c0,25.061-20.417,45.45-45.513,45.45
			s-45.513-20.389-45.513-45.45V20.058z M429.397,182.151h-47.982v-25.392c0-5.522-4.477-9.999-9.999-9.999
			s-9.999,4.477-9.999,9.999v35.314c0,0.026-0.004,0.051-0.004,0.077s0.004,0.051,0.004,0.077v115.924H150.756V117.703
			c0-5.522-4.477-9.999-9.999-9.999c-5.521,0-9.999,4.476-9.999,9.999v64.447H82.605V77.301c0-15.317,5.968-29.715,16.804-40.539
			c10.822-10.813,25.2-16.764,40.496-16.764c0.019,0,0.04,0,0.059,0l50.612,0.05v7.575c0,36.088,29.388,65.447,65.51,65.447
			s65.51-29.36,65.51-65.447v-7.575l50.44-0.05c0.02,0,0.039,0,0.059,0c15.295,0,29.676,5.952,40.497,16.763
			c10.836,10.825,16.804,25.222,16.804,40.539V182.151z"/>
	</g>
</g>
<g>
	<g>
		<path d="M307.295,133.799h-17.048c-21.411,0-38.829,17.418-38.829,38.828v52.327c0,21.41,17.419,38.828,38.829,38.828h17.048
			c21.41,0,38.829-17.418,38.829-38.828v-52.327C346.125,151.217,328.706,133.799,307.295,133.799z M326.127,224.955
			c0,10.384-8.448,18.831-18.832,18.831h-17.048c-10.384,0-18.832-8.448-18.832-18.831v-52.327c0-10.384,8.448-18.831,18.832-18.831
			h17.048c10.384,0,18.832,8.447,18.832,18.831V224.955z"/>
	</g>
</g>
<g>
	<g>
		<path d="M222.269,133.799h-39.995c-5.521,0-9.999,4.477-9.999,9.999v109.987c0,5.522,4.477,9.999,9.999,9.999h39.995
			c5.521,0,9.999-4.476,9.999-9.999V143.798C232.268,138.276,227.792,133.799,222.269,133.799z M212.271,243.786h-19.998v-89.989
			h19.998V243.786z"/>
	</g>
</g>
<g>
	<g>
		<path d="M298.772,175.044c-5.521,0-9.999,4.477-9.999,9.999v30.996c0,5.522,4.477,9.999,9.999,9.999s9.999-4.477,9.999-9.999
			v-30.996C308.771,179.521,304.294,175.044,298.772,175.044z"/>
	</g>
</g>
<g>
	<g>
		<path d="M147.826,399.663c-1.859-1.86-4.438-2.93-7.068-2.93c-2.631,0-5.209,1.06-7.069,2.93c-1.86,1.86-2.93,4.43-2.93,7.069
			c0,2.63,1.069,5.209,2.93,7.069c1.861,1.86,4.438,2.93,7.069,2.93c2.63,0,5.209-1.07,7.068-2.93c1.86-1.86,2.931-4.44,2.931-7.069
			C150.757,404.103,149.687,401.523,147.826,399.663z"/>
	</g>
</g>
<g>
	<g>
		<path d="M371.425,107.704h-0.01c-5.521,0-9.994,4.476-9.994,9.999c0,5.522,4.481,9.999,10.004,9.999
			c5.522,0,9.999-4.476,9.999-9.999C381.424,112.181,376.947,107.704,371.425,107.704z"/>
	</g>
</g>
<g>
</g>
<g>
</g>
<g>
</g>
<g>
</g>
<g>
</g>
<g>
</g>
<g>
</g>
<g>
</g>
<g>
</g>
<g>
</g>
<g>
</g>
<g>
</g>
<g>
</g>
<g>
</g>
<g>
</g>
</svg>
