<?xml version="1.0" encoding="iso-8859-1"?>
<!-- Generator: Adobe Illustrator 19.0.0, SVG Export Plug-In . SVG Version: 6.00 Build 0)  -->
<svg version="1.1" id="Capa_1" xmlns="http://www.w3.org/2000/svg" xmlns:xlink="http://www.w3.org/1999/xlink" x="0px" y="0px"
	 viewBox="0 0 512 512" style="enable-background:new 0 0 512 512;" xml:space="preserve">
<g>
	<g>
		<path d="M128,237.147c-20.11,0-36.471,16.361-36.471,36.471c0,20.11,16.361,36.471,36.471,36.471s36.471-16.361,36.471-36.471
			C164.471,253.508,148.11,237.147,128,237.147z M128,290.089c-9.082,0-16.471-7.389-16.471-16.471
			c0-9.082,7.389-16.471,16.471-16.471c9.082,0,16.471,7.389,16.471,16.471C144.471,282.7,137.082,290.089,128,290.089z"/>
	</g>
</g>
<g>
	<g>
		<path d="M326.998,155.591c-20.111,0-36.472,16.361-36.472,36.471c0,20.11,16.361,36.471,36.472,36.471
			c20.111,0,36.471-16.361,36.471-36.471C363.469,171.952,347.109,155.591,326.998,155.591z M326.998,208.533
			c-9.082,0-16.472-7.389-16.472-16.471c0-9.082,7.39-16.471,16.472-16.471s16.471,7.389,16.471,16.471
			C343.469,201.144,336.08,208.533,326.998,208.533z"/>
	</g>
</g>
<g>
	<g>
		<path d="M381.386,280.223c-20.11,0-36.471,16.361-36.471,36.471c0,20.11,16.36,36.471,36.471,36.471s36.472-16.361,36.472-36.471
			C417.857,296.584,401.496,280.223,381.386,280.223z M381.386,333.165c-9.082,0-16.471-7.389-16.471-16.471
			c0-9.082,7.389-16.471,16.471-16.471c9.082,0,16.472,7.389,16.472,16.471C397.858,325.776,390.468,333.165,381.386,333.165z"/>
	</g>
</g>
<g>
	<g>
		<path d="M293.947,393.938c-20.11,0-36.471,16.361-36.471,36.471c0,20.11,16.36,36.471,36.471,36.471
			c20.111,0,36.471-16.361,36.471-36.471S314.058,393.938,293.947,393.938z M293.947,446.88c-9.082,0-16.471-7.389-16.471-16.471
			c0-9.082,7.389-16.471,16.471-16.471c9.082,0,16.471,7.389,16.471,16.471C310.418,439.491,303.029,446.88,293.947,446.88z"/>
	</g>
</g>
<g>
	<g>
		<path d="M130.614,350.464c-20.11,0-36.472,16.361-36.472,36.471c0,20.11,16.361,36.471,36.472,36.471s36.471-16.361,36.471-36.471
			C167.085,366.825,150.725,350.464,130.614,350.464z M130.614,403.407c-9.082,0-16.472-7.389-16.472-16.471
			c0-9.082,7.39-16.471,16.472-16.471c9.082,0,16.471,7.389,16.471,16.471C147.085,396.018,139.696,403.407,130.614,403.407z"/>
	</g>
</g>
<g>
	<g>
		<path d="M329.983,326.086c-1.613-5.282-7.202-8.258-12.484-6.645l-91.131,27.814c-5.282,1.612-8.258,7.201-6.646,12.483
			c1.315,4.31,5.277,7.083,9.561,7.083c0.967,0,1.95-0.141,2.923-0.438l91.131-27.814
			C328.619,336.957,331.595,331.368,329.983,326.086z"/>
	</g>
</g>
<g>
	<g>
		<path d="M200.639,360.65c-1.859-1.86-4.439-2.93-7.07-2.93c-2.63,0-5.21,1.07-7.069,2.93c-1.87,1.86-2.931,4.44-2.931,7.07
			s1.061,5.21,2.931,7.07c1.859,1.86,4.43,2.93,7.069,2.93c2.631,0,5.211-1.07,7.07-2.93c1.86-1.86,2.93-4.44,2.93-7.07
			S202.5,362.51,200.639,360.65z"/>
	</g>
</g>
<g>
	<g>
		<path d="M448,81.087h-61.118L285.479,23.798C282.613,10.222,270.543,0,256.127,0c-14.416,0-26.486,10.222-29.352,23.798
			L125.371,81.087H64c-5.522,0-10,4.477-10,10v40V502c0,5.523,4.478,10,10,10h384c5.522,0,10-4.477,10-10V131.087v-40
			C458,85.564,453.522,81.087,448,81.087z M256.127,20c5.514,0,10,4.486,10,10s-4.486,10-10,10c-5.514,0-10-4.486-10-10
			S250.613,20,256.127,20z M230.1,44.891C235.28,53.909,245.002,60,256.127,60s20.847-6.091,26.027-15.109l64.069,36.196H166.031
			L230.1,44.891z M438,121.087H181.5c-5.522,0-10,4.477-10,10c0,5.523,4.478,10,10,10h41.142c-0.143,0.127-0.29,0.25-0.426,0.386
			l-34.094,34.093c-3.905,3.905-3.905,10.237,0,14.142c3.906,3.906,10.236,3.906,14.143,0l17.022-17.022v38.536
			c0,3.206,1.537,6.218,4.134,8.099l91.131,66.012c1.772,1.284,3.824,1.902,5.858,1.902c3.097,0,6.15-1.434,8.106-4.134
			c3.24-4.473,2.24-10.725-2.232-13.965l-86.997-63.018v-33.431l17.021,17.022c1.953,1.953,4.512,2.929,7.071,2.929
			c2.559,0,5.118-0.977,7.071-2.929c3.905-3.905,3.905-10.237,0-14.142l-34.093-34.093c-0.136-0.136-0.283-0.259-0.427-0.386H438
			V492H249.821l-61.607-61.606c-3.906-3.905-10.236-3.905-14.143,0c-3.905,3.905-3.905,10.237,0,14.142L221.536,492H74V141.087
			h27.529c5.522,0,10-4.477,10-10c0-5.523-4.478-10-10-10H74v-20h53.979c0.01,0,0.02,0.002,0.03,0.002
			c0.01,0,0.021-0.002,0.031-0.002h256.174c0.01,0,0.021,0.002,0.031,0.002s0.02-0.002,0.03-0.002H438V121.087z"/>
	</g>
</g>
<g>
	<g>
		<path d="M149.399,124.02c-1.859-1.87-4.43-2.93-7.069-2.93c-2.63,0-5.21,1.06-7.07,2.93c-1.86,1.86-2.93,4.43-2.93,7.07
			c0,2.63,1.069,5.21,2.93,7.07c1.86,1.86,4.44,2.93,7.07,2.93c2.64,0,5.21-1.07,7.069-2.93c1.87-1.87,2.931-4.44,2.931-7.07
			C152.33,128.45,151.269,125.88,149.399,124.02z"/>
	</g>
</g>
<g>
</g>
<g>
</g>
<g>
</g>
<g>
</g>
<g>
</g>
<g>
</g>
<g>
</g>
<g>
</g>
<g>
</g>
<g>
</g>
<g>
</g>
<g>
</g>
<g>
</g>
<g>
</g>
<g>
</g>
</svg>
